STARTFONT 2.1
FONT -Adobe-Courier-Medium-O-Normal--24-240-75-75-M-150-ISO10646-1
SIZE 24 75 75
FONTBOUNDINGBOX 26 32 -4 -8
COMMENT $XFree86$
COMMENT ISO10646-1 extension by Markus Kuhn <mkuhn@acm.org>, 2001-03-20
COMMENT 
COMMENT +
COMMENT  Copyright 1984-1989, 1994 Adobe Systems Incorporated.
COMMENT  Copyright 1988, 1994 Digital Equipment Corporation.
COMMENT
COMMENT  Adobe is a trademark of Adobe Systems Incorporated which may be
COMMENT  registered in certain jurisdictions.
COMMENT  Permission to use these trademarks is hereby granted only in
COMMENT  association with the images described in this file.
COMMENT
COMMENT  Permission to use, copy, modify, distribute and sell this software
COMMENT  and its documentation for any purpose and without fee is hereby
COMMENT  granted, provided that the above copyright notices appear in all
COMMENT  copies and that both those copyright notices and this permission
COMMENT  notice appear in supporting documentation, and that the names of
COMMENT  Adobe Systems and Digital Equipment Corporation not be used in
COMMENT  advertising or publicity pertaining to distribution of the software
COMMENT  without specific, written prior permission.  Adobe Systems and
COMMENT  Digital Equipment Corporation make no representations about the
COMMENT  suitability of this software for any purpose.  It is provided "as
COMMENT  is" without express or implied warranty.
COMMENT -
STARTPROPERTIES 26
FOUNDRY "Adobe"
FAMILY_NAME "Courier"
WEIGHT_NAME "Medium"
SLANT "O"
SETWIDTH_NAME "Normal"
ADD_STYLE_NAME ""
PIXEL_SIZE 24
POINT_SIZE 240
RESOLUTION_X 75
RESOLUTION_Y 75
SPACING "M"
AVERAGE_WIDTH 150
CHARSET_REGISTRY "ISO10646"
CHARSET_ENCODING "1"
CAP_HEIGHT 14
X_HEIGHT 11
FONT_ASCENT 19
FONT_DESCENT 5
FACE_NAME "Courier Oblique"
COPYRIGHT "Copyright (c) 1984, 1987 Adobe Systems Incorporated. All Rights Reserved. Copyright (c) 1988, 1991 Digital Equipment Corporation. All Rights Reserved."
NOTICE "No mark"
_DEC_DEVICE_FONTNAMES "PS=Courier-Oblique"

STARTCHAR char0
ENCODING 0
SWIDTH 600 0
DWIDTH 15 0
BBX 15 13 1 0
BITMAP
AAAA
0000
8002
0000
8002
0000
8002
0000
8002
0000
8002
0000
AAAA
ENDCHAR
STARTCHAR space
ENCODING 32
SWIDTH 600 0
DWIDTH 15 0
BBX 1 1 0 0
BITMAP
00
ENDCHAR
STARTCHAR exclam
ENCODING 33
SWIDTH 600 0
DWIDTH 15 0
BBX 5 16 6 0
BITMAP
18
18
18
38
38
30
30
30
20
20
20
00
00
00
E0
E0
ENDCHAR
STARTCHAR quotedbl
ENCODING 34
SWIDTH 600 0
DWIDTH 15 0
BBX 8 7 6 8
BITMAP
E7
E7
C6
C6
C6
84
84
ENDCHAR
STARTCHAR numbersign
ENCODING 35
SWIDTH 600 0
DWIDTH 15 0
BBX 10 17 4 -1
BITMAP
0480
0480
0480
0900
0900
0900
7FC0
1200
1200
1200
FF80
2400
2400
2400
4800
4800
4800
ENDCHAR
STARTCHAR dollar
ENCODING 36
SWIDTH 600 0
DWIDTH 15 0
BBX 11 19 3 -2
BITMAP
0080
0080
0100
0FA0
18E0
3040
2000
2000
3000
1F80
00C0
0040
4040
40C0
E180
BF00
0800
1000
1000
ENDCHAR
STARTCHAR percent
ENCODING 37
SWIDTH 600 0
DWIDTH 15 0
BBX 11 16 3 0
BITMAP
0E00
1100
2100
2100
2100
2200
1C60
0380
1C00
E380
0440
0840
0840
0840
0880
0700
ENDCHAR
STARTCHAR ampersand
ENCODING 38
SWIDTH 600 0
DWIDTH 15 0
BBX 11 13 3 0
BITMAP
0F40
1180
2000
2000
2000
1000
30E0
4880
8500
8200
8200
4500
38C0
ENDCHAR
STARTCHAR quotesingle
ENCODING 39
SWIDTH 600 0
DWIDTH 15 0
BBX 3 7 9 8
BITMAP
E0
E0
C0
C0
C0
80
80
ENDCHAR
STARTCHAR parenleft
ENCODING 40
SWIDTH 600 0
DWIDTH 15 0
BBX 6 19 7 -3
BITMAP
04
08
10
20
20
40
40
40
80
80
80
80
80
80
80
80
40
40
20
ENDCHAR
STARTCHAR parenright
ENCODING 41
SWIDTH 600 0
DWIDTH 15 0
BBX 6 19 5 -3
BITMAP
10
08
08
04
04
04
04
04
04
04
04
08
08
08
10
10
20
40
80
ENDCHAR
STARTCHAR asterisk
ENCODING 42
SWIDTH 600 0
DWIDTH 15 0
BBX 8 9 6 7
BITMAP
08
08
08
CB
2C
18
24
44
84
ENDCHAR
STARTCHAR plus
ENCODING 43
SWIDTH 600 0
DWIDTH 15 0
BBX 12 13 3 1
BITMAP
0100
0100
0100
0200
0200
0200
FFF0
0400
0400
0400
0800
0800
0800
ENDCHAR
STARTCHAR comma
ENCODING 44
SWIDTH 600 0
DWIDTH 15 0
BBX 5 6 3 -3
BITMAP
38
38
70
60
C0
80
ENDCHAR
STARTCHAR hyphen
ENCODING 45
SWIDTH 600 0
DWIDTH 15 0
BBX 10 1 3 7
BITMAP
FFC0
ENDCHAR
STARTCHAR period
ENCODING 46
SWIDTH 600 0
DWIDTH 15 0
BBX 4 3 6 0
BITMAP
70
F0
E0
ENDCHAR
STARTCHAR slash
ENCODING 47
SWIDTH 600 0
DWIDTH 15 0
BBX 12 18 3 -2
BITMAP
0010
0020
0020
0040
0080
0080
0100
0200
0200
0400
0800
0800
1000
2000
2000
4000
8000
8000
ENDCHAR
STARTCHAR zero
ENCODING 48
SWIDTH 600 0
DWIDTH 15 0
BBX 9 15 4 0
BITMAP
0E00
1100
2080
2080
4080
4080
4080
8080
8080
8100
8100
8200
8200
4400
3800
ENDCHAR
STARTCHAR one
ENCODING 49
SWIDTH 600 0
DWIDTH 15 0
BBX 9 15 3 0
BITMAP
0300
1F00
0100
0200
0200
0200
0200
0400
0400
0400
0400
0800
0800
0800
FF80
ENDCHAR
STARTCHAR two
ENCODING 50
SWIDTH 600 0
DWIDTH 15 0
BBX 11 15 2 0
BITMAP
0780
0840
1020
1020
0020
0040
0080
0100
0200
0400
0800
1000
2000
4080
FF80
ENDCHAR
STARTCHAR three
ENCODING 51
SWIDTH 600 0
DWIDTH 15 0
BBX 10 15 4 0
BITMAP
0F00
1080
2040
0040
0040
0080
0100
0E00
0100
0080
0080
0080
8080
4100
3E00
ENDCHAR
STARTCHAR four
ENCODING 52
SWIDTH 600 0
DWIDTH 15 0
BBX 10 15 3 0
BITMAP
00C0
0140
0240
0240
0480
0880
0880
1080
2100
4100
FF80
0200
0200
0200
0F80
ENDCHAR
STARTCHAR five
ENCODING 53
SWIDTH 600 0
DWIDTH 15 0
BBX 12 15 2 0
BITMAP
0FF0
0800
0800
0800
1000
1380
1C40
1820
0020
0020
0020
0040
8040
6180
1E00
ENDCHAR
STARTCHAR six
ENCODING 54
SWIDTH 600 0
DWIDTH 15 0
BBX 11 15 4 0
BITMAP
01E0
0600
0800
1000
2000
2000
5E00
6100
4080
8080
8080
8080
8100
4300
3C00
ENDCHAR
STARTCHAR seven
ENCODING 55
SWIDTH 600 0
DWIDTH 15 0
BBX 9 15 5 0
BITMAP
FF80
8080
8080
0100
0100
0200
0200
0400
0400
0800
0800
1000
2000
2000
4000
ENDCHAR
STARTCHAR eight
ENCODING 56
SWIDTH 600 0
DWIDTH 15 0
BBX 10 15 4 0
BITMAP
0700
0880
1040
2040
2040
2080
1100
1E00
2100
4080
8080
8080
8100
4200
3C00
ENDCHAR
STARTCHAR nine
ENCODING 57
SWIDTH 600 0
DWIDTH 15 0
BBX 11 15 3 0
BITMAP
0380
0C40
1820
1020
2020
2020
2020
2060
10A0
0F40
0040
0080
0300
0C00
F000
ENDCHAR
STARTCHAR colon
ENCODING 58
SWIDTH 600 0
DWIDTH 15 0
BBX 6 10 5 0
BITMAP
1C
3C
38
00
00
00
00
70
F0
E0
ENDCHAR
STARTCHAR semicolon
ENCODING 59
SWIDTH 600 0
DWIDTH 15 0
BBX 8 13 3 -3
BITMAP
07
0F
0E
00
00
00
00
38
38
70
60
C0
80
ENDCHAR
STARTCHAR less
ENCODING 60
SWIDTH 600 0
DWIDTH 15 0
BBX 13 10 2 2
BITMAP
0038
00E0
0380
0E00
3800
E000
3800
0E00
0380
00E0
ENDCHAR
STARTCHAR equal
ENCODING 61
SWIDTH 600 0
DWIDTH 15 0
BBX 13 4 2 5
BITMAP
7FF8
0000
0000
FFF0
ENDCHAR
STARTCHAR greater
ENCODING 62
SWIDTH 600 0
DWIDTH 15 0
BBX 13 10 2 2
BITMAP
3800
0E00
0380
00E0
0038
00E0
0380
0E00
3800
E000
ENDCHAR
STARTCHAR question
ENCODING 63
SWIDTH 600 0
DWIDTH 15 0
BBX 8 14 5 0
BITMAP
3E
C1
81
01
01
02
06
18
20
20
00
00
70
70
ENDCHAR
STARTCHAR at
ENCODING 64
SWIDTH 600 0
DWIDTH 15 0
BBX 10 18 3 -2
BITMAP
0700
1880
1040
2040
2040
41C0
4640
4440
8880
8880
8880
8880
87C0
8000
8000
4000
6180
1E00
ENDCHAR
STARTCHAR A
ENCODING 65
SWIDTH 600 0
DWIDTH 15 0
BBX 13 14 1 0
BITMAP
0780
0180
0280
0240
0440
0440
0820
0820
0FE0
1020
1010
2010
2010
F878
ENDCHAR
STARTCHAR B
ENCODING 66
SWIDTH 600 0
DWIDTH 15 0
BBX 13 14 1 0
BITMAP
1FE0
0410
0408
0808
0808
0830
0FC0
1030
1008
1008
2008
2010
2030
FFC0
ENDCHAR
STARTCHAR C
ENCODING 67
SWIDTH 600 0
DWIDTH 15 0
BBX 13 14 2 0
BITMAP
07C8
1838
3010
2010
4000
4000
8000
8000
8000
8000
8000
4060
60C0
1F00
ENDCHAR
STARTCHAR D
ENCODING 68
SWIDTH 600 0
DWIDTH 15 0
BBX 13 14 1 0
BITMAP
1FE0
0410
0408
0808
0808
0808
0808
1008
1010
1010
2020
2020
20C0
FF00
ENDCHAR
STARTCHAR E
ENCODING 69
SWIDTH 600 0
DWIDTH 15 0
BBX 14 14 1 0
BITMAP
1FFC
0404
0408
0808
0880
0880
0F00
1100
1100
1000
2010
2010
2020
FFE0
ENDCHAR
STARTCHAR F
ENCODING 70
SWIDTH 600 0
DWIDTH 15 0
BBX 14 14 1 0
BITMAP
1FFC
0404
0408
0808
0880
0880
0F00
1100
1100
1000
2000
2000
2000
FE00
ENDCHAR
STARTCHAR G
ENCODING 71
SWIDTH 600 0
DWIDTH 15 0
BBX 13 14 2 0
BITMAP
07C8
1838
3010
2010
4000
4000
8000
8000
83F0
8020
8020
4060
60C0
1F00
ENDCHAR
STARTCHAR H
ENCODING 72
SWIDTH 600 0
DWIDTH 15 0
BBX 15 14 1 0
BITMAP
1F3E
0408
0408
0810
0810
0810
0FF0
1020
1020
1020
2040
2040
2040
F9F0
ENDCHAR
STARTCHAR I
ENCODING 73
SWIDTH 600 0
DWIDTH 15 0
BBX 12 14 3 0
BITMAP
1FF0
0100
0100
0200
0200
0200
0200
0400
0400
0400
0800
0800
0800
FF80
ENDCHAR
STARTCHAR J
ENCODING 74
SWIDTH 600 0
DWIDTH 15 0
BBX 15 14 2 0
BITMAP
03FE
0010
0010
0010
0020
0020
0020
4020
4040
8040
8040
8080
4180
3E00
ENDCHAR
STARTCHAR K
ENCODING 75
SWIDTH 600 0
DWIDTH 15 0
BBX 14 14 1 0
BITMAP
1F3C
0410
0420
0840
0880
0900
0E00
1900
1080
1040
2040
2020
2020
FC38
ENDCHAR
STARTCHAR L
ENCODING 76
SWIDTH 600 0
DWIDTH 15 0
BBX 13 14 1 0
BITMAP
1FC0
0400
0400
0800
0800
0800
0800
1000
1008
1008
2008
2010
2010
FFF0
ENDCHAR
STARTCHAR M
ENCODING 77
SWIDTH 600 0
DWIDTH 15 0
BBX 16 14 1 0
BITMAP
1E07
0606
060A
0A14
0A14
0924
0924
1148
1088
1088
2010
2010
2010
F87C
ENDCHAR
STARTCHAR N
ENCODING 78
SWIDTH 600 0
DWIDTH 15 0
BBX 16 14 1 0
BITMAP
1F1F
0404
0404
0A08
0A08
0A08
0908
1110
1110
1090
20A0
20A0
2060
F860
ENDCHAR
STARTCHAR O
ENCODING 79
SWIDTH 600 0
DWIDTH 15 0
BBX 13 14 2 0
BITMAP
07C0
1830
3010
2008
4008
4008
8008
8008
8010
8010
8020
4060
60C0
1F00
ENDCHAR
STARTCHAR P
ENCODING 80
SWIDTH 600 0
DWIDTH 15 0
BBX 13 14 1 0
BITMAP
1FE0
0410
0408
0808
0808
0810
0830
1FC0
1000
1000
2000
2000
2000
FE00
ENDCHAR
STARTCHAR Q
ENCODING 81
SWIDTH 600 0
DWIDTH 15 0
BBX 13 16 2 -2
BITMAP
07C0
1830
3010
2008
4008
4008
8008
8008
8010
8010
8020
4060
60C0
1F00
3860
6780
ENDCHAR
STARTCHAR R
ENCODING 82
SWIDTH 600 0
DWIDTH 15 0
BBX 13 14 1 0
BITMAP
1FE0
0410
0408
0808
0808
0810
0830
1FC0
1080
1040
2020
2020
2010
FC18
ENDCHAR
STARTCHAR S
ENCODING 83
SWIDTH 600 0
DWIDTH 15 0
BBX 12 14 2 0
BITMAP
0390
0C70
0820
1020
1000
1000
0E00
0180
0040
0040
4040
4080
E180
9E00
ENDCHAR
STARTCHAR T
ENCODING 84
SWIDTH 600 0
DWIDTH 15 0
BBX 12 14 4 0
BITMAP
7FF0
4210
4210
8420
8420
0400
0400
0800
0800
0800
1000
1000
1000
FE00
ENDCHAR
STARTCHAR U
ENCODING 85
SWIDTH 600 0
DWIDTH 15 0
BBX 14 14 3 0
BITMAP
F87C
2010
2010
2010
4020
4020
4020
4020
8040
8040
8040
8080
4180
3E00
ENDCHAR
STARTCHAR V
ENCODING 86
SWIDTH 600 0
DWIDTH 15 0
BBX 14 14 3 0
BITMAP
F87C
2010
2020
2020
1040
1040
1080
1080
1100
0900
0A00
0A00
0C00
0C00
ENDCHAR
STARTCHAR W
ENCODING 87
SWIDTH 600 0
DWIDTH 15 0
BBX 14 14 2 0
BITMAP
783C
2008
2008
2310
4510
4510
4920
4920
5120
5140
A140
A140
C180
C180
ENDCHAR
STARTCHAR X
ENCODING 88
SWIDTH 600 0
DWIDTH 15 0
BBX 16 14 1 0
BITMAP
1E0F
0404
0408
0210
0220
0140
0180
0180
0280
0440
0840
1020
2020
F8F8
ENDCHAR
STARTCHAR Y
ENCODING 89
SWIDTH 600 0
DWIDTH 15 0
BBX 13 14 4 0
BITMAP
F078
2020
2040
1080
1100
0A00
0C00
0800
0800
0800
1000
1000
1000
FE00
ENDCHAR
STARTCHAR Z
ENCODING 90
SWIDTH 600 0
DWIDTH 15 0
BBX 12 14 2 0
BITMAP
1FF0
1010
2020
2040
0080
0100
0200
0400
0800
1000
2020
4020
8040
FFC0
ENDCHAR
STARTCHAR bracketleft
ENCODING 91
SWIDTH 600 0
DWIDTH 15 0
BBX 7 19 6 -3
BITMAP
0E
08
08
08
10
10
10
10
20
20
20
20
40
40
40
80
80
80
E0
ENDCHAR
STARTCHAR backslash
ENCODING 92
SWIDTH 600 0
DWIDTH 15 0
BBX 5 19 6 -2
BITMAP
80
80
80
40
40
40
40
20
20
20
20
10
10
10
10
08
08
08
08
ENDCHAR
STARTCHAR bracketright
ENCODING 93
SWIDTH 600 0
DWIDTH 15 0
BBX 7 19 5 -3
BITMAP
0E
02
02
02
04
04
04
08
08
08
08
10
10
10
10
20
20
20
E0
ENDCHAR
STARTCHAR asciicircum
ENCODING 94
SWIDTH 600 0
DWIDTH 15 0
BBX 10 7 4 9
BITMAP
0200
0500
0900
1080
2080
4040
8040
ENDCHAR
STARTCHAR underscore
ENCODING 95
SWIDTH 600 0
DWIDTH 15 0
BBX 15 1 0 -4
BITMAP
FFFE
ENDCHAR
STARTCHAR grave
ENCODING 96
SWIDTH 600 0
DWIDTH 15 0
BBX 5 4 6 12
BITMAP
C0
60
30
18
ENDCHAR
STARTCHAR a
ENCODING 97
SWIDTH 600 0
DWIDTH 15 0
BBX 10 11 2 0
BITMAP
0F80
3040
0040
0040
1FC0
6080
4080
8100
8300
8500
79C0
ENDCHAR
STARTCHAR b
ENCODING 98
SWIDTH 600 0
DWIDTH 15 0
BBX 13 16 1 0
BITMAP
1C00
0400
0400
0400
0800
09E0
0A10
0C08
1008
1008
1008
1008
2010
3030
2860
E780
ENDCHAR
STARTCHAR c
ENCODING 99
SWIDTH 600 0
DWIDTH 15 0
BBX 11 11 2 0
BITMAP
0FA0
3060
6040
4040
8000
8000
8000
8000
80C0
4180
3E00
ENDCHAR
STARTCHAR d
ENCODING 100
SWIDTH 600 0
DWIDTH 15 0
BBX 13 16 1 0
BITMAP
0038
0008
0008
0010
0010
0F90
3050
6020
4020
8020
8020
8040
8040
80C0
4340
3C70
ENDCHAR
STARTCHAR e
ENCODING 101
SWIDTH 600 0
DWIDTH 15 0
BBX 11 11 2 0
BITMAP
0F80
3040
6020
4020
8020
FFE0
8000
8000
8000
4180
3E00
ENDCHAR
STARTCHAR f
ENCODING 102
SWIDTH 600 0
DWIDTH 15 0
BBX 13 16 2 0
BITMAP
00F8
0100
0200
0200
0200
3FE0
0400
0400
0400
0800
0800
0800
1000
1000
1000
FF80
ENDCHAR
STARTCHAR g
ENCODING 103
SWIDTH 600 0
DWIDTH 15 0
BBX 12 16 2 -5
BITMAP
0F30
30A0
6040
4040
8040
8040
8080
8080
8180
4280
3C80
0100
0100
0200
0600
F800
ENDCHAR
STARTCHAR h
ENCODING 104
SWIDTH 600 0
DWIDTH 15 0
BBX 12 16 1 0
BITMAP
1C00
0400
0400
0400
0800
09E0
0A10
0C10
1010
1020
1020
1020
2040
2040
2040
F9F0
ENDCHAR
STARTCHAR i
ENCODING 105
SWIDTH 600 0
DWIDTH 15 0
BBX 10 16 3 0
BITMAP
0300
0300
0300
0000
0000
1E00
0200
0200
0400
0400
0400
0400
0800
0800
0800
FFC0
ENDCHAR
STARTCHAR j
ENCODING 106
SWIDTH 600 0
DWIDTH 15 0
BBX 10 21 3 -5
BITMAP
00C0
00C0
00C0
0000
0000
1FC0
0040
0040
0080
0080
0080
0080
0100
0100
0100
0100
0100
0200
0200
0C00
F000
ENDCHAR
STARTCHAR k
ENCODING 107
SWIDTH 600 0
DWIDTH 15 0
BBX 13 16 1 0
BITMAP
1C00
0400
0400
0400
0800
08F8
0860
0980
1600
1C00
1400
1200
2100
2080
2040
E0F0
ENDCHAR
STARTCHAR l
ENCODING 108
SWIDTH 600 0
DWIDTH 15 0
BBX 10 16 3 0
BITMAP
0F00
0100
0100
0100
0200
0200
0200
0200
0400
0400
0400
0400
0800
0800
0800
FFC0
ENDCHAR
STARTCHAR m
ENCODING 109
SWIDTH 600 0
DWIDTH 15 0
BBX 15 11 0 0
BITMAP
398C
0A52
0C62
0842
1084
1084
1084
2108
2108
2108
F9CE
ENDCHAR
STARTCHAR n
ENCODING 110
SWIDTH 600 0
DWIDTH 15 0
BBX 12 11 1 0
BITMAP
39E0
0A10
0C10
0810
1020
1020
1020
2040
2040
2040
F9F0
ENDCHAR
STARTCHAR o
ENCODING 111
SWIDTH 600 0
DWIDTH 15 0
BBX 11 11 2 0
BITMAP
0F80
3040
6020
4020
8020
8020
8020
8040
80C0
4180
3E00
ENDCHAR
STARTCHAR p
ENCODING 112
SWIDTH 600 0
DWIDTH 15 0
BBX 15 16 -1 -5
BITMAP
1CF8
0504
0602
0402
0802
0802
0802
0804
140C
1218
11E0
1000
2000
2000
2000
FC00
ENDCHAR
STARTCHAR q
ENCODING 113
SWIDTH 600 0
DWIDTH 15 0
BBX 14 16 1 -5
BITMAP
0F9C
3050
6020
4020
8020
8020
8040
8040
80C0
4340
3C40
0040
0080
0080
0080
07E0
ENDCHAR
STARTCHAR r
ENCODING 114
SWIDTH 600 0
DWIDTH 15 0
BBX 13 11 2 0
BITMAP
1C70
0588
0600
0800
0800
0800
0800
1000
1000
1000
FF80
ENDCHAR
STARTCHAR s
ENCODING 115
SWIDTH 600 0
DWIDTH 15 0
BBX 11 11 2 0
BITMAP
0FA0
1060
2020
2000
1000
0F00
0080
0040
8040
C080
BF00
ENDCHAR
STARTCHAR t
ENCODING 116
SWIDTH 600 0
DWIDTH 15 0
BBX 9 15 3 0
BITMAP
1000
1000
1000
1000
FF80
2000
2000
2000
2000
4000
4000
4000
4000
2180
1E00
ENDCHAR
STARTCHAR u
ENCODING 117
SWIDTH 600 0
DWIDTH 15 0
BBX 10 11 3 0
BITMAP
E1C0
2040
2040
4040
4080
4080
8080
8100
8300
4500
39C0
ENDCHAR
STARTCHAR v
ENCODING 118
SWIDTH 600 0
DWIDTH 15 0
BBX 13 11 3 0
BITMAP
F8F8
2020
2040
2040
1080
1080
1100
1100
0A00
0C00
0C00
ENDCHAR
STARTCHAR w
ENCODING 119
SWIDTH 600 0
DWIDTH 15 0
BBX 13 11 2 0
BITMAP
F078
4010
4010
4620
4620
4A40
4A40
5280
5280
6300
6300
ENDCHAR
STARTCHAR x
ENCODING 120
SWIDTH 600 0
DWIDTH 15 0
BBX 13 11 1 0
BITMAP
3C78
1010
0820
0440
0280
0300
0500
0880
1040
2020
F0F0
ENDCHAR
STARTCHAR y
ENCODING 121
SWIDTH 600 0
DWIDTH 15 0
BBX 14 16 1 -5
BITMAP
1E1C
0808
0808
0810
0420
0420
0440
0440
0280
0300
0300
0200
0400
0800
1000
FE00
ENDCHAR
STARTCHAR z
ENCODING 122
SWIDTH 600 0
DWIDTH 15 0
BBX 11 11 3 0
BITMAP
3FE0
4040
4080
0100
0200
0400
0800
1000
2040
4040
FF80
ENDCHAR
STARTCHAR braceleft
ENCODING 123
SWIDTH 600 0
DWIDTH 15 0
BBX 7 19 6 -3
BITMAP
06
08
08
10
10
10
20
20
C0
20
20
20
20
40
40
40
40
40
30
ENDCHAR
STARTCHAR bar
ENCODING 124
SWIDTH 600 0
DWIDTH 15 0
BBX 4 19 7 -3
BITMAP
10
10
10
10
20
20
20
20
20
40
40
40
40
40
80
80
80
80
80
ENDCHAR
STARTCHAR braceright
ENCODING 125
SWIDTH 600 0
DWIDTH 15 0
BBX 7 19 5 -3
BITMAP
18
04
04
04
04
04
08
08
08
06
08
08
08
10
10
10
20
20
C0
ENDCHAR
STARTCHAR asciitilde
ENCODING 126
SWIDTH 600 0
DWIDTH 15 0
BBX 11 3 3 6
BITMAP
3860
64C0
C380
ENDCHAR
STARTCHAR space
ENCODING 160
SWIDTH 600 0
DWIDTH 15 0
BBX 1 1 0 0
BITMAP
00
ENDCHAR
STARTCHAR exclamdown
ENCODING 161
SWIDTH 600 0
DWIDTH 15 0
BBX 5 16 6 -5
BITMAP
38
38
00
00
00
20
20
20
60
60
60
E0
E0
C0
C0
C0
ENDCHAR
STARTCHAR cent
ENCODING 162
SWIDTH 600 0
DWIDTH 15 0
BBX 9 16 5 0
BITMAP
0400
0400
0400
1E80
6100
4100
8000
8000
8000
8000
8000
4300
3C00
2000
2000
2000
ENDCHAR
STARTCHAR sterling
ENCODING 163
SWIDTH 600 0
DWIDTH 15 0
BBX 12 14 2 0
BITMAP
03C0
0430
0800
0800
0800
0800
7F00
0800
0800
1000
1000
1020
2020
FFC0
ENDCHAR
STARTCHAR currency
ENCODING 164
SWIDTH 600 0
DWIDTH 15 0
BBX 11 9 3 2
BITMAP
4F20
30C0
2040
4040
4040
4080
2180
7E80
8040
ENDCHAR
STARTCHAR yen
ENCODING 165
SWIDTH 600 0
DWIDTH 15 0
BBX 12 14 4 0
BITMAP
78F0
2020
2040
1080
1100
0A00
0C00
7F80
0800
0800
FF00
1000
1000
FE00
ENDCHAR
STARTCHAR brokenbar
ENCODING 166
SWIDTH 600 0
DWIDTH 15 0
BBX 4 19 7 -3
BITMAP
10
10
10
10
20
20
20
20
00
00
00
40
40
40
40
80
80
80
80
ENDCHAR
STARTCHAR section
ENCODING 167
SWIDTH 600 0
DWIDTH 15 0
BBX 12 18 3 -2
BITMAP
03F0
0410
0810
0810
0800
3C00
4200
4100
4080
2040
1020
0820
0420
03C0
8100
8100
8200
FC00
ENDCHAR
STARTCHAR dieresis
ENCODING 168
SWIDTH 600 0
DWIDTH 15 0
BBX 7 2 7 12
BITMAP
C6
C6
ENDCHAR
STARTCHAR copyright
ENCODING 169
SWIDTH 600 0
DWIDTH 15 0
BBX 15 14 1 0
BITMAP
03F0
0C0C
1004
21D2
4222
4422
8802
8802
8824
8844
8788
4010
6060
1F80
ENDCHAR
STARTCHAR ordfeminine
ENCODING 170
SWIDTH 600 0
DWIDTH 15 0
BBX 8 9 4 5
BITMAP
1E
01
1F
22
42
44
3A
00
FE
ENDCHAR
STARTCHAR guillemotleft
ENCODING 171
SWIDTH 600 0
DWIDTH 15 0
BBX 11 10 3 1
BITMAP
0220
0CC0
1980
3300
6600
CC00
6600
3300
1980
0440
ENDCHAR
STARTCHAR logicalnot
ENCODING 172
SWIDTH 600 0
DWIDTH 15 0
BBX 11 5 3 4
BITMAP
FFE0
0020
0040
0040
0040
ENDCHAR
STARTCHAR hyphen
ENCODING 173
SWIDTH 600 0
DWIDTH 15 0
BBX 10 1 3 7
BITMAP
FFC0
ENDCHAR
STARTCHAR registered
ENCODING 174
SWIDTH 600 0
DWIDTH 15 0
BBX 15 14 1 0
BITMAP
03F0
0C0C
1004
27C2
4222
4222
84C2
8702
8884
8884
9CC8
4010
6060
1F80
ENDCHAR
STARTCHAR macron
ENCODING 175
SWIDTH 600 0
DWIDTH 15 0
BBX 6 1 6 12
BITMAP
FC
ENDCHAR
STARTCHAR degree
ENCODING 176
SWIDTH 600 0
DWIDTH 15 0
BBX 7 7 5 9
BITMAP
3C
46
82
82
82
C4
78
ENDCHAR
STARTCHAR plusminus
ENCODING 177
SWIDTH 600 0
DWIDTH 15 0
BBX 12 13 2 1
BITMAP
0080
0080
0080
0100
0100
3FF0
0200
0200
0400
0400
0400
0000
FFC0
ENDCHAR
STARTCHAR twosuperior
ENCODING 178
SWIDTH 600 0
DWIDTH 15 0
BBX 8 9 5 7
BITMAP
1E
21
41
02
04
18
20
42
FE
ENDCHAR
STARTCHAR threesuperior
ENCODING 179
SWIDTH 600 0
DWIDTH 15 0
BBX 8 9 5 7
BITMAP
1E
21
41
02
1C
02
82
84
78
ENDCHAR
STARTCHAR acute
ENCODING 180
SWIDTH 600 0
DWIDTH 15 0
BBX 5 4 9 12
BITMAP
18
30
60
C0
ENDCHAR
STARTCHAR mu
ENCODING 181
SWIDTH 600 0
DWIDTH 15 0
BBX 12 16 1 -5
BITMAP
3870
0810
0810
1010
1020
1020
2020
2040
20C0
3140
4E70
4000
4000
8000
8000
8000
ENDCHAR
STARTCHAR paragraph
ENCODING 182
SWIDTH 600 0
DWIDTH 15 0
BBX 12 18 4 -2
BITMAP
1FF0
3240
6240
C240
C480
C480
C480
6480
3900
0900
0900
0900
0900
1200
1200
1200
1200
F380
ENDCHAR
STARTCHAR periodcentered
ENCODING 183
SWIDTH 600 0
DWIDTH 15 0
BBX 4 3 7 6
BITMAP
70
F0
E0
ENDCHAR
STARTCHAR cedilla
ENCODING 184
SWIDTH 600 0
DWIDTH 15 0
BBX 4 5 5 -4
BITMAP
20
20
10
90
E0
ENDCHAR
STARTCHAR onesuperior
ENCODING 185
SWIDTH 600 0
DWIDTH 15 0
BBX 5 9 5 7
BITMAP
08
78
08
10
10
10
20
20
F8
ENDCHAR
STARTCHAR ordmasculine
ENCODING 186
SWIDTH 600 0
DWIDTH 15 0
BBX 9 9 4 5
BITMAP
0F00
3080
2080
4080
4100
4300
3C00
0000
FE00
ENDCHAR
STARTCHAR guillemotright
ENCODING 187
SWIDTH 600 0
DWIDTH 15 0
BBX 11 10 2 1
BITMAP
4400
3300
1980
0CC0
0660
0CC0
1980
3300
6600
8800
ENDCHAR
STARTCHAR onequarter
ENCODING 188
SWIDTH 600 0
DWIDTH 15 0
BBX 13 16 1 -1
BITMAP
0800
7800
0808
1010
1020
1040
2080
2118
FA28
0448
0890
1110
2210
43F8
0020
0070
ENDCHAR
STARTCHAR onehalf
ENCODING 189
SWIDTH 600 0
DWIDTH 15 0
BBX 14 16 1 -1
BITMAP
0800
7800
0808
1010
1020
1040
2080
2138
FA44
0484
0808
1010
2060
4080
0108
03F8
ENDCHAR
STARTCHAR threequarters
ENCODING 190
SWIDTH 600 0
DWIDTH 15 0
BBX 14 16 0 -1
BITMAP
1E00
2100
4104
0208
1C10
0220
8240
848C
7914
0224
0448
0888
1108
21FC
0010
0038
ENDCHAR
STARTCHAR questiondown
ENCODING 191
SWIDTH 600 0
DWIDTH 15 0
BBX 8 14 4 -3
BITMAP
0E
0E
00
00
04
04
18
60
40
80
80
81
83
7C
ENDCHAR
STARTCHAR Agrave
ENCODING 192
SWIDTH 600 0
DWIDTH 15 0
BBX 13 19 1 0
BITMAP
0400
0200
0100
0080
0000
0780
0180
0280
0240
0440
0440
0820
0820
0FE0
1020
1010
2010
2010
F878
ENDCHAR
STARTCHAR Aacute
ENCODING 193
SWIDTH 600 0
DWIDTH 15 0
BBX 13 19 1 0
BITMAP
0040
0080
0100
0200
0000
0780
0180
0280
0240
0440
0440
0820
0820
0FE0
1020
1010
2010
2010
F878
ENDCHAR
STARTCHAR Acircumflex
ENCODING 194
SWIDTH 600 0
DWIDTH 15 0
BBX 13 18 1 0
BITMAP
0180
0240
0420
0000
0780
0180
0280
0240
0440
0440
0820
0820
0FE0
1020
1010
2010
2010
F878
ENDCHAR
STARTCHAR Atilde
ENCODING 195
SWIDTH 600 0
DWIDTH 15 0
BBX 13 18 1 0
BITMAP
0610
0920
10C0
0000
0780
0180
0280
0240
0440
0440
0820
0820
0FE0
1020
1010
2010
2010
F878
ENDCHAR
STARTCHAR Adieresis
ENCODING 196
SWIDTH 600 0
DWIDTH 15 0
BBX 13 17 1 0
BITMAP
0C60
0C60
0000
0780
0180
0280
0240
0440
0440
0820
0820
0FE0
1020
1010
2010
2010
F878
ENDCHAR
STARTCHAR Aring
ENCODING 197
SWIDTH 600 0
DWIDTH 15 0
BBX 13 19 1 0
BITMAP
0180
0240
0240
0180
0000
0780
0180
0280
0240
0440
0440
0820
0820
0FE0
1020
1010
2010
2010
F878
ENDCHAR
STARTCHAR AE
ENCODING 198
SWIDTH 600 0
DWIDTH 15 0
BBX 18 14 -1 0
BITMAP
01FFC0
009040
011080
012080
022200
022200
043C00
044400
0FC400
084000
108100
108100
208200
FBFE00
ENDCHAR
STARTCHAR Ccedilla
ENCODING 199
SWIDTH 600 0
DWIDTH 15 0
BBX 13 18 2 -4
BITMAP
07C8
1838
3010
2010
4000
4000
8000
8000
8000
8000
8000
4060
60C0
1F00
1000
0800
4800
7000
ENDCHAR
STARTCHAR Egrave
ENCODING 200
SWIDTH 600 0
DWIDTH 15 0
BBX 14 19 1 0
BITMAP
0200
0100
0080
0040
0000
1FFC
0404
0408
0808
0880
0880
0F00
1100
1100
1000
2010
2010
2020
FFE0
ENDCHAR
STARTCHAR Eacute
ENCODING 201
SWIDTH 600 0
DWIDTH 15 0
BBX 14 19 1 0
BITMAP
0010
0020
0040
0080
0000
1FFC
0404
0408
0808
0880
0880
0F00
1100
1100
1000
2010
2010
2020
FFE0
ENDCHAR
STARTCHAR Ecircumflex
ENCODING 202
SWIDTH 600 0
DWIDTH 15 0
BBX 14 18 1 0
BITMAP
00C0
0120
0210
0000
1FFC
0404
0408
0808
0880
0880
0F00
1100
1100
1000
2010
2010
2020
FFE0
ENDCHAR
STARTCHAR Edieresis
ENCODING 203
SWIDTH 600 0
DWIDTH 15 0
BBX 14 17 1 0
BITMAP
0630
0630
0000
1FFC
0404
0408
0808
0880
0880
0F00
1100
1100
1000
2010
2010
2020
FFE0
ENDCHAR
STARTCHAR Igrave
ENCODING 204
SWIDTH 600 0
DWIDTH 15 0
BBX 12 19 3 0
BITMAP
0400
0200
0100
0080
0000
1FF0
0100
0100
0200
0200
0200
0200
0400
0400
0400
0800
0800
0800
FF80
ENDCHAR
STARTCHAR Iacute
ENCODING 205
SWIDTH 600 0
DWIDTH 15 0
BBX 12 19 3 0
BITMAP
0020
0040
0080
0100
0000
1FF0
0100
0100
0200
0200
0200
0200
0400
0400
0400
0800
0800
0800
FF80
ENDCHAR
STARTCHAR Icircumflex
ENCODING 206
SWIDTH 600 0
DWIDTH 15 0
BBX 12 18 3 0
BITMAP
0180
0240
0420
0000
1FF0
0100
0100
0200
0200
0200
0200
0400
0400
0400
0800
0800
0800
FF80
ENDCHAR
STARTCHAR Idieresis
ENCODING 207
SWIDTH 600 0
DWIDTH 15 0
BBX 12 17 3 0
BITMAP
0C30
0C30
0000
1FF0
0100
0100
0200
0200
0200
0200
0400
0400
0400
0800
0800
0800
FF80
ENDCHAR
STARTCHAR Eth
ENCODING 208
SWIDTH 600 0
DWIDTH 15 0
BBX 13 14 1 0
BITMAP
1FE0
0410
0408
0808
0808
0808
3E08
1008
1010
1010
2020
2020
20C0
FF00
ENDCHAR
STARTCHAR Ntilde
ENCODING 209
SWIDTH 600 0
DWIDTH 15 0
BBX 16 18 1 0
BITMAP
00C2
0124
0218
0000
1F1F
0404
0404
0A08
0A08
0A08
0908
1110
1110
1090
20A0
20A0
2060
F860
ENDCHAR
STARTCHAR Ograve
ENCODING 210
SWIDTH 600 0
DWIDTH 15 0
BBX 13 19 2 0
BITMAP
0200
0100
0080
0040
0000
07C0
1830
3010
2008
4008
4008
8008
8008
8010
8010
8020
4060
60C0
1F00
ENDCHAR
STARTCHAR Oacute
ENCODING 211
SWIDTH 600 0
DWIDTH 15 0
BBX 13 19 2 0
BITMAP
0040
0080
0100
0200
0000
07C0
1830
3010
2008
4008
4008
8008
8008
8010
8010
8020
4060
60C0
1F00
ENDCHAR
STARTCHAR Ocircumflex
ENCODING 212
SWIDTH 600 0
DWIDTH 15 0
BBX 13 18 2 0
BITMAP
0180
0240
0420
0000
07C0
1830
3010
2008
4008
4008
8008
8008
8010
8010
8020
4060
60C0
1F00
ENDCHAR
STARTCHAR Otilde
ENCODING 213
SWIDTH 600 0
DWIDTH 15 0
BBX 13 18 2 0
BITMAP
0308
0490
0860
0000
07C0
1830
3010
2008
4008
4008
8008
8008
8010
8010
8020
4060
60C0
1F00
ENDCHAR
STARTCHAR Odieresis
ENCODING 214
SWIDTH 600 0
DWIDTH 15 0
BBX 13 17 2 0
BITMAP
0C60
0C60
0000
07C0
1830
3010
2008
4008
4008
8008
8008
8010
8010
8020
4060
60C0
1F00
ENDCHAR
STARTCHAR multiply
ENCODING 215
SWIDTH 600 0
DWIDTH 15 0
BBX 12 11 2 2
BITMAP
4010
2020
1040
0880
0500
0600
0A00
1100
2080
4040
8020
ENDCHAR
STARTCHAR Oslash
ENCODING 216
SWIDTH 600 0
DWIDTH 15 0
BBX 15 15 1 -1
BITMAP
03E2
0C1C
1808
1014
2024
2044
4084
4104
4208
4408
4810
3030
3060
4F80
8000
ENDCHAR
STARTCHAR Ugrave
ENCODING 217
SWIDTH 600 0
DWIDTH 15 0
BBX 14 19 3 0
BITMAP
0800
0400
0200
0100
0000
F87C
2010
2010
2010
4020
4020
4020
4020
8040
8040
8040
8080
4180
3E00
ENDCHAR
STARTCHAR Uacute
ENCODING 218
SWIDTH 600 0
DWIDTH 15 0
BBX 14 19 3 0
BITMAP
0020
0040
0080
0100
0000
F87C
2010
2010
2010
4020
4020
4020
4020
8040
8040
8040
8080
4180
3E00
ENDCHAR
STARTCHAR Ucircumflex
ENCODING 219
SWIDTH 600 0
DWIDTH 15 0
BBX 14 18 3 0
BITMAP
0300
0480
0840
0000
F87C
2010
2010
2010
4020
4020
4020
4020
8040
8040
8040
8080
4180
3E00
ENDCHAR
STARTCHAR Udieresis
ENCODING 220
SWIDTH 600 0
DWIDTH 15 0
BBX 14 17 3 0
BITMAP
0C60
0C60
0000
F87C
2010
2010
2010
4020
4020
4020
4020
8040
8040
8040
8080
4180
3E00
ENDCHAR
STARTCHAR Yacute
ENCODING 221
SWIDTH 600 0
DWIDTH 15 0
BBX 13 19 4 0
BITMAP
0040
0080
0100
0200
0000
F078
2020
2040
1080
1100
0A00
0C00
0800
0800
0800
1000
1000
1000
FE00
ENDCHAR
STARTCHAR Thorn
ENCODING 222
SWIDTH 600 0
DWIDTH 15 0
BBX 13 14 1 0
BITMAP
1F00
0400
0400
0FE0
0810
0808
0808
1008
1030
1FC0
2000
2000
2000
F800
ENDCHAR
STARTCHAR germandbls
ENCODING 223
SWIDTH 600 0
DWIDTH 15 0
BBX 12 16 1 0
BITMAP
01C0
0220
0410
0410
0410
0820
0840
09C0
0820
1010
1010
1010
2020
2420
2440
F380
ENDCHAR
STARTCHAR agrave
ENCODING 224
SWIDTH 600 0
DWIDTH 15 0
BBX 10 16 2 0
BITMAP
0800
0400
0200
0100
0000
0F80
3040
0040
0040
1FC0
6080
4080
8100
8300
8500
79C0
ENDCHAR
STARTCHAR aacute
ENCODING 225
SWIDTH 600 0
DWIDTH 15 0
BBX 10 16 2 0
BITMAP
0040
0080
0100
0200
0000
0F80
3040
0040
0040
1FC0
6080
4080
8100
8300
8500
79C0
ENDCHAR
STARTCHAR acircumflex
ENCODING 226
SWIDTH 600 0
DWIDTH 15 0
BBX 10 15 2 0
BITMAP
0600
0900
1080
0000
0F80
3040
0040
0040
1FC0
6080
4080
8100
8300
8500
79C0
ENDCHAR
STARTCHAR atilde
ENCODING 227
SWIDTH 600 0
DWIDTH 15 0
BBX 11 14 2 0
BITMAP
0E20
11C0
0000
0F80
3040
0040
0040
1FC0
6080
4080
8100
8300
8500
79C0
ENDCHAR
STARTCHAR adieresis
ENCODING 228
SWIDTH 600 0
DWIDTH 15 0
BBX 10 14 2 0
BITMAP
18C0
18C0
0000
0F80
3040
0040
0040
1FC0
6080
4080
8100
8300
8500
79C0
ENDCHAR
STARTCHAR aring
ENCODING 229
SWIDTH 600 0
DWIDTH 15 0
BBX 10 16 2 0
BITMAP
0300
0480
0480
0300
0000
0F80
3040
0040
0040
1FC0
6080
4080
8100
8300
8500
79C0
ENDCHAR
STARTCHAR ae
ENCODING 230
SWIDTH 600 0
DWIDTH 15 0
BBX 15 11 0 0
BITMAP
0E38
3144
2082
0082
0102
3FFE
4100
8100
8100
828C
7C70
ENDCHAR
STARTCHAR ccedilla
ENCODING 231
SWIDTH 600 0
DWIDTH 15 0
BBX 11 15 2 -4
BITMAP
0FA0
3060
6040
4040
8000
8000
8000
8000
80C0
4180
3E00
2000
1000
9000
E000
ENDCHAR
STARTCHAR egrave
ENCODING 232
SWIDTH 600 0
DWIDTH 15 0
BBX 11 16 2 0
BITMAP
0800
0400
0200
0100
0000
0F80
3040
6020
4020
8020
FFE0
8000
8000
8000
4180
3E00
ENDCHAR
STARTCHAR eacute
ENCODING 233
SWIDTH 600 0
DWIDTH 15 0
BBX 11 16 2 0
BITMAP
0040
0080
0100
0200
0000
0F80
3040
6020
4020
8020
FFE0
8000
8000
8000
4180
3E00
ENDCHAR
STARTCHAR ecircumflex
ENCODING 234
SWIDTH 600 0
DWIDTH 15 0
BBX 11 15 2 0
BITMAP
0600
0900
1080
0000
0F80
3040
6020
4020
8020
FFE0
8000
8000
8000
4180
3E00
ENDCHAR
STARTCHAR edieresis
ENCODING 235
SWIDTH 600 0
DWIDTH 15 0
BBX 11 14 2 0
BITMAP
18C0
18C0
0000
0F80
3040
6020
4020
8020
FFE0
8000
8000
8000
4180
3E00
ENDCHAR
STARTCHAR igrave
ENCODING 236
SWIDTH 600 0
DWIDTH 15 0
BBX 10 16 3 0
BITMAP
1000
0800
0400
0200
0000
1E00
0200
0200
0400
0400
0400
0400
0800
0800
0800
FFC0
ENDCHAR
STARTCHAR iacute
ENCODING 237
SWIDTH 600 0
DWIDTH 15 0
BBX 10 16 3 0
BITMAP
0080
0100
0200
0400
0000
1E00
0200
0200
0400
0400
0400
0400
0800
0800
0800
FFC0
ENDCHAR
STARTCHAR icircumflex
ENCODING 238
SWIDTH 600 0
DWIDTH 15 0
BBX 10 15 3 0
BITMAP
0600
0900
1080
0000
1E00
0200
0200
0400
0400
0400
0400
0800
0800
0800
FFC0
ENDCHAR
STARTCHAR idieresis
ENCODING 239
SWIDTH 600 0
DWIDTH 15 0
BBX 10 14 3 0
BITMAP
18C0
18C0
0000
1E00
0200
0200
0400
0400
0400
0400
0800
0800
0800
FFC0
ENDCHAR
STARTCHAR eth
ENCODING 240
SWIDTH 600 0
DWIDTH 15 0
BBX 11 16 2 0
BITMAP
3E60
4380
0C80
30C0
0040
0FC0
3060
6020
4020
8020
8020
8020
8040
80C0
4180
3E00
ENDCHAR
STARTCHAR ntilde
ENCODING 241
SWIDTH 600 0
DWIDTH 15 0
BBX 13 14 1 0
BITMAP
0388
0470
0000
39E0
0A10
0C10
0810
1020
1020
1020
2040
2040
2040
F9F0
ENDCHAR
STARTCHAR ograve
ENCODING 242
SWIDTH 600 0
DWIDTH 15 0
BBX 11 16 2 0
BITMAP
0800
0400
0200
0100
0000
0F80
3040
6020
4020
8020
8020
8020
8040
80C0
4180
3E00
ENDCHAR
STARTCHAR oacute
ENCODING 243
SWIDTH 600 0
DWIDTH 15 0
BBX 11 16 2 0
BITMAP
0080
0100
0200
0400
0000
0F80
3040
6020
4020
8020
8020
8020
8040
80C0
4180
3E00
ENDCHAR
STARTCHAR ocircumflex
ENCODING 244
SWIDTH 600 0
DWIDTH 15 0
BBX 11 15 2 0
BITMAP
0600
0900
1080
0000
0F80
3040
6020
4020
8020
8020
8020
8040
80C0
4180
3E00
ENDCHAR
STARTCHAR otilde
ENCODING 245
SWIDTH 600 0
DWIDTH 15 0
BBX 11 14 2 0
BITMAP
0E20
11C0
0000
0F80
3040
6020
4020
8020
8020
8020
8040
80C0
4180
3E00
ENDCHAR
STARTCHAR odieresis
ENCODING 246
SWIDTH 600 0
DWIDTH 15 0
BBX 11 14 2 0
BITMAP
18C0
18C0
0000
0F80
3040
6020
4020
8020
8020
8020
8040
80C0
4180
3E00
ENDCHAR
STARTCHAR divide
ENCODING 247
SWIDTH 600 0
DWIDTH 15 0
BBX 11 13 3 1
BITMAP
0380
0780
0700
0000
0000
0000
FFE0
0000
0000
0000
1C00
3C00
3800
ENDCHAR
STARTCHAR oslash
ENCODING 248
SWIDTH 600 0
DWIDTH 15 0
BBX 13 13 1 -1
BITMAP
0008
07D0
1820
3050
2090
4110
4210
4410
4820
5060
20C0
5F00
8000
ENDCHAR
STARTCHAR ugrave
ENCODING 249
SWIDTH 600 0
DWIDTH 15 0
BBX 10 16 3 0
BITMAP
1000
0800
0400
0200
0000
E1C0
2040
2040
4040
4080
4080
8080
8100
8300
4500
39C0
ENDCHAR
STARTCHAR uacute
ENCODING 250
SWIDTH 600 0
DWIDTH 15 0
BBX 10 16 3 0
BITMAP
0080
0100
0200
0400
0000
61C0
2040
2040
4040
4080
4080
8080
8100
8300
4500
39C0
ENDCHAR
STARTCHAR ucircumflex
ENCODING 251
SWIDTH 600 0
DWIDTH 15 0
BBX 10 15 3 0
BITMAP
0600
0900
1080
0000
E1C0
2040
2040
4040
4080
4080
8080
8100
8300
4500
39C0
ENDCHAR
STARTCHAR udieresis
ENCODING 252
SWIDTH 600 0
DWIDTH 15 0
BBX 10 14 3 0
BITMAP
1980
1980
0000
E1C0
2040
2040
4040
4080
4080
8080
8100
8300
4500
39C0
ENDCHAR
STARTCHAR yacute
ENCODING 253
SWIDTH 600 0
DWIDTH 15 0
BBX 14 21 1 -5
BITMAP
0010
0020
0040
0080
0000
1E1C
0808
0808
0810
0420
0420
0440
0440
0280
0300
0300
0200
0400
0800
1000
FE00
ENDCHAR
STARTCHAR thorn
ENCODING 254
SWIDTH 600 0
DWIDTH 15 0
BBX 15 21 -1 -5
BITMAP
0E00
0200
0200
0200
0200
04F8
0504
0602
0402
0802
0802
0802
0804
140C
1218
11E0
1000
2000
2000
2000
FC00
ENDCHAR
STARTCHAR ydieresis
ENCODING 255
SWIDTH 600 0
DWIDTH 15 0
BBX 14 19 1 -5
BITMAP
0630
0630
0000
1E1C
0808
0808
0810
0420
0420
0440
0440
0280
0300
0300
0200
0400
0800
1000
FE00
ENDCHAR
STARTCHAR Amacron
ENCODING 256
SWIDTH 600 0
DWIDTH 15 0
BBX 13 16 1 0
BITMAP
0FC0
0000
0780
0180
0280
0240
0440
0440
0820
0820
0FE0
1020
1010
2010
2010
F878
ENDCHAR
STARTCHAR amacron
ENCODING 257
SWIDTH 600 0
DWIDTH 15 0
BBX 10 13 2 0
BITMAP
1F80
0000
0F80
3040
0040
0040
1FC0
6080
4080
8100
8300
8500
79C0
ENDCHAR
STARTCHAR Abreve
ENCODING 258
SWIDTH 600 0
DWIDTH 15 0
BBX 13 18 1 0
BITMAP
0820
0C60
07C0
0000
0780
0180
0280
0240
0440
0440
0820
0820
0FE0
1020
1010
2010
2010
F878
ENDCHAR
STARTCHAR abreve
ENCODING 259
SWIDTH 600 0
DWIDTH 15 0
BBX 10 15 2 0
BITMAP
2080
3180
1F00
0000
0F80
3040
0040
0040
1FC0
6080
4080
8100
8300
8500
79C0
ENDCHAR
STARTCHAR Aogonek
ENCODING 260
SWIDTH 600 0
DWIDTH 15 0
BBX 13 18 1 -4
BITMAP
0780
0180
0280
0240
0440
0440
0820
0820
0FE0
1020
1010
2010
2010
F978
0200
0400
0480
0300
ENDCHAR
STARTCHAR aogonek
ENCODING 261
SWIDTH 600 0
DWIDTH 15 0
BBX 10 15 2 -4
BITMAP
0F80
3040
0040
0040
1FC0
6080
4080
8100
8300
8500
7DC0
0800
1000
1200
0C00
ENDCHAR
STARTCHAR Cacute
ENCODING 262
SWIDTH 600 0
DWIDTH 15 0
BBX 13 19 2 0
BITMAP
0060
00C0
0180
0300
0000
07C8
1838
3010
2010
4000
4000
8000
8000
8000
8000
8000
4060
60C0
1F00
ENDCHAR
STARTCHAR cacute
ENCODING 263
SWIDTH 600 0
DWIDTH 15 0
BBX 11 16 2 0
BITMAP
0180
0300
0600
0C00
0000
0FA0
3060
6040
4040
8000
8000
8000
8000
80C0
4180
3E00
ENDCHAR
STARTCHAR Ccircumflex
ENCODING 264
SWIDTH 600 0
DWIDTH 15 0
BBX 13 18 2 0
BITMAP
0380
06C0
0C60
0000
07C8
1838
3010
2010
4000
4000
8000
8000
8000
8000
8000
4060
60C0
1F00
ENDCHAR
STARTCHAR ccircumflex
ENCODING 265
SWIDTH 600 0
DWIDTH 15 0
BBX 11 15 2 0
BITMAP
0700
0D80
18C0
0000
0FA0
3060
6040
4040
8000
8000
8000
8000
80C0
4180
3E00
ENDCHAR
STARTCHAR Cdotaccent
ENCODING 266
SWIDTH 600 0
DWIDTH 15 0
BBX 13 17 2 0
BITMAP
0300
0300
0000
07C8
1838
3010
2010
4000
4000
8000
8000
8000
8000
8000
4060
60C0
1F00
ENDCHAR
STARTCHAR cdotaccent
ENCODING 267
SWIDTH 600 0
DWIDTH 15 0
BBX 11 14 2 0
BITMAP
0600
0600
0000
0FA0
3060
6040
4040
8000
8000
8000
8000
80C0
4180
3E00
ENDCHAR
STARTCHAR Ccaron
ENCODING 268
SWIDTH 600 0
DWIDTH 15 0
BBX 13 18 2 0
BITMAP
0C60
06C0
0380
0000
07C8
1838
3010
2010
4000
4000
8000
8000
8000
8000
8000
4060
60C0
1F00
ENDCHAR
STARTCHAR ccaron
ENCODING 269
SWIDTH 600 0
DWIDTH 15 0
BBX 11 15 2 0
BITMAP
18C0
0D80
0700
0000
0FA0
3060
6040
4040
8000
8000
8000
8000
80C0
4180
3E00
ENDCHAR
STARTCHAR Dcaron
ENCODING 270
SWIDTH 600 0
DWIDTH 15 0
BBX 13 18 1 0
BITMAP
0C60
06C0
0380
0000
1FE0
0410
0408
0808
0808
0808
0808
1008
1010
1010
2020
2020
20C0
FF00
ENDCHAR
STARTCHAR dcaron
ENCODING 271
SWIDTH 600 0
DWIDTH 15 0
BBX 14 20 1 0
BITMAP
018C
00D8
0070
0000
0038
0008
0008
0010
0010
0F90
3050
6020
4020
8020
8020
8040
8040
80C0
4340
3C70
ENDCHAR
STARTCHAR Dcroat
ENCODING 272
SWIDTH 600 0
DWIDTH 15 0
BBX 13 14 1 0
BITMAP
1FE0
0410
0408
0808
0808
0808
3E08
1008
1010
1010
2020
2020
20C0
FF00
ENDCHAR
STARTCHAR dcroat
ENCODING 273
SWIDTH 600 0
DWIDTH 15 0
BBX 15 16 1 0
BITMAP
0038
0008
0008
1FFE
0010
0F90
3050
6020
4020
8020
8020
8040
8040
80C0
4340
3C70
ENDCHAR
STARTCHAR Emacron
ENCODING 274
SWIDTH 600 0
DWIDTH 15 0
BBX 14 16 1 0
BITMAP
07E0
0000
1FFC
0404
0408
0808
0880
0880
0F00
1100
1100
1000
2010
2010
2020
FFE0
ENDCHAR
STARTCHAR emacron
ENCODING 275
SWIDTH 600 0
DWIDTH 15 0
BBX 11 13 2 0
BITMAP
1F80
0000
0F80
3040
6020
4020
8020
FFE0
8000
8000
8000
4180
3E00
ENDCHAR
STARTCHAR Ebreve
ENCODING 276
SWIDTH 600 0
DWIDTH 15 0
BBX 14 18 1 0
BITMAP
0410
0630
03E0
0000
1FFC
0404
0408
0808
0880
0880
0F00
1100
1100
1000
2010
2010
2020
FFE0
ENDCHAR
STARTCHAR ebreve
ENCODING 277
SWIDTH 600 0
DWIDTH 15 0
BBX 11 15 2 0
BITMAP
2080
3180
1F00
0000
0F80
3040
6020
4020
8020
FFE0
8000
8000
8000
4180
3E00
ENDCHAR
STARTCHAR Edotaccent
ENCODING 278
SWIDTH 600 0
DWIDTH 15 0
BBX 14 17 1 0
BITMAP
0180
0180
0000
1FFC
0404
0408
0808
0880
0880
0F00
1100
1100
1000
2010
2010
2020
FFE0
ENDCHAR
STARTCHAR edotaccent
ENCODING 279
SWIDTH 600 0
DWIDTH 15 0
BBX 11 14 2 0
BITMAP
0600
0600
0000
0F80
3040
6020
4020
8020
FFE0
8000
8000
8000
4180
3E00
ENDCHAR
STARTCHAR Eogonek
ENCODING 280
SWIDTH 600 0
DWIDTH 15 0
BBX 14 18 1 -4
BITMAP
1FFC
0404
0408
0808
0880
0880
0F00
1100
1100
1000
2010
2010
2020
FFE0
0400
0800
0900
0600
ENDCHAR
STARTCHAR eogonek
ENCODING 281
SWIDTH 600 0
DWIDTH 15 0
BBX 11 15 2 -4
BITMAP
0F80
3040
6020
4020
8020
FFE0
8000
8000
8000
4180
3E00
0800
1000
1200
0C00
ENDCHAR
STARTCHAR Ecaron
ENCODING 282
SWIDTH 600 0
DWIDTH 15 0
BBX 14 18 1 0
BITMAP
0630
0360
01C0
0000
1FFC
0404
0408
0808
0880
0880
0F00
1100
1100
1000
2010
2010
2020
FFE0
ENDCHAR
STARTCHAR ecaron
ENCODING 283
SWIDTH 600 0
DWIDTH 15 0
BBX 11 15 2 0
BITMAP
3180
1B00
0E00
0000
0F80
3040
6020
4020
8020
FFE0
8000
8000
8000
4180
3E00
ENDCHAR
STARTCHAR Gcircumflex
ENCODING 284
SWIDTH 600 0
DWIDTH 15 0
BBX 13 18 2 0
BITMAP
0380
06C0
0C60
0000
07C8
1838
3010
2010
4000
4000
8000
8000
83F0
8020
8020
4060
60C0
1F00
ENDCHAR
STARTCHAR gcircumflex
ENCODING 285
SWIDTH 600 0
DWIDTH 15 0
BBX 12 20 2 -5
BITMAP
0700
0D80
18C0
0000
0F30
30A0
6040
4040
8040
8040
8080
8080
8180
4280
3C80
0100
0100
0200
0600
F800
ENDCHAR
STARTCHAR Gbreve
ENCODING 286
SWIDTH 600 0
DWIDTH 15 0
BBX 13 18 2 0
BITMAP
0820
0C60
07C0
0000
07C8
1838
3010
2010
4000
4000
8000
8000
83F0
8020
8020
4060
60C0
1F00
ENDCHAR
STARTCHAR gbreve
ENCODING 287
SWIDTH 600 0
DWIDTH 15 0
BBX 12 20 2 -5
BITMAP
1040
18C0
0F80
0000
0F30
30A0
6040
4040
8040
8040
8080
8080
8180
4280
3C80
0100
0100
0200
0600
F800
ENDCHAR
STARTCHAR Gdotaccent
ENCODING 288
SWIDTH 600 0
DWIDTH 15 0
BBX 13 17 2 0
BITMAP
0300
0300
0000
07C8
1838
3010
2010
4000
4000
8000
8000
83F0
8020
8020
4060
60C0
1F00
ENDCHAR
STARTCHAR gdotaccent
ENCODING 289
SWIDTH 600 0
DWIDTH 15 0
BBX 12 19 2 -5
BITMAP
0600
0600
0000
0F30
30A0
6040
4040
8040
8040
8080
8080
8180
4280
3C80
0100
0100
0200
0600
F800
ENDCHAR
STARTCHAR Gcommaaccent
ENCODING 290
SWIDTH 600 0
DWIDTH 15 0
BBX 13 21 2 -7
BITMAP
07C8
1838
3010
2010
4000
4000
8000
8000
83F0
8020
8020
4060
60C0
1F00
0000
0700
0700
0E00
0C00
1800
1000
ENDCHAR
STARTCHAR gcommaaccent
ENCODING 291
SWIDTH 600 0
DWIDTH 15 0
BBX 12 24 2 -5
BITMAP
0E00
0E00
0600
0600
0600
0200
0200
0000
0F30
30A0
6040
4040
8040
8040
8080
8080
8180
4280
3C80
0100
0100
0200
0600
F800
ENDCHAR
STARTCHAR Hcircumflex
ENCODING 292
SWIDTH 600 0
DWIDTH 15 0
BBX 15 18 1 0
BITMAP
01C0
0360
0630
0000
1F3E
0408
0408
0810
0810
0810
0FF0
1020
1020
1020
2040
2040
2040
F9F0
ENDCHAR
STARTCHAR hcircumflex
ENCODING 293
SWIDTH 600 0
DWIDTH 15 0
BBX 12 20 1 0
BITMAP
0E00
1B00
3180
0000
1C00
0400
0400
0400
0800
09E0
0A10
0C10
1010
1020
1020
1020
2040
2040
2040
F9F0
ENDCHAR
STARTCHAR Hbar
ENCODING 294
SWIDTH 600 0
DWIDTH 15 0
BBX 15 14 1 0
BITMAP
1F3E
0408
FFFE
0810
0810
0810
0FF0
1020
1020
1020
2040
2040
2040
F9F0
ENDCHAR
STARTCHAR hbar
ENCODING 295
SWIDTH 600 0
DWIDTH 15 0
BBX 15 16 -2 0
BITMAP
0380
0080
0080
FFF0
0100
013C
0142
0182
0202
0204
0204
0204
0408
0408
0408
1F3E
ENDCHAR
STARTCHAR Itilde
ENCODING 296
SWIDTH 600 0
DWIDTH 15 0
BBX 12 17 3 0
BITMAP
0E40
1380
0000
1FF0
0100
0100
0200
0200
0200
0200
0400
0400
0400
0800
0800
0800
FF80
ENDCHAR
STARTCHAR itilde
ENCODING 297
SWIDTH 600 0
DWIDTH 15 0
BBX 10 14 3 0
BITMAP
1C80
2700
0000
1E00
0200
0200
0400
0400
0400
0400
0800
0800
0800
FFC0
ENDCHAR
STARTCHAR Imacron
ENCODING 298
SWIDTH 600 0
DWIDTH 15 0
BBX 12 16 3 0
BITMAP
0FC0
0000
1FF0
0100
0100
0200
0200
0200
0200
0400
0400
0400
0800
0800
0800
FF80
ENDCHAR
STARTCHAR imacron
ENCODING 299
SWIDTH 600 0
DWIDTH 15 0
BBX 10 13 3 0
BITMAP
3F00
0000
1E00
0200
0200
0400
0400
0400
0400
0800
0800
0800
FFC0
ENDCHAR
STARTCHAR Ibreve
ENCODING 300
SWIDTH 600 0
DWIDTH 15 0
BBX 12 18 3 0
BITMAP
1040
18C0
0F80
0000
1FF0
0100
0100
0200
0200
0200
0200
0400
0400
0400
0800
0800
0800
FF80
ENDCHAR
STARTCHAR ibreve
ENCODING 301
SWIDTH 600 0
DWIDTH 15 0
BBX 10 15 3 0
BITMAP
2080
3180
1F00
0000
1E00
0200
0200
0400
0400
0400
0400
0800
0800
0800
FFC0
ENDCHAR
STARTCHAR Iogonek
ENCODING 302
SWIDTH 600 0
DWIDTH 15 0
BBX 12 18 3 -4
BITMAP
1FF0
0100
0100
0200
0200
0200
0200
0400
0400
0400
0800
0800
0800
FF80
0800
1000
1200
0C00
ENDCHAR
STARTCHAR iogonek
ENCODING 303
SWIDTH 600 0
DWIDTH 15 0
BBX 10 20 3 -4
BITMAP
0300
0300
0300
0000
0000
1E00
0200
0200
0400
0400
0400
0400
0800
0800
0800
FFC0
0800
1000
1200
0C00
ENDCHAR
STARTCHAR Idotaccent
ENCODING 304
SWIDTH 600 0
DWIDTH 15 0
BBX 12 17 3 0
BITMAP
0300
0300
0000
1FF0
0100
0100
0200
0200
0200
0200
0400
0400
0400
0800
0800
0800
FF80
ENDCHAR
STARTCHAR dotlessi
ENCODING 305
SWIDTH 600 0
DWIDTH 15 0
BBX 10 11 3 0
BITMAP
1E00
0200
0200
0400
0400
0400
0400
0800
0800
0800
FFC0
ENDCHAR
STARTCHAR IJ
ENCODING 306
SWIDTH 600 0
DWIDTH 15 0
BBX 19 14 3 0
BITMAP
1FFFE0
010100
010100
020100
020200
020200
020200
040200
040400
0C0400
080400
080800
0C1800
FFE000
ENDCHAR
STARTCHAR ij
ENCODING 307
SWIDTH 600 0
DWIDTH 15 0
BBX 13 21 3 -5
BITMAP
0318
0318
0318
0000
0000
1FF8
0208
0208
0410
0410
0410
0410
0820
0820
0820
FFE0
0020
0040
0040
0180
1E00
ENDCHAR
STARTCHAR Jcircumflex
ENCODING 308
SWIDTH 600 0
DWIDTH 15 0
BBX 15 18 2 0
BITMAP
00E0
01B0
0318
0000
03FE
0010
0010
0010
0020
0020
0020
4020
4040
8040
8040
8080
4180
3E00
ENDCHAR
STARTCHAR jcircumflex
ENCODING 309
SWIDTH 600 0
DWIDTH 15 0
BBX 10 20 3 -5
BITMAP
0700
0D80
18C0
0000
1FC0
0040
0040
0080
0080
0080
0080
0100
0100
0100
0100
0100
0200
0200
0C00
F000
ENDCHAR
STARTCHAR Kcommaaccent
ENCODING 310
SWIDTH 600 0
DWIDTH 15 0
BBX 14 21 1 -7
BITMAP
1F3C
0410
0420
0840
0880
0900
0E00
1900
1080
1040
2040
2020
2020
FC38
0000
0700
0700
0E00
0C00
1800
1000
ENDCHAR
STARTCHAR kcommaaccent
ENCODING 311
SWIDTH 600 0
DWIDTH 15 0
BBX 13 23 1 -7
BITMAP
1C00
0400
0400
0400
0800
08F8
0860
0980
1600
1C00
1400
1200
2100
2080
2040
E0F0
0000
0700
0700
0E00
0C00
1800
1000
ENDCHAR
STARTCHAR kgreenlandic
ENCODING 312
SWIDTH 600 0
DWIDTH 15 0
BBX 13 11 1 0
BITMAP
08F8
0860
0980
1600
1C00
1400
1200
2100
2080
2040
E0F0
ENDCHAR
STARTCHAR Lacute
ENCODING 313
SWIDTH 600 0
DWIDTH 15 0
BBX 13 19 1 0
BITMAP
0180
0300
0600
0C00
0000
1FC0
0400
0400
0800
0800
0800
0800
1000
1008
1008
2008
2010
2010
FFF0
ENDCHAR
STARTCHAR lacute
ENCODING 314
SWIDTH 600 0
DWIDTH 15 0
BBX 10 21 3 0
BITMAP
0180
0300
0600
0C00
0000
0F00
0100
0100
0100
0200
0200
0200
0200
0400
0400
0400
0400
0800
0800
0800
FFC0
ENDCHAR
STARTCHAR Lcommaaccent
ENCODING 315
SWIDTH 600 0
DWIDTH 15 0
BBX 13 21 1 -7
BITMAP
1FC0
0400
0400
0800
0800
0800
0800
1000
1008
1008
2008
2010
2010
FFF0
0000
0700
0700
0E00
0C00
1800
1000
ENDCHAR
STARTCHAR lcommaaccent
ENCODING 316
SWIDTH 600 0
DWIDTH 15 0
BBX 10 23 3 -7
BITMAP
0F00
0100
0100
0100
0200
0200
0200
0200
0400
0400
0400
0400
0800
0800
0800
FFC0
0000
0E00
0E00
1C00
1800
3000
2000
ENDCHAR
STARTCHAR Lcaron
ENCODING 317
SWIDTH 600 0
DWIDTH 15 0
BBX 13 18 1 0
BITMAP
18C0
0D80
0700
0000
1FC0
0400
0400
0800
0800
0800
0800
1000
1008
1008
2008
2010
2010
FFF0
ENDCHAR
STARTCHAR lcaron
ENCODING 318
SWIDTH 600 0
DWIDTH 15 0
BBX 10 20 3 0
BITMAP
18C0
0D80
0700
0000
0F00
0100
0100
0100
0200
0200
0200
0200
0400
0400
0400
0400
0800
0800
0800
FFC0
ENDCHAR
STARTCHAR Ldot
ENCODING 319
SWIDTH 600 0
DWIDTH 15 0
BBX 13 14 1 0
BITMAP
1FC0
0400
0400
0800
0800
09C0
0BC0
1380
1008
1008
2008
2010
2010
FFF0
ENDCHAR
STARTCHAR ldot
ENCODING 320
SWIDTH 600 0
DWIDTH 15 0
BBX 12 16 3 0
BITMAP
0F00
0100
0100
0100
0200
0200
0200
0270
04F0
04E0
0400
0400
0800
0800
0800
FFC0
ENDCHAR
STARTCHAR Lslash
ENCODING 321
SWIDTH 600 0
DWIDTH 15 0
BBX 13 14 1 0
BITMAP
1FC0
0400
0400
0800
0800
0980
0E00
1800
7008
1008
2008
2010
2010
FFF0
ENDCHAR
STARTCHAR lslash
ENCODING 322
SWIDTH 600 0
DWIDTH 15 0
BBX 10 16 3 0
BITMAP
0F00
0100
0100
0100
0200
0200
02C0
0300
0C00
3400
0400
0400
0800
0800
0800
FFC0
ENDCHAR
STARTCHAR Nacute
ENCODING 323
SWIDTH 600 0
DWIDTH 15 0
BBX 16 19 1 0
BITMAP
0030
0060
00C0
0180
0000
1F1F
0404
0404
0A08
0A08
0A08
0908
1110
1110
1090
20A0
20A0
2060
F860
ENDCHAR
STARTCHAR nacute
ENCODING 324
SWIDTH 600 0
DWIDTH 15 0
BBX 12 16 1 0
BITMAP
00C0
0180
0300
0600
0000
39E0
0A10
0C10
0810
1020
1020
1020
2040
2040
2040
F9F0
ENDCHAR
STARTCHAR Ncommaaccent
ENCODING 325
SWIDTH 600 0
DWIDTH 15 0
BBX 16 21 1 -7
BITMAP
1F1F
0404
0404
0A08
0A08
0A08
0908
1110
1110
1090
20A0
20A0
2060
F860
0000
0380
0380
0700
0600
0C00
0800
ENDCHAR
STARTCHAR ncommaaccent
ENCODING 326
SWIDTH 600 0
DWIDTH 15 0
BBX 12 18 1 -7
BITMAP
39E0
0A10
0C10
0810
1020
1020
1020
2040
2040
2040
F9F0
0000
0700
0700
0E00
0C00
1800
1000
ENDCHAR
STARTCHAR Ncaron
ENCODING 327
SWIDTH 600 0
DWIDTH 15 0
BBX 16 18 1 0
BITMAP
0630
0360
01C0
0000
1F1F
0404
0404
0A08
0A08
0A08
0908
1110
1110
1090
20A0
20A0
2060
F860
ENDCHAR
STARTCHAR ncaron
ENCODING 328
SWIDTH 600 0
DWIDTH 15 0
BBX 12 15 1 0
BITMAP
18C0
0D80
0700
0000
39E0
0A10
0C10
0810
1020
1020
1020
2040
2040
2040
F9F0
ENDCHAR
STARTCHAR napostrophe
ENCODING 329
SWIDTH 600 0
DWIDTH 15 0
BBX 15 15 -2 0
BITMAP
1800
3800
3000
7000
673C
C142
8182
0102
0204
0204
0204
0408
0408
0408
1F3E
ENDCHAR
STARTCHAR Eng
ENCODING 330
SWIDTH 600 0
DWIDTH 15 0
BBX 16 19 1 -5
BITMAP
1F1F
0404
0404
0A08
0A08
0A08
0908
1110
1110
1090
20A0
20A0
2060
F860
0020
0040
0040
0180
1E00
ENDCHAR
STARTCHAR eng
ENCODING 331
SWIDTH 600 0
DWIDTH 15 0
BBX 12 16 1 -5
BITMAP
39E0
0A10
0C10
0810
1020
1020
1020
2040
2040
2040
F840
0040
0080
0080
0300
3C00
ENDCHAR
STARTCHAR Omacron
ENCODING 332
SWIDTH 600 0
DWIDTH 15 0
BBX 13 16 2 0
BITMAP
0FC0
0000
07C0
1830
3010
2008
4008
4008
8008
8008
8010
8010
8020
4060
60C0
1F00
ENDCHAR
STARTCHAR omacron
ENCODING 333
SWIDTH 600 0
DWIDTH 15 0
BBX 11 13 2 0
BITMAP
1F80
0000
0F80
3040
6020
4020
8020
8020
8020
8040
80C0
4180
3E00
ENDCHAR
STARTCHAR Obreve
ENCODING 334
SWIDTH 600 0
DWIDTH 15 0
BBX 13 18 2 0
BITMAP
1040
18C0
0F80
0000
07C0
1830
3010
2008
4008
4008
8008
8008
8010
8010
8020
4060
60C0
1F00
ENDCHAR
STARTCHAR obreve
ENCODING 335
SWIDTH 600 0
DWIDTH 15 0
BBX 11 15 2 0
BITMAP
2080
3180
1F00
0000
0F80
3040
6020
4020
8020
8020
8020
8040
80C0
4180
3E00
ENDCHAR
STARTCHAR Ohungarumlaut
ENCODING 336
SWIDTH 600 0
DWIDTH 15 0
BBX 13 19 2 0
BITMAP
0330
0660
0CC0
1980
0000
07C0
1830
3010
2008
4008
4008
8008
8008
8010
8010
8020
4060
60C0
1F00
ENDCHAR
STARTCHAR ohungarumlaut
ENCODING 337
SWIDTH 600 0
DWIDTH 15 0
BBX 11 16 2 0
BITMAP
0660
0CC0
1980
3300
0000
0F80
3040
6020
4020
8020
8020
8020
8040
80C0
4180
3E00
ENDCHAR
STARTCHAR OE
ENCODING 338
SWIDTH 600 0
DWIDTH 15 0
BBX 16 14 1 0
BITMAP
07FF
1841
3042
2082
4088
4088
80F0
8110
8110
8100
8204
4204
6208
1DF8
ENDCHAR
STARTCHAR oe
ENCODING 339
SWIDTH 600 0
DWIDTH 15 0
BBX 15 11 0 0
BITMAP
0E38
3144
6082
4082
8102
81FE
8100
8100
8100
428C
3C70
ENDCHAR
STARTCHAR Racute
ENCODING 340
SWIDTH 600 0
DWIDTH 15 0
BBX 13 19 1 0
BITMAP
00C0
0180
0300
0600
0000
1FE0
0410
0408
0808
0808
0810
0830
1FC0
1080
1040
2020
2020
2010
FC18
ENDCHAR
STARTCHAR racute
ENCODING 341
SWIDTH 600 0
DWIDTH 15 0
BBX 13 16 2 0
BITMAP
00C0
0180
0300
0600
0000
1C70
0588
0600
0800
0800
0800
0800
1000
1000
1000
FF80
ENDCHAR
STARTCHAR Rcommaaccent
ENCODING 342
SWIDTH 600 0
DWIDTH 15 0
BBX 13 21 1 -7
BITMAP
1FE0
0410
0408
0808
0808
0810
0830
1FC0
1080
1040
2020
2020
2010
FC18
0000
0700
0700
0E00
0C00
1800
1000
ENDCHAR
STARTCHAR rcommaaccent
ENCODING 343
SWIDTH 600 0
DWIDTH 15 0
BBX 13 18 2 -7
BITMAP
1C70
0588
0600
0800
0800
0800
0800
1000
1000
1000
FF80
0000
0E00
0E00
1C00
1800
3000
2000
ENDCHAR
STARTCHAR Rcaron
ENCODING 344
SWIDTH 600 0
DWIDTH 15 0
BBX 13 18 1 0
BITMAP
0C60
06C0
0380
0000
1FE0
0410
0408
0808
0808
0810
0830
1FC0
1080
1040
2020
2020
2010
FC18
ENDCHAR
STARTCHAR rcaron
ENCODING 345
SWIDTH 600 0
DWIDTH 15 0
BBX 13 15 2 0
BITMAP
0C60
06C0
0380
0000
1C70
0588
0600
0800
0800
0800
0800
1000
1000
1000
FF80
ENDCHAR
STARTCHAR Sacute
ENCODING 346
SWIDTH 600 0
DWIDTH 15 0
BBX 12 19 2 0
BITMAP
0060
00C0
0180
0300
0000
0390
0C70
0820
1020
1000
1000
0E00
0180
0040
0040
4040
4080
E180
9E00
ENDCHAR
STARTCHAR sacute
ENCODING 347
SWIDTH 600 0
DWIDTH 15 0
BBX 11 16 2 0
BITMAP
00C0
0180
0300
0600
0000
0FA0
1060
2020
2000
1000
0F00
0080
0040
8040
C080
BF00
ENDCHAR
STARTCHAR Scircumflex
ENCODING 348
SWIDTH 600 0
DWIDTH 15 0
BBX 12 18 2 0
BITMAP
0380
06C0
0C60
0000
0390
0C70
0820
1020
1000
1000
0E00
0180
0040
0040
4040
4080
E180
9E00
ENDCHAR
STARTCHAR scircumflex
ENCODING 349
SWIDTH 600 0
DWIDTH 15 0
BBX 11 15 2 0
BITMAP
0700
0D80
18C0
0000
0FA0
1060
2020
2000
1000
0F00
0080
0040
8040
C080
BF00
ENDCHAR
STARTCHAR Scedilla
ENCODING 350
SWIDTH 600 0
DWIDTH 15 0
BBX 12 18 2 -4
BITMAP
0390
0C70
0820
1020
1000
1000
0E00
0180
0040
0040
4040
4080
E180
9E00
0400
0200
1200
1C00
ENDCHAR
STARTCHAR scedilla
ENCODING 351
SWIDTH 600 0
DWIDTH 15 0
BBX 11 15 2 -4
BITMAP
0FA0
1060
2020
2000
1000
0F00
0080
0040
8040
C080
BF00
0800
0400
2400
3800
ENDCHAR
STARTCHAR Scaron
ENCODING 352
SWIDTH 600 0
DWIDTH 15 0
BBX 12 18 2 0
BITMAP
0630
0360
01C0
0000
0390
0C70
0820
1020
1000
1000
0E00
0180
0040
0040
4040
4080
E180
9E00
ENDCHAR
STARTCHAR scaron
ENCODING 353
SWIDTH 600 0
DWIDTH 15 0
BBX 11 15 2 0
BITMAP
18C0
0D80
0700
0000
0FA0
1060
2020
2000
1000
0F00
0080
0040
8040
C080
BF00
ENDCHAR
STARTCHAR Tcommaaccent
ENCODING 354
SWIDTH 600 0
DWIDTH 15 0
BBX 12 18 4 -4
BITMAP
7FF0
4210
4210
8420
8420
0400
0400
0800
0800
0800
1000
1000
1000
FE00
0800
0400
2400
3800
ENDCHAR
STARTCHAR tcommaaccent
ENCODING 355
SWIDTH 600 0
DWIDTH 15 0
BBX 9 19 3 -4
BITMAP
1000
1000
1000
1000
FF80
2000
2000
2000
2000
4000
4000
4000
4000
2180
1E00
0800
0400
2400
3800
ENDCHAR
STARTCHAR Tcaron
ENCODING 356
SWIDTH 600 0
DWIDTH 15 0
BBX 12 18 4 0
BITMAP
18C0
0D80
0700
0000
7FF0
4210
4210
8420
8420
0400
0400
0800
0800
0800
1000
1000
1000
FE00
ENDCHAR
STARTCHAR tcaron
ENCODING 357
SWIDTH 600 0
DWIDTH 15 0
BBX 9 19 3 0
BITMAP
C600
6C00
3800
0000
1000
1000
1000
1000
FF80
2000
2000
2000
2000
4000
4000
4000
4000
2180
1E00
ENDCHAR
STARTCHAR Tbar
ENCODING 358
SWIDTH 600 0
DWIDTH 15 0
BBX 12 14 4 0
BITMAP
7FF0
4210
4210
8420
8420
0400
FFF0
0800
0800
0800
1000
1000
1000
FE00
ENDCHAR
STARTCHAR tbar
ENCODING 359
SWIDTH 600 0
DWIDTH 15 0
BBX 12 15 2 0
BITMAP
0800
0800
0800
0800
7FC0
1000
1000
1000
1000
FFF0
2000
2000
2000
10C0
0F00
ENDCHAR
STARTCHAR Utilde
ENCODING 360
SWIDTH 600 0
DWIDTH 15 0
BBX 14 17 3 0
BITMAP
0720
09C0
0000
F87C
2010
2010
2010
4020
4020
4020
4020
8040
8040
8040
8080
4180
3E00
ENDCHAR
STARTCHAR utilde
ENCODING 361
SWIDTH 600 0
DWIDTH 15 0
BBX 10 14 3 0
BITMAP
1C80
2700
0000
E1C0
2040
2040
4040
4080
4080
8080
8100
8300
4500
39C0
ENDCHAR
STARTCHAR Umacron
ENCODING 362
SWIDTH 600 0
DWIDTH 15 0
BBX 14 16 3 0
BITMAP
0FC0
0000
F87C
2010
2010
2010
4020
4020
4020
4020
8040
8040
8040
8080
4180
3E00
ENDCHAR
STARTCHAR umacron
ENCODING 363
SWIDTH 600 0
DWIDTH 15 0
BBX 10 13 3 0
BITMAP
3F00
0000
E1C0
2040
2040
4040
4080
4080
8080
8100
8300
4500
39C0
ENDCHAR
STARTCHAR Ubreve
ENCODING 364
SWIDTH 600 0
DWIDTH 15 0
BBX 14 18 3 0
BITMAP
0820
0C60
07C0
0000
F87C
2010
2010
2010
4020
4020
4020
4020
8040
8040
8040
8080
4180
3E00
ENDCHAR
STARTCHAR ubreve
ENCODING 365
SWIDTH 600 0
DWIDTH 15 0
BBX 10 15 3 0
BITMAP
2080
3180
1F00
0000
E1C0
2040
2040
4040
4080
4080
8080
8100
8300
4500
39C0
ENDCHAR
STARTCHAR Uring
ENCODING 366
SWIDTH 600 0
DWIDTH 15 0
BBX 14 20 3 0
BITMAP
0180
0240
0440
0480
0300
0000
F87C
2010
2010
2010
4020
4020
4020
4020
8040
8040
8040
8080
4180
3E00
ENDCHAR
STARTCHAR uring
ENCODING 367
SWIDTH 600 0
DWIDTH 15 0
BBX 10 17 3 0
BITMAP
0600
0900
1100
1200
0C00
0000
E1C0
2040
2040
4040
4080
4080
8080
8100
8300
4500
39C0
ENDCHAR
STARTCHAR Uhungarumlaut
ENCODING 368
SWIDTH 600 0
DWIDTH 15 0
BBX 14 19 3 0
BITMAP
0330
0660
0CC0
1980
0000
F87C
2010
2010
2010
4020
4020
4020
4020
8040
8040
8040
8080
4180
3E00
ENDCHAR
STARTCHAR uhungarumlaut
ENCODING 369
SWIDTH 600 0
DWIDTH 15 0
BBX 10 16 3 0
BITMAP
0CC0
1980
3300
6600
0000
E1C0
2040
2040
4040
4080
4080
8080
8100
8300
4500
39C0
ENDCHAR
STARTCHAR Uogonek
ENCODING 370
SWIDTH 600 0
DWIDTH 15 0
BBX 14 18 3 -4
BITMAP
F87C
2010
2010
2010
4020
4020
4020
4020
8040
8040
8040
8080
4180
3E00
0400
0800
0900
0600
ENDCHAR
STARTCHAR uogonek
ENCODING 371
SWIDTH 600 0
DWIDTH 15 0
BBX 10 15 3 -4
BITMAP
E1C0
2040
2040
4040
4080
4080
8080
8100
8300
4500
3DC0
0800
1000
1200
0C00
ENDCHAR
STARTCHAR Wcircumflex
ENCODING 372
SWIDTH 600 0
DWIDTH 15 0
BBX 14 18 2 0
BITMAP
0380
06C0
0C60
0000
783C
2008
2008
2310
4510
4510
4920
4920
5120
5140
A140
A140
C180
C180
ENDCHAR
STARTCHAR wcircumflex
ENCODING 373
SWIDTH 600 0
DWIDTH 15 0
BBX 13 15 2 0
BITMAP
0700
0D80
18C0
0000
F078
4010
4010
4620
4620
4A40
4A40
5280
5280
6300
6300
ENDCHAR
STARTCHAR Ycircumflex
ENCODING 374
SWIDTH 600 0
DWIDTH 15 0
BBX 13 18 4 0
BITMAP
0700
0D80
18C0
0000
F078
2020
2040
1080
1100
0A00
0C00
0800
0800
0800
1000
1000
1000
FE00
ENDCHAR
STARTCHAR ycircumflex
ENCODING 375
SWIDTH 600 0
DWIDTH 15 0
BBX 14 20 1 -5
BITMAP
0380
06C0
0C60
0000
1E1C
0808
0808
0810
0420
0420
0440
0440
0280
0300
0300
0200
0400
0800
1000
FE00
ENDCHAR
STARTCHAR Ydieresis
ENCODING 376
SWIDTH 600 0
DWIDTH 15 0
BBX 13 17 4 0
BITMAP
18C0
18C0
0000
F078
2020
2040
1080
1100
0A00
0C00
0800
0800
0800
1000
1000
1000
FE00
ENDCHAR
STARTCHAR Zacute
ENCODING 377
SWIDTH 600 0
DWIDTH 15 0
BBX 12 19 2 0
BITMAP
00C0
0180
0300
0600
0000
1FF0
1010
2020
2040
0080
0100
0200
0400
0800
1000
2020
4020
8040
FFC0
ENDCHAR
STARTCHAR zacute
ENCODING 378
SWIDTH 600 0
DWIDTH 15 0
BBX 11 16 3 0
BITMAP
0180
0300
0600
0C00
0000
3FE0
4040
4080
0100
0200
0400
0800
1000
2040
4040
FF80
ENDCHAR
STARTCHAR Zdotaccent
ENCODING 379
SWIDTH 600 0
DWIDTH 15 0
BBX 12 17 2 0
BITMAP
0300
0300
0000
1FF0
1010
2020
2040
0080
0100
0200
0400
0800
1000
2020
4020
8040
FFC0
ENDCHAR
STARTCHAR zdotaccent
ENCODING 380
SWIDTH 600 0
DWIDTH 15 0
BBX 11 14 3 0
BITMAP
0600
0600
0000
3FE0
4040
4080
0100
0200
0400
0800
1000
2040
4040
FF80
ENDCHAR
STARTCHAR Zcaron
ENCODING 381
SWIDTH 600 0
DWIDTH 15 0
BBX 12 18 2 0
BITMAP
0630
0360
01C0
0000
1FF0
1010
2020
2040
0080
0100
0200
0400
0800
1000
2020
4020
8040
FFC0
ENDCHAR
STARTCHAR zcaron
ENCODING 382
SWIDTH 600 0
DWIDTH 15 0
BBX 11 15 3 0
BITMAP
0C60
06C0
0380
0000
3FE0
4040
4080
0100
0200
0400
0800
1000
2040
4040
FF80
ENDCHAR
STARTCHAR uni0186
ENCODING 390
SWIDTH 600 0
DWIDTH 15 0
BBX 13 14 2 0
BITMAP
07C0
1830
3010
0008
0008
0008
0008
0008
0010
0010
4020
4060
E0C0
9F00
ENDCHAR
STARTCHAR uni0189
ENCODING 393
SWIDTH 600 0
DWIDTH 15 0
BBX 13 14 1 0
BITMAP
1FE0
0410
0408
0808
0808
0808
3E08
1008
1010
1010
2020
2020
20C0
FF00
ENDCHAR
STARTCHAR uni018E
ENCODING 398
SWIDTH 600 0
DWIDTH 15 0
BBX 14 14 1 0
BITMAP
1FFC
1010
2010
2010
0020
0220
0220
03C0
0440
0440
4040
4080
8080
FFE0
ENDCHAR
STARTCHAR florin
ENCODING 402
SWIDTH 600 0
DWIDTH 15 0
BBX 14 18 2 -2
BITMAP
003C
0040
0080
0080
0100
0100
0FE0
0100
0100
0100
0200
0200
0200
0200
0400
0400
0800
F000
ENDCHAR
STARTCHAR uni0197
ENCODING 407
SWIDTH 600 0
DWIDTH 15 0
BBX 12 14 3 0
BITMAP
1FF0
0100
0100
0200
0200
0200
FFF0
0400
0400
0400
0800
0800
0800
FF80
ENDCHAR
STARTCHAR uni019A
ENCODING 410
SWIDTH 600 0
DWIDTH 15 0
BBX 12 16 2 0
BITMAP
0780
0080
0080
0080
0100
0100
0100
FFF0
0200
0200
0200
0200
0400
0400
0400
7FE0
ENDCHAR
STARTCHAR uni019D
ENCODING 413
SWIDTH 600 0
DWIDTH 15 0
BBX 21 19 -4 -5
BITMAP
00F8F8
002020
002020
005040
005040
005040
004840
008880
008880
008480
010100
010100
010300
010300
010000
020000
020000
0C0000
F00000
ENDCHAR
STARTCHAR uni019F
ENCODING 415
SWIDTH 600 0
DWIDTH 15 0
BBX 13 14 2 0
BITMAP
07C0
1830
3010
2008
4008
4008
FFF8
8008
8010
8010
8020
4060
60C0
1F00
ENDCHAR
STARTCHAR Ohorn
ENCODING 416
SWIDTH 600 0
DWIDTH 15 0
BBX 17 14 2 0
BITMAP
07C180
183380
301300
200F00
400E00
400C00
800800
800800
801000
801000
802000
406000
60C000
1F0000
ENDCHAR
STARTCHAR ohorn
ENCODING 417
SWIDTH 600 0
DWIDTH 15 0
BBX 15 11 2 0
BITMAP
0F86
304E
602C
403C
8038
8030
8020
8040
80C0
4180
3E00
ENDCHAR
STARTCHAR Uhorn
ENCODING 431
SWIDTH 600 0
DWIDTH 15 0
BBX 18 14 3 0
BITMAP
F87CC0
2011C0
201180
201380
402300
402600
402400
402000
804000
804000
804000
808000
418000
3E0000
ENDCHAR
STARTCHAR uhorn
ENCODING 432
SWIDTH 600 0
DWIDTH 15 0
BBX 14 11 3 0
BITMAP
E1CC
205C
2058
4078
40B0
40E0
80C0
8100
8300
4500
39C0
ENDCHAR
STARTCHAR uni01B5
ENCODING 437
SWIDTH 600 0
DWIDTH 15 0
BBX 12 14 2 0
BITMAP
1FF0
1010
2020
2040
0080
0100
FFF0
0400
0800
1000
2020
4020
8040
FFC0
ENDCHAR
STARTCHAR uni01B6
ENCODING 438
SWIDTH 600 0
DWIDTH 15 0
BBX 12 11 3 0
BITMAP
3FE0
4040
4080
0100
0200
FFF0
0800
1000
2040
4040
FF80
ENDCHAR
STARTCHAR uni01BB
ENCODING 443
SWIDTH 600 0
DWIDTH 15 0
BBX 11 15 2 0
BITMAP
0780
0840
1020
1020
0020
0040
0080
FFE0
0200
0400
0800
1000
2000
4080
FF80
ENDCHAR
STARTCHAR uni01BC
ENCODING 444
SWIDTH 600 0
DWIDTH 15 0
BBX 12 15 2 0
BITMAP
0FF0
0800
0800
0800
1000
1380
1C40
1820
0020
0020
0020
0040
8040
6180
1E00
ENDCHAR
STARTCHAR uni01C0
ENCODING 448
SWIDTH 600 0
DWIDTH 15 0
BBX 4 19 7 -3
BITMAP
10
10
10
10
20
20
20
20
20
40
40
40
40
40
80
80
80
80
80
ENDCHAR
STARTCHAR uni01C2
ENCODING 450
SWIDTH 600 0
DWIDTH 15 0
BBX 13 19 2 -2
BITMAP
0080
0080
0080
0080
0100
0100
0100
0100
7FF8
0200
0200
FFF0
0200
0200
0400
0400
0400
0400
0400
ENDCHAR
STARTCHAR uni01C3
ENCODING 451
SWIDTH 600 0
DWIDTH 15 0
BBX 5 16 6 0
BITMAP
18
18
18
38
38
30
30
30
20
20
20
00
00
00
E0
E0
ENDCHAR
STARTCHAR uni01CD
ENCODING 461
SWIDTH 600 0
DWIDTH 15 0
BBX 13 18 1 0
BITMAP
0C60
06C0
0380
0000
0780
0180
0280
0240
0440
0440
0820
0820
0FE0
1020
1010
2010
2010
F878
ENDCHAR
STARTCHAR uni01CE
ENCODING 462
SWIDTH 600 0
DWIDTH 15 0
BBX 10 15 2 0
BITMAP
3180
1B00
0E00
0000
0F80
3040
0040
0040
1FC0
6080
4080
8100
8300
8500
79C0
ENDCHAR
STARTCHAR uni01CF
ENCODING 463
SWIDTH 600 0
DWIDTH 15 0
BBX 12 18 3 0
BITMAP
18C0
0D80
0700
0000
1FF0
0100
0100
0200
0200
0200
0200
0400
0400
0400
0800
0800
0800
FF80
ENDCHAR
STARTCHAR uni01D0
ENCODING 464
SWIDTH 600 0
DWIDTH 15 0
BBX 10 15 3 0
BITMAP
3180
1B00
0E00
0000
1E00
0200
0200
0400
0400
0400
0400
0800
0800
0800
FFC0
ENDCHAR
STARTCHAR uni01D1
ENCODING 465
SWIDTH 600 0
DWIDTH 15 0
BBX 13 18 2 0
BITMAP
18C0
0D80
0700
0000
07C0
1830
3010
2008
4008
4008
8008
8008
8010
8010
8020
4060
60C0
1F00
ENDCHAR
STARTCHAR uni01D2
ENCODING 466
SWIDTH 600 0
DWIDTH 15 0
BBX 11 15 2 0
BITMAP
3180
1B00
0E00
0000
0F80
3040
6020
4020
8020
8020
8020
8040
80C0
4180
3E00
ENDCHAR
STARTCHAR uni01D3
ENCODING 467
SWIDTH 600 0
DWIDTH 15 0
BBX 14 18 3 0
BITMAP
0C60
06C0
0380
0000
F87C
2010
2010
2010
4020
4020
4020
4020
8040
8040
8040
8080
4180
3E00
ENDCHAR
STARTCHAR uni01D4
ENCODING 468
SWIDTH 600 0
DWIDTH 15 0
BBX 10 15 3 0
BITMAP
3180
1B00
0E00
0000
E1C0
2040
2040
4040
4080
4080
8080
8100
8300
4500
39C0
ENDCHAR
STARTCHAR uni01D5
ENCODING 469
SWIDTH 600 0
DWIDTH 15 0
BBX 14 19 3 0
BITMAP
0FC0
0000
0C60
0C60
0000
F87C
2010
2010
2010
4020
4020
4020
4020
8040
8040
8040
8080
4180
3E00
ENDCHAR
STARTCHAR uni01D6
ENCODING 470
SWIDTH 600 0
DWIDTH 15 0
BBX 10 16 3 0
BITMAP
3F00
0000
1980
1980
0000
E1C0
2040
2040
4040
4080
4080
8080
8100
8300
4500
39C0
ENDCHAR
STARTCHAR uni01D7
ENCODING 471
SWIDTH 600 0
DWIDTH 15 0
BBX 14 22 3 0
BITMAP
00C0
0180
0300
0600
0000
0C60
0C60
0000
F87C
2010
2010
2010
4020
4020
4020
4020
8040
8040
8040
8080
4180
3E00
ENDCHAR
STARTCHAR uni01D8
ENCODING 472
SWIDTH 600 0
DWIDTH 15 0
BBX 10 19 3 0
BITMAP
0180
0300
0600
0C00
0000
1980
1980
0000
E1C0
2040
2040
4040
4080
4080
8080
8100
8300
4500
39C0
ENDCHAR
STARTCHAR uni01D9
ENCODING 473
SWIDTH 600 0
DWIDTH 15 0
BBX 14 21 3 0
BITMAP
0C60
06C0
0380
0000
0C60
0C60
0000
F87C
2010
2010
2010
4020
4020
4020
4020
8040
8040
8040
8080
4180
3E00
ENDCHAR
STARTCHAR uni01DA
ENCODING 474
SWIDTH 600 0
DWIDTH 15 0
BBX 10 18 3 0
BITMAP
3180
1B00
0E00
0000
1980
1980
0000
E1C0
2040
2040
4040
4080
4080
8080
8100
8300
4500
39C0
ENDCHAR
STARTCHAR uni01DB
ENCODING 475
SWIDTH 600 0
DWIDTH 15 0
BBX 14 22 3 0
BITMAP
0C00
0600
0300
0180
0000
0C60
0C60
0000
F87C
2010
2010
2010
4020
4020
4020
4020
8040
8040
8040
8080
4180
3E00
ENDCHAR
STARTCHAR uni01DC
ENCODING 476
SWIDTH 600 0
DWIDTH 15 0
BBX 10 19 3 0
BITMAP
3000
1800
0C00
0600
0000
1980
1980
0000
E1C0
2040
2040
4040
4080
4080
8080
8100
8300
4500
39C0
ENDCHAR
STARTCHAR uni01DD
ENCODING 477
SWIDTH 600 0
DWIDTH 15 0
BBX 11 11 2 0
BITMAP
0F80
3040
0020
0020
0020
FFE0
8020
8040
80C0
4180
3E00
ENDCHAR
STARTCHAR uni01DE
ENCODING 478
SWIDTH 600 0
DWIDTH 15 0
BBX 13 19 1 0
BITMAP
0FC0
0000
0C60
0C60
0000
0780
0180
0280
0240
0440
0440
0820
0820
0FE0
1020
1010
2010
2010
F878
ENDCHAR
STARTCHAR uni01DF
ENCODING 479
SWIDTH 600 0
DWIDTH 15 0
BBX 10 16 2 0
BITMAP
1F80
0000
18C0
18C0
0000
0F80
3040
0040
0040
1FC0
6080
4080
8100
8300
8500
79C0
ENDCHAR
STARTCHAR uni01E0
ENCODING 480
SWIDTH 600 0
DWIDTH 15 0
BBX 13 19 1 0
BITMAP
0FC0
0000
0300
0300
0000
0780
0180
0280
0240
0440
0440
0820
0820
0FE0
1020
1010
2010
2010
F878
ENDCHAR
STARTCHAR uni01E1
ENCODING 481
SWIDTH 600 0
DWIDTH 15 0
BBX 10 16 2 0
BITMAP
1F80
0000
0600
0600
0000
0F80
3040
0040
0040
1FC0
6080
4080
8100
8300
8500
79C0
ENDCHAR
STARTCHAR uni01E2
ENCODING 482
SWIDTH 600 0
DWIDTH 15 0
BBX 18 16 -1 0
BITMAP
00FC00
000000
01FFC0
009040
011080
012080
022200
022200
043C00
044400
0FC400
084000
108100
108100
208200
FBFE00
ENDCHAR
STARTCHAR uni01E3
ENCODING 483
SWIDTH 600 0
DWIDTH 15 0
BBX 15 13 0 0
BITMAP
07E0
0000
0E38
3144
2082
0082
0102
3FFE
4100
8100
8100
828C
7C70
ENDCHAR
STARTCHAR uni01E4
ENCODING 484
SWIDTH 600 0
DWIDTH 15 0
BBX 17 14 2 0
BITMAP
07C800
183800
301000
201000
400000
400000
800000
800000
83F000
87FF80
802000
406000
60C000
1F0000
ENDCHAR
STARTCHAR uni01E5
ENCODING 485
SWIDTH 600 0
DWIDTH 15 0
BBX 12 16 2 -5
BITMAP
0F30
30A0
6040
4040
8040
8040
8080
8080
8180
4280
3C80
0100
FFF0
0200
0600
F800
ENDCHAR
STARTCHAR Gcaron
ENCODING 486
SWIDTH 600 0
DWIDTH 15 0
BBX 13 18 2 0
BITMAP
0C60
06C0
0380
0000
07C8
1838
3010
2010
4000
4000
8000
8000
83F0
8020
8020
4060
60C0
1F00
ENDCHAR
STARTCHAR gcaron
ENCODING 487
SWIDTH 600 0
DWIDTH 15 0
BBX 12 20 2 -5
BITMAP
18C0
0D80
0700
0000
0F30
30A0
6040
4040
8040
8040
8080
8080
8180
4280
3C80
0100
0100
0200
0600
F800
ENDCHAR
STARTCHAR uni01E8
ENCODING 488
SWIDTH 600 0
DWIDTH 15 0
BBX 14 18 1 0
BITMAP
0C60
06C0
0380
0000
1F3C
0410
0420
0840
0880
0900
0E00
1900
1080
1040
2040
2020
2020
FC38
ENDCHAR
STARTCHAR uni01E9
ENCODING 489
SWIDTH 600 0
DWIDTH 15 0
BBX 13 20 1 0
BITMAP
3180
1B00
0E00
0000
1C00
0400
0400
0400
0800
08F8
0860
0980
1600
1C00
1400
1200
2100
2080
2040
E0F0
ENDCHAR
STARTCHAR uni01EA
ENCODING 490
SWIDTH 600 0
DWIDTH 15 0
BBX 13 18 2 -4
BITMAP
07C0
1830
3010
2008
4008
4008
8008
8008
8010
8010
8020
4060
60C0
1F00
0400
0800
0900
0600
ENDCHAR
STARTCHAR uni01EB
ENCODING 491
SWIDTH 600 0
DWIDTH 15 0
BBX 11 15 2 -4
BITMAP
0F80
3040
6020
4020
8020
8020
8020
8040
80C0
4180
3E00
0800
1000
1200
0C00
ENDCHAR
STARTCHAR uni01EC
ENCODING 492
SWIDTH 600 0
DWIDTH 15 0
BBX 13 20 2 -4
BITMAP
0FC0
0000
07C0
1830
3010
2008
4008
4008
8008
8008
8010
8010
8020
4060
60C0
1F00
0400
0800
0900
0600
ENDCHAR
STARTCHAR uni01ED
ENCODING 493
SWIDTH 600 0
DWIDTH 15 0
BBX 11 17 2 -4
BITMAP
1F80
0000
0F80
3040
6020
4020
8020
8020
8020
8040
80C0
4180
3E00
0800
1000
1200
0C00
ENDCHAR
STARTCHAR uni01F0
ENCODING 496
SWIDTH 600 0
DWIDTH 15 0
BBX 10 20 3 -5
BITMAP
18C0
0D80
0700
0000
1FC0
0040
0040
0080
0080
0080
0080
0100
0100
0100
0100
0100
0200
0200
0C00
F000
ENDCHAR
STARTCHAR uni01F4
ENCODING 500
SWIDTH 600 0
DWIDTH 15 0
BBX 13 19 2 0
BITMAP
0060
00C0
0180
0300
0000
07C8
1838
3010
2010
4000
4000
8000
8000
83F0
8020
8020
4060
60C0
1F00
ENDCHAR
STARTCHAR uni01F5
ENCODING 501
SWIDTH 600 0
DWIDTH 15 0
BBX 12 21 2 -5
BITMAP
0180
0300
0600
0C00
0000
0F30
30A0
6040
4040
8040
8040
8080
8080
8180
4280
3C80
0100
0100
0200
0600
F800
ENDCHAR
STARTCHAR uni01F8
ENCODING 504
SWIDTH 600 0
DWIDTH 15 0
BBX 16 19 1 0
BITMAP
0300
0180
00C0
0060
0000
1F1F
0404
0404
0A08
0A08
0A08
0908
1110
1110
1090
20A0
20A0
2060
F860
ENDCHAR
STARTCHAR uni01F9
ENCODING 505
SWIDTH 600 0
DWIDTH 15 0
BBX 12 16 1 0
BITMAP
1800
0C00
0600
0300
0000
39E0
0A10
0C10
0810
1020
1020
1020
2040
2040
2040
F9F0
ENDCHAR
STARTCHAR Aringacute
ENCODING 506
SWIDTH 600 0
DWIDTH 15 0
BBX 13 24 1 0
BITMAP
0060
00C0
0180
0300
0000
0180
0240
0240
0180
0000
0780
0180
0280
0240
0440
0440
0820
0820
0FE0
1020
1010
2010
2010
F878
ENDCHAR
STARTCHAR aringacute
ENCODING 507
SWIDTH 600 0
DWIDTH 15 0
BBX 10 21 2 0
BITMAP
00C0
0180
0300
0600
0000
0300
0480
0480
0300
0000
0F80
3040
0040
0040
1FC0
6080
4080
8100
8300
8500
79C0
ENDCHAR
STARTCHAR AEacute
ENCODING 508
SWIDTH 600 0
DWIDTH 15 0
BBX 18 19 -1 0
BITMAP
000C00
001800
003000
006000
000000
01FFC0
009040
011080
012080
022200
022200
043C00
044400
0FC400
084000
108100
108100
208200
FBFE00
ENDCHAR
STARTCHAR aeacute
ENCODING 509
SWIDTH 600 0
DWIDTH 15 0
BBX 15 16 0 0
BITMAP
0060
00C0
0180
0300
0000
0E38
3144
2082
0082
0102
3FFE
4100
8100
8100
828C
7C70
ENDCHAR
STARTCHAR Oslashacute
ENCODING 510
SWIDTH 600 0
DWIDTH 15 0
BBX 15 20 1 -1
BITMAP
0030
0060
00C0
0180
0000
03E2
0C1C
1808
1014
2024
2044
4084
4104
4208
4408
4810
3030
3060
4F80
8000
ENDCHAR
STARTCHAR oslashacute
ENCODING 511
SWIDTH 600 0
DWIDTH 15 0
BBX 13 18 1 -1
BITMAP
00C0
0180
0300
0600
0000
0008
07D0
1820
3050
2090
4110
4210
4410
4820
5060
20C0
5F00
8000
ENDCHAR
STARTCHAR Scommaaccent
ENCODING 536
SWIDTH 600 0
DWIDTH 15 0
BBX 12 21 2 -7
BITMAP
0390
0C70
0820
1020
1000
1000
0E00
0180
0040
0040
4040
4080
E180
9E00
0000
0E00
0E00
1C00
1800
3000
2000
ENDCHAR
STARTCHAR scommaaccent
ENCODING 537
SWIDTH 600 0
DWIDTH 15 0
BBX 11 18 2 -7
BITMAP
0FA0
1060
2020
2000
1000
0F00
0080
0040
8040
C080
BF00
0000
0E00
0E00
1C00
1800
3000
2000
ENDCHAR
STARTCHAR Tcommaaccent
ENCODING 538
SWIDTH 600 0
DWIDTH 15 0
BBX 12 21 4 -7
BITMAP
7FF0
4210
4210
8420
8420
0400
0400
0800
0800
0800
1000
1000
1000
FE00
0000
1C00
1C00
3800
3000
6000
4000
ENDCHAR
STARTCHAR tcommaaccent
ENCODING 539
SWIDTH 600 0
DWIDTH 15 0
BBX 9 22 3 -7
BITMAP
1000
1000
1000
1000
FF80
2000
2000
2000
2000
4000
4000
4000
4000
2180
1E00
0000
1C00
1C00
3800
3000
6000
4000
ENDCHAR
STARTCHAR uni021E
ENCODING 542
SWIDTH 600 0
DWIDTH 15 0
BBX 15 18 1 0
BITMAP
0630
0360
01C0
0000
1F3E
0408
0408
0810
0810
0810
0FF0
1020
1020
1020
2040
2040
2040
F9F0
ENDCHAR
STARTCHAR uni021F
ENCODING 543
SWIDTH 600 0
DWIDTH 15 0
BBX 12 20 1 0
BITMAP
3180
1B00
0E00
0000
1C00
0400
0400
0400
0800
09E0
0A10
0C10
1010
1020
1020
1020
2040
2040
2040
F9F0
ENDCHAR
STARTCHAR uni0226
ENCODING 550
SWIDTH 600 0
DWIDTH 15 0
BBX 13 17 1 0
BITMAP
0300
0300
0000
0780
0180
0280
0240
0440
0440
0820
0820
0FE0
1020
1010
2010
2010
F878
ENDCHAR
STARTCHAR uni0227
ENCODING 551
SWIDTH 600 0
DWIDTH 15 0
BBX 10 14 2 0
BITMAP
0600
0600
0000
0F80
3040
0040
0040
1FC0
6080
4080
8100
8300
8500
79C0
ENDCHAR
STARTCHAR uni0228
ENCODING 552
SWIDTH 600 0
DWIDTH 15 0
BBX 14 18 1 -4
BITMAP
1FFC
0404
0408
0808
0880
0880
0F00
1100
1100
1000
2010
2010
2020
FFE0
0200
0100
0900
0E00
ENDCHAR
STARTCHAR uni0229
ENCODING 553
SWIDTH 600 0
DWIDTH 15 0
BBX 11 15 2 -4
BITMAP
0F80
3040
6020
4020
8020
FFE0
8000
8000
8000
4180
3E00
0400
0200
1200
1C00
ENDCHAR
STARTCHAR uni022A
ENCODING 554
SWIDTH 600 0
DWIDTH 15 0
BBX 13 19 2 0
BITMAP
0FC0
0000
0C60
0C60
0000
07C0
1830
3010
2008
4008
4008
8008
8008
8010
8010
8020
4060
60C0
1F00
ENDCHAR
STARTCHAR uni022B
ENCODING 555
SWIDTH 600 0
DWIDTH 15 0
BBX 11 16 2 0
BITMAP
1F80
0000
18C0
18C0
0000
0F80
3040
6020
4020
8020
8020
8020
8040
80C0
4180
3E00
ENDCHAR
STARTCHAR uni022C
ENCODING 556
SWIDTH 600 0
DWIDTH 15 0
BBX 13 20 2 0
BITMAP
07E0
0000
0308
0490
0860
0000
07C0
1830
3010
2008
4008
4008
8008
8008
8010
8010
8020
4060
60C0
1F00
ENDCHAR
STARTCHAR uni022D
ENCODING 557
SWIDTH 600 0
DWIDTH 15 0
BBX 11 16 2 0
BITMAP
1F80
0000
0E20
11C0
0000
0F80
3040
6020
4020
8020
8020
8020
8040
80C0
4180
3E00
ENDCHAR
STARTCHAR uni022E
ENCODING 558
SWIDTH 600 0
DWIDTH 15 0
BBX 13 17 2 0
BITMAP
0300
0300
0000
07C0
1830
3010
2008
4008
4008
8008
8008
8010
8010
8020
4060
60C0
1F00
ENDCHAR
STARTCHAR uni022F
ENCODING 559
SWIDTH 600 0
DWIDTH 15 0
BBX 11 14 2 0
BITMAP
0600
0600
0000
0F80
3040
6020
4020
8020
8020
8020
8040
80C0
4180
3E00
ENDCHAR
STARTCHAR uni0230
ENCODING 560
SWIDTH 600 0
DWIDTH 15 0
BBX 13 19 2 0
BITMAP
0FC0
0000
0300
0300
0000
07C0
1830
3010
2008
4008
4008
8008
8008
8010
8010
8020
4060
60C0
1F00
ENDCHAR
STARTCHAR uni0231
ENCODING 561
SWIDTH 600 0
DWIDTH 15 0
BBX 11 16 2 0
BITMAP
1F80
0000
0600
0600
0000
0F80
3040
6020
4020
8020
8020
8020
8040
80C0
4180
3E00
ENDCHAR
STARTCHAR uni0232
ENCODING 562
SWIDTH 600 0
DWIDTH 15 0
BBX 13 16 4 0
BITMAP
1F80
0000
F078
2020
2040
1080
1100
0A00
0C00
0800
0800
0800
1000
1000
1000
FE00
ENDCHAR
STARTCHAR uni0233
ENCODING 563
SWIDTH 600 0
DWIDTH 15 0
BBX 14 18 1 -5
BITMAP
07E0
0000
1E1C
0808
0808
0810
0420
0420
0440
0440
0280
0300
0300
0200
0400
0800
1000
FE00
ENDCHAR
STARTCHAR uni0250
ENCODING 592
SWIDTH 600 0
DWIDTH 15 0
BBX 10 11 2 0
BITMAP
E780
2840
3040
2040
4080
4180
FE00
8000
8000
8300
7C00
ENDCHAR
STARTCHAR uni0259
ENCODING 601
SWIDTH 600 0
DWIDTH 15 0
BBX 11 11 2 0
BITMAP
0F80
3040
0020
0020
0020
FFE0
8020
8040
80C0
4180
3E00
ENDCHAR
STARTCHAR uni025F
ENCODING 607
SWIDTH 600 0
DWIDTH 15 0
BBX 13 16 2 -5
BITMAP
0FF8
0040
0040
0040
0080
0080
0080
0100
0100
0100
3FE0
0200
0200
0200
0400
F800
ENDCHAR
STARTCHAR uni0265
ENCODING 613
SWIDTH 600 0
DWIDTH 15 0
BBX 12 16 1 -5
BITMAP
F9F0
2040
2040
2040
4080
4080
4080
8080
8300
8500
7900
0100
0200
0200
0200
0380
ENDCHAR
STARTCHAR uni0275
ENCODING 629
SWIDTH 600 0
DWIDTH 15 0
BBX 11 11 2 0
BITMAP
0F80
3040
6020
4020
8020
FFE0
8020
8040
80C0
4180
3E00
ENDCHAR
STARTCHAR uni0279
ENCODING 633
SWIDTH 600 0
DWIDTH 15 0
BBX 13 11 2 0
BITMAP
0FF8
0040
0040
0040
0080
0080
0080
0080
0300
8D00
71C0
ENDCHAR
STARTCHAR uni0287
ENCODING 647
SWIDTH 600 0
DWIDTH 15 0
BBX 9 15 3 0
BITMAP
3C00
C200
0100
0100
0100
0100
0200
0200
0200
0200
FF80
0400
0400
0400
0400
ENDCHAR
STARTCHAR uni0289
ENCODING 649
SWIDTH 600 0
DWIDTH 15 0
BBX 10 11 3 0
BITMAP
E1C0
2040
2040
4040
4080
FFC0
8080
8100
8300
4500
39C0
ENDCHAR
STARTCHAR uni028C
ENCODING 652
SWIDTH 600 0
DWIDTH 15 0
BBX 13 11 3 0
BITMAP
0180
0180
0280
0440
0440
0840
0840
1020
1020
2020
F8F8
ENDCHAR
STARTCHAR uni028D
ENCODING 653
SWIDTH 600 0
DWIDTH 15 0
BBX 13 11 2 0
BITMAP
0630
0630
0A50
0A50
1290
1290
2310
2310
4010
4010
F078
ENDCHAR
STARTCHAR uni028E
ENCODING 654
SWIDTH 600 0
DWIDTH 15 0
BBX 14 16 1 0
BITMAP
01FC
0020
0040
0080
0100
0300
0300
0500
0880
0880
1080
1080
2040
4040
4040
E1E0
ENDCHAR
STARTCHAR uni029E
ENCODING 670
SWIDTH 600 0
DWIDTH 15 0
BBX 13 16 1 -5
BITMAP
7838
1020
0820
0420
0240
0140
01C0
0340
0C80
3080
F880
0080
0100
0100
0100
01C0
ENDCHAR
STARTCHAR uni02BB
ENCODING 699
SWIDTH 600 0
DWIDTH 15 0
BBX 3 7 9 8
BITMAP
E0
E0
60
60
60
20
20
ENDCHAR
STARTCHAR afii57929
ENCODING 700
SWIDTH 600 0
DWIDTH 15 0
BBX 5 7 5 8
BITMAP
18
38
30
70
60
C0
80
ENDCHAR
STARTCHAR afii64937
ENCODING 701
SWIDTH 600 0
DWIDTH 15 0
BBX 5 7 5 8
BITMAP
C0
E0
60
70
30
18
08
ENDCHAR
STARTCHAR circumflex
ENCODING 710
SWIDTH 600 0
DWIDTH 15 0
BBX 7 3 6 12
BITMAP
38
6C
C6
ENDCHAR
STARTCHAR caron
ENCODING 711
SWIDTH 600 0
DWIDTH 15 0
BBX 7 3 6 12
BITMAP
C6
6C
38
ENDCHAR
STARTCHAR uni02C8
ENCODING 712
SWIDTH 600 0
DWIDTH 15 0
BBX 3 7 9 8
BITMAP
E0
E0
C0
C0
C0
80
80
ENDCHAR
STARTCHAR macron
ENCODING 713
SWIDTH 600 0
DWIDTH 15 0
BBX 6 1 6 12
BITMAP
FC
ENDCHAR
STARTCHAR uni02CA
ENCODING 714
SWIDTH 600 0
DWIDTH 15 0
BBX 5 4 9 12
BITMAP
18
30
60
C0
ENDCHAR
STARTCHAR uni02CB
ENCODING 715
SWIDTH 600 0
DWIDTH 15 0
BBX 5 4 6 12
BITMAP
C0
60
30
18
ENDCHAR
STARTCHAR uni02CD
ENCODING 717
SWIDTH 600 0
DWIDTH 15 0
BBX 6 1 6 -2
BITMAP
FC
ENDCHAR
STARTCHAR uni02CE
ENCODING 718
SWIDTH 600 0
DWIDTH 15 0
BBX 5 4 6 -5
BITMAP
C0
60
30
18
ENDCHAR
STARTCHAR uni02CF
ENCODING 719
SWIDTH 600 0
DWIDTH 15 0
BBX 5 4 9 -5
BITMAP
18
30
60
C0
ENDCHAR
STARTCHAR breve
ENCODING 728
SWIDTH 600 0
DWIDTH 15 0
BBX 7 3 6 12
BITMAP
82
C6
7C
ENDCHAR
STARTCHAR dotaccent
ENCODING 729
SWIDTH 600 0
DWIDTH 15 0
BBX 2 2 9 12
BITMAP
C0
C0
ENDCHAR
STARTCHAR ring
ENCODING 730
SWIDTH 600 0
DWIDTH 15 0
BBX 5 5 7 11
BITMAP
30
48
88
90
60
ENDCHAR
STARTCHAR ogonek
ENCODING 731
SWIDTH 600 0
DWIDTH 15 0
BBX 4 5 6 -4
BITMAP
20
40
80
90
60
ENDCHAR
STARTCHAR tilde
ENCODING 732
SWIDTH 600 0
DWIDTH 15 0
BBX 7 2 5 12
BITMAP
72
9C
ENDCHAR
STARTCHAR hungarumlaut
ENCODING 733
SWIDTH 600 0
DWIDTH 15 0
BBX 9 4 5 12
BITMAP
1980
3300
6600
CC00
ENDCHAR
STARTCHAR uni02EE
ENCODING 750
SWIDTH 600 0
DWIDTH 15 0
BBX 9 7 5 8
BITMAP
1980
3B80
3300
7700
6600
CC00
8800
ENDCHAR
STARTCHAR uni037E
ENCODING 894
SWIDTH 600 0
DWIDTH 15 0
BBX 8 13 3 -3
BITMAP
07
0F
0E
00
00
00
00
38
38
70
60
C0
80
ENDCHAR
STARTCHAR tonos
ENCODING 900
SWIDTH 600 0
DWIDTH 15 0
BBX 5 4 9 12
BITMAP
18
30
60
C0
ENDCHAR
STARTCHAR dieresistonos
ENCODING 901
SWIDTH 600 0
DWIDTH 15 0
BBX 7 7 7 12
BITMAP
06
0C
18
30
00
C6
C6
ENDCHAR
STARTCHAR anoteleia
ENCODING 903
SWIDTH 600 0
DWIDTH 15 0
BBX 4 3 7 6
BITMAP
70
F0
E0
ENDCHAR
STARTCHAR mu
ENCODING 956
SWIDTH 600 0
DWIDTH 15 0
BBX 12 16 1 -5
BITMAP
3870
0810
0810
1010
1020
1020
2020
2040
20C0
3140
4E70
4000
4000
8000
8000
8000
ENDCHAR
STARTCHAR uni1E00
ENCODING 7680
SWIDTH 600 0
DWIDTH 15 0
BBX 13 20 1 -6
BITMAP
0780
0180
0280
0240
0440
0440
0820
0820
0FE0
1020
1010
2010
2010
F878
0000
0300
0480
0880
0900
0600
ENDCHAR
STARTCHAR uni1E01
ENCODING 7681
SWIDTH 600 0
DWIDTH 15 0
BBX 10 17 2 -6
BITMAP
0F80
3040
0040
0040
1FC0
6080
4080
8100
8300
8500
79C0
0000
0C00
1200
2200
2400
1800
ENDCHAR
STARTCHAR uni1E02
ENCODING 7682
SWIDTH 600 0
DWIDTH 15 0
BBX 13 17 1 0
BITMAP
0300
0300
0000
1FE0
0410
0408
0808
0808
0830
0FC0
1030
1008
1008
2008
2010
2030
FFC0
ENDCHAR
STARTCHAR uni1E03
ENCODING 7683
SWIDTH 600 0
DWIDTH 15 0
BBX 13 19 1 0
BITMAP
0C00
0C00
0000
1C00
0400
0400
0400
0800
09E0
0A10
0C08
1008
1008
1008
1008
2010
3030
2860
E780
ENDCHAR
STARTCHAR uni1E04
ENCODING 7684
SWIDTH 600 0
DWIDTH 15 0
BBX 13 17 1 -3
BITMAP
1FE0
0410
0408
0808
0808
0830
0FC0
1030
1008
1008
2008
2010
2030
FFC0
0000
0600
0600
ENDCHAR
STARTCHAR uni1E05
ENCODING 7685
SWIDTH 600 0
DWIDTH 15 0
BBX 13 19 1 -3
BITMAP
1C00
0400
0400
0400
0800
09E0
0A10
0C08
1008
1008
1008
1008
2010
3030
2860
E780
0000
0600
0600
ENDCHAR
STARTCHAR uni1E06
ENCODING 7686
SWIDTH 600 0
DWIDTH 15 0
BBX 13 16 1 -2
BITMAP
1FE0
0410
0408
0808
0808
0830
0FC0
1030
1008
1008
2008
2010
2030
FFC0
0000
1F80
ENDCHAR
STARTCHAR uni1E07
ENCODING 7687
SWIDTH 600 0
DWIDTH 15 0
BBX 13 18 1 -2
BITMAP
1C00
0400
0400
0400
0800
09E0
0A10
0C08
1008
1008
1008
1008
2010
3030
2860
E780
0000
1F80
ENDCHAR
STARTCHAR uni1E08
ENCODING 7688
SWIDTH 600 0
DWIDTH 15 0
BBX 13 23 2 -4
BITMAP
00C0
0180
0300
0600
0000
07C8
1838
3010
2010
4000
4000
8000
8000
8000
8000
8000
4060
60C0
1F00
1000
0800
4800
7000
ENDCHAR
STARTCHAR uni1E09
ENCODING 7689
SWIDTH 600 0
DWIDTH 15 0
BBX 11 20 2 -4
BITMAP
0180
0300
0600
0C00
0000
0FA0
3060
6040
4040
8000
8000
8000
8000
80C0
4180
3E00
2000
1000
9000
E000
ENDCHAR
STARTCHAR uni1E0A
ENCODING 7690
SWIDTH 600 0
DWIDTH 15 0
BBX 13 17 1 0
BITMAP
0300
0300
0000
1FE0
0410
0408
0808
0808
0808
0808
1008
1010
1010
2020
2020
20C0
FF00
ENDCHAR
STARTCHAR uni1E0B
ENCODING 7691
SWIDTH 600 0
DWIDTH 15 0
BBX 13 19 1 0
BITMAP
0060
0060
0000
0038
0008
0008
0010
0010
0F90
3050
6020
4020
8020
8020
8040
8040
80C0
4340
3C70
ENDCHAR
STARTCHAR uni1E0C
ENCODING 7692
SWIDTH 600 0
DWIDTH 15 0
BBX 13 17 1 -3
BITMAP
1FE0
0410
0408
0808
0808
0808
0808
1008
1010
1010
2020
2020
20C0
FF00
0000
0600
0600
ENDCHAR
STARTCHAR uni1E0D
ENCODING 7693
SWIDTH 600 0
DWIDTH 15 0
BBX 13 19 1 -3
BITMAP
0038
0008
0008
0010
0010
0F90
3050
6020
4020
8020
8020
8040
8040
80C0
4340
3C70
0000
0600
0600
ENDCHAR
STARTCHAR uni1E0E
ENCODING 7694
SWIDTH 600 0
DWIDTH 15 0
BBX 13 16 1 -2
BITMAP
1FE0
0410
0408
0808
0808
0808
0808
1008
1010
1010
2020
2020
20C0
FF00
0000
1F80
ENDCHAR
STARTCHAR uni1E0F
ENCODING 7695
SWIDTH 600 0
DWIDTH 15 0
BBX 13 18 1 -2
BITMAP
0038
0008
0008
0010
0010
0F90
3050
6020
4020
8020
8020
8040
8040
80C0
4340
3C70
0000
1F80
ENDCHAR
STARTCHAR uni1E10
ENCODING 7696
SWIDTH 600 0
DWIDTH 15 0
BBX 13 18 1 -4
BITMAP
1FE0
0410
0408
0808
0808
0808
0808
1008
1010
1010
2020
2020
20C0
FF00
0400
0200
1200
1C00
ENDCHAR
STARTCHAR uni1E11
ENCODING 7697
SWIDTH 600 0
DWIDTH 15 0
BBX 13 20 1 -4
BITMAP
0038
0008
0008
0010
0010
0F90
3050
6020
4020
8020
8020
8040
8040
80C0
4340
3E70
0200
0100
0900
0E00
ENDCHAR
STARTCHAR uni1E12
ENCODING 7698
SWIDTH 600 0
DWIDTH 15 0
BBX 13 18 1 -4
BITMAP
1FE0
0410
0408
0808
0808
0808
0808
1008
1010
1010
2020
2020
20C0
FF00
0000
0E00
1B00
3180
ENDCHAR
STARTCHAR uni1E13
ENCODING 7699
SWIDTH 600 0
DWIDTH 15 0
BBX 13 20 1 -4
BITMAP
0038
0008
0008
0010
0010
0F90
3050
6020
4020
8020
8020
8040
8040
80C0
4340
3C70
0000
0700
0D80
18C0
ENDCHAR
STARTCHAR uni1E14
ENCODING 7700
SWIDTH 600 0
DWIDTH 15 0
BBX 14 21 1 0
BITMAP
0600
0300
0180
00C0
0000
07E0
0000
1FFC
0404
0408
0808
0880
0880
0F00
1100
1100
1000
2010
2010
2020
FFE0
ENDCHAR
STARTCHAR uni1E15
ENCODING 7701
SWIDTH 600 0
DWIDTH 15 0
BBX 11 18 2 0
BITMAP
1800
0C00
0600
0300
0000
1F80
0000
0F80
3040
6020
4020
8020
FFE0
8000
8000
8000
4180
3E00
ENDCHAR
STARTCHAR uni1E16
ENCODING 7702
SWIDTH 600 0
DWIDTH 15 0
BBX 14 21 1 0
BITMAP
0060
00C0
0180
0300
0000
07E0
0000
1FFC
0404
0408
0808
0880
0880
0F00
1100
1100
1000
2010
2010
2020
FFE0
ENDCHAR
STARTCHAR uni1E17
ENCODING 7703
SWIDTH 600 0
DWIDTH 15 0
BBX 11 18 2 0
BITMAP
0180
0300
0600
0C00
0000
1F80
0000
0F80
3040
6020
4020
8020
FFE0
8000
8000
8000
4180
3E00
ENDCHAR
STARTCHAR uni1E18
ENCODING 7704
SWIDTH 600 0
DWIDTH 15 0
BBX 14 18 1 -4
BITMAP
1FFC
0404
0408
0808
0880
0880
0F00
1100
1100
1000
2010
2010
2020
FFE0
0000
0700
0D80
18C0
ENDCHAR
STARTCHAR uni1E19
ENCODING 7705
SWIDTH 600 0
DWIDTH 15 0
BBX 11 15 2 -4
BITMAP
0F80
3040
6020
4020
8020
FFE0
8000
8000
8000
4180
3E00
0000
1C00
3600
6300
ENDCHAR
STARTCHAR uni1E1A
ENCODING 7706
SWIDTH 600 0
DWIDTH 15 0
BBX 14 17 1 -3
BITMAP
1FFC
0404
0408
0808
0880
0880
0F00
1100
1100
1000
2010
2010
2020
FFE0
0000
0E40
1380
ENDCHAR
STARTCHAR uni1E1B
ENCODING 7707
SWIDTH 600 0
DWIDTH 15 0
BBX 11 14 2 -3
BITMAP
0F80
3040
6020
4020
8020
FFE0
8000
8000
8000
4180
3E00
0000
3900
4E00
ENDCHAR
STARTCHAR uni1E1C
ENCODING 7708
SWIDTH 600 0
DWIDTH 15 0
BBX 14 22 1 -4
BITMAP
0820
0C60
07C0
0000
1FFC
0404
0408
0808
0880
0880
0F00
1100
1100
1000
2010
2010
2020
FFE0
0200
0100
0900
0E00
ENDCHAR
STARTCHAR uni1E1D
ENCODING 7709
SWIDTH 600 0
DWIDTH 15 0
BBX 11 19 2 -4
BITMAP
2080
3180
1F00
0000
0F80
3040
6020
4020
8020
FFE0
8000
8000
8000
4180
3E00
0400
0200
1200
1C00
ENDCHAR
STARTCHAR uni1E1E
ENCODING 7710
SWIDTH 600 0
DWIDTH 15 0
BBX 14 17 1 0
BITMAP
0180
0180
0000
1FFC
0404
0408
0808
0880
0880
0F00
1100
1100
1000
2000
2000
2000
FE00
ENDCHAR
STARTCHAR uni1E1F
ENCODING 7711
SWIDTH 600 0
DWIDTH 15 0
BBX 13 19 2 0
BITMAP
0180
0180
0000
00F8
0100
0200
0200
0200
3FE0
0400
0400
0400
0800
0800
0800
1000
1000
1000
FF80
ENDCHAR
STARTCHAR uni1E20
ENCODING 7712
SWIDTH 600 0
DWIDTH 15 0
BBX 13 16 2 0
BITMAP
0FC0
0000
07C8
1838
3010
2010
4000
4000
8000
8000
83F0
8020
8020
4060
60C0
1F00
ENDCHAR
STARTCHAR uni1E21
ENCODING 7713
SWIDTH 600 0
DWIDTH 15 0
BBX 12 18 2 -5
BITMAP
1F80
0000
0F30
30A0
6040
4040
8040
8040
8080
8080
8180
4280
3C80
0100
0100
0200
0600
F800
ENDCHAR
STARTCHAR uni1E22
ENCODING 7714
SWIDTH 600 0
DWIDTH 15 0
BBX 15 17 1 0
BITMAP
0180
0180
0000
1F3E
0408
0408
0810
0810
0810
0FF0
1020
1020
1020
2040
2040
2040
F9F0
ENDCHAR
STARTCHAR uni1E23
ENCODING 7715
SWIDTH 600 0
DWIDTH 15 0
BBX 12 19 1 0
BITMAP
0C00
0C00
0000
1C00
0400
0400
0400
0800
09E0
0A10
0C10
1010
1020
1020
1020
2040
2040
2040
F9F0
ENDCHAR
STARTCHAR uni1E24
ENCODING 7716
SWIDTH 600 0
DWIDTH 15 0
BBX 15 17 1 -3
BITMAP
1F3E
0408
0408
0810
0810
0810
0FF0
1020
1020
1020
2040
2040
2040
F9F0
0000
0300
0300
ENDCHAR
STARTCHAR uni1E25
ENCODING 7717
SWIDTH 600 0
DWIDTH 15 0
BBX 12 19 1 -3
BITMAP
1C00
0400
0400
0400
0800
09E0
0A10
0C10
1010
1020
1020
1020
2040
2040
2040
F9F0
0000
0600
0600
ENDCHAR
STARTCHAR uni1E26
ENCODING 7718
SWIDTH 600 0
DWIDTH 15 0
BBX 15 17 1 0
BITMAP
0630
0630
0000
1F3E
0408
0408
0810
0810
0810
0FF0
1020
1020
1020
2040
2040
2040
F9F0
ENDCHAR
STARTCHAR uni1E27
ENCODING 7719
SWIDTH 600 0
DWIDTH 15 0
BBX 12 19 1 0
BITMAP
3180
3180
0000
1C00
0400
0400
0400
0800
09E0
0A10
0C10
1010
1020
1020
1020
2040
2040
2040
F9F0
ENDCHAR
STARTCHAR uni1E28
ENCODING 7720
SWIDTH 600 0
DWIDTH 15 0
BBX 15 18 1 -4
BITMAP
1F3E
0408
0408
0810
0810
0810
0FF0
1020
1020
1020
2040
2040
2040
FBF0
0200
0100
0900
0E00
ENDCHAR
STARTCHAR uni1E29
ENCODING 7721
SWIDTH 600 0
DWIDTH 15 0
BBX 12 20 1 -4
BITMAP
1C00
0400
0400
0400
0800
09E0
0A10
0C10
1010
1020
1020
1020
2040
2040
2040
FBF0
0200
0100
0900
0E00
ENDCHAR
STARTCHAR uni1E2A
ENCODING 7722
SWIDTH 600 0
DWIDTH 15 0
BBX 15 18 1 -4
BITMAP
1F3E
0408
0408
0810
0810
0810
0FF0
1020
1020
1020
2040
2040
2040
F9F0
0000
1040
18C0
0F80
ENDCHAR
STARTCHAR uni1E2B
ENCODING 7723
SWIDTH 600 0
DWIDTH 15 0
BBX 12 20 1 -4
BITMAP
1C00
0400
0400
0400
0800
09E0
0A10
0C10
1010
1020
1020
1020
2040
2040
2040
F9F0
0000
1040
18C0
0F80
ENDCHAR
STARTCHAR uni1E2C
ENCODING 7724
SWIDTH 600 0
DWIDTH 15 0
BBX 12 17 3 -3
BITMAP
1FF0
0100
0100
0200
0200
0200
0200
0400
0400
0400
0800
0800
0800
FF80
0000
1C80
2700
ENDCHAR
STARTCHAR uni1E2D
ENCODING 7725
SWIDTH 600 0
DWIDTH 15 0
BBX 10 19 3 -3
BITMAP
0300
0300
0300
0000
0000
1E00
0200
0200
0400
0400
0400
0400
0800
0800
0800
FFC0
0000
3900
4E00
ENDCHAR
STARTCHAR uni1E2E
ENCODING 7726
SWIDTH 600 0
DWIDTH 15 0
BBX 12 22 3 0
BITMAP
00C0
0180
0300
0600
0000
0C30
0C30
0000
1FF0
0100
0100
0200
0200
0200
0200
0400
0400
0400
0800
0800
0800
FF80
ENDCHAR
STARTCHAR uni1E2F
ENCODING 7727
SWIDTH 600 0
DWIDTH 15 0
BBX 10 19 3 0
BITMAP
0180
0300
0600
0C00
0000
18C0
18C0
0000
1E00
0200
0200
0400
0400
0400
0400
0800
0800
0800
FFC0
ENDCHAR
STARTCHAR uni1E30
ENCODING 7728
SWIDTH 600 0
DWIDTH 15 0
BBX 14 19 1 0
BITMAP
0060
00C0
0180
0300
0000
1F3C
0410
0420
0840
0880
0900
0E00
1900
1080
1040
2040
2020
2020
FC38
ENDCHAR
STARTCHAR uni1E31
ENCODING 7729
SWIDTH 600 0
DWIDTH 15 0
BBX 13 21 1 0
BITMAP
0180
0300
0600
0C00
0000
1C00
0400
0400
0400
0800
08F8
0860
0980
1600
1C00
1400
1200
2100
2080
2040
E0F0
ENDCHAR
STARTCHAR uni1E32
ENCODING 7730
SWIDTH 600 0
DWIDTH 15 0
BBX 14 17 1 -3
BITMAP
1F3C
0410
0420
0840
0880
0900
0E00
1900
1080
1040
2040
2020
2020
FC38
0000
0600
0600
ENDCHAR
STARTCHAR uni1E33
ENCODING 7731
SWIDTH 600 0
DWIDTH 15 0
BBX 13 19 1 -3
BITMAP
1C00
0400
0400
0400
0800
08F8
0860
0980
1600
1C00
1400
1200
2100
2080
2040
E0F0
0000
0600
0600
ENDCHAR
STARTCHAR uni1E34
ENCODING 7732
SWIDTH 600 0
DWIDTH 15 0
BBX 14 16 1 -2
BITMAP
1F3C
0410
0420
0840
0880
0900
0E00
1900
1080
1040
2040
2020
2020
FC38
0000
1F80
ENDCHAR
STARTCHAR uni1E35
ENCODING 7733
SWIDTH 600 0
DWIDTH 15 0
BBX 13 18 1 -2
BITMAP
1C00
0400
0400
0400
0800
08F8
0860
0980
1600
1C00
1400
1200
2100
2080
2040
E0F0
0000
1F80
ENDCHAR
STARTCHAR uni1E36
ENCODING 7734
SWIDTH 600 0
DWIDTH 15 0
BBX 13 17 1 -3
BITMAP
1FC0
0400
0400
0800
0800
0800
0800
1000
1008
1008
2008
2010
2010
FFF0
0000
0600
0600
ENDCHAR
STARTCHAR uni1E37
ENCODING 7735
SWIDTH 600 0
DWIDTH 15 0
BBX 10 19 3 -3
BITMAP
0F00
0100
0100
0100
0200
0200
0200
0200
0400
0400
0400
0400
0800
0800
0800
FFC0
0000
0C00
0C00
ENDCHAR
STARTCHAR uni1E38
ENCODING 7736
SWIDTH 600 0
DWIDTH 15 0
BBX 13 19 1 -3
BITMAP
1F80
0000
1FC0
0400
0400
0800
0800
0800
0800
1000
1008
1008
2008
2010
2010
FFF0
0000
0600
0600
ENDCHAR
STARTCHAR uni1E39
ENCODING 7737
SWIDTH 600 0
DWIDTH 15 0
BBX 10 21 3 -3
BITMAP
1F80
0000
0F00
0100
0100
0100
0200
0200
0200
0200
0400
0400
0400
0400
0800
0800
0800
FFC0
0000
0C00
0C00
ENDCHAR
STARTCHAR uni1E3A
ENCODING 7738
SWIDTH 600 0
DWIDTH 15 0
BBX 13 16 1 -2
BITMAP
1FC0
0400
0400
0800
0800
0800
0800
1000
1008
1008
2008
2010
2010
FFF0
0000
1F80
ENDCHAR
STARTCHAR uni1E3B
ENCODING 7739
SWIDTH 600 0
DWIDTH 15 0
BBX 10 18 3 -2
BITMAP
0F00
0100
0100
0100
0200
0200
0200
0200
0400
0400
0400
0400
0800
0800
0800
FFC0
0000
3F00
ENDCHAR
STARTCHAR uni1E3C
ENCODING 7740
SWIDTH 600 0
DWIDTH 15 0
BBX 13 18 1 -4
BITMAP
1FC0
0400
0400
0800
0800
0800
0800
1000
1008
1008
2008
2010
2010
FFF0
0000
0700
0D80
18C0
ENDCHAR
STARTCHAR uni1E3D
ENCODING 7741
SWIDTH 600 0
DWIDTH 15 0
BBX 10 20 3 -4
BITMAP
0F00
0100
0100
0100
0200
0200
0200
0200
0400
0400
0400
0400
0800
0800
0800
FFC0
0000
1C00
3600
6300
ENDCHAR
STARTCHAR uni1E3E
ENCODING 7742
SWIDTH 600 0
DWIDTH 15 0
BBX 16 19 1 0
BITMAP
0030
0060
00C0
0180
0000
1E07
0606
060A
0A14
0A14
0924
0924
1148
1088
1088
2010
2010
2010
F87C
ENDCHAR
STARTCHAR uni1E3F
ENCODING 7743
SWIDTH 600 0
DWIDTH 15 0
BBX 15 16 0 0
BITMAP
0060
00C0
0180
0300
0000
398C
0A52
0C62
0842
1084
1084
1084
2108
2108
2108
F9CE
ENDCHAR
STARTCHAR uni1E40
ENCODING 7744
SWIDTH 600 0
DWIDTH 15 0
BBX 16 17 1 0
BITMAP
00C0
00C0
0000
1E07
0606
060A
0A14
0A14
0924
0924
1148
1088
1088
2010
2010
2010
F87C
ENDCHAR
STARTCHAR uni1E41
ENCODING 7745
SWIDTH 600 0
DWIDTH 15 0
BBX 15 14 0 0
BITMAP
0180
0180
0000
398C
0A52
0C62
0842
1084
1084
1084
2108
2108
2108
F9CE
ENDCHAR
STARTCHAR uni1E42
ENCODING 7746
SWIDTH 600 0
DWIDTH 15 0
BBX 16 17 1 -3
BITMAP
1E07
0606
060A
0A14
0A14
0924
0924
1148
1088
1088
2010
2010
2010
F87C
0000
0300
0300
ENDCHAR
STARTCHAR uni1E43
ENCODING 7747
SWIDTH 600 0
DWIDTH 15 0
BBX 15 14 0 -3
BITMAP
398C
0A52
0C62
0842
1084
1084
1084
2108
2108
2108
F9CE
0000
0300
0300
ENDCHAR
STARTCHAR uni1E44
ENCODING 7748
SWIDTH 600 0
DWIDTH 15 0
BBX 16 17 1 0
BITMAP
00C0
00C0
0000
1F1F
0404
0404
0A08
0A08
0A08
0908
1110
1110
1090
20A0
20A0
2060
F860
ENDCHAR
STARTCHAR uni1E45
ENCODING 7749
SWIDTH 600 0
DWIDTH 15 0
BBX 12 14 1 0
BITMAP
0300
0300
0000
39E0
0A10
0C10
0810
1020
1020
1020
2040
2040
2040
F9F0
ENDCHAR
STARTCHAR uni1E46
ENCODING 7750
SWIDTH 600 0
DWIDTH 15 0
BBX 16 17 1 -3
BITMAP
1F1F
0404
0404
0A08
0A08
0A08
0908
1110
1110
1090
20A0
20A0
2060
F860
0000
0300
0300
ENDCHAR
STARTCHAR uni1E47
ENCODING 7751
SWIDTH 600 0
DWIDTH 15 0
BBX 12 14 1 -3
BITMAP
39E0
0A10
0C10
0810
1020
1020
1020
2040
2040
2040
F9F0
0000
0600
0600
ENDCHAR
STARTCHAR uni1E48
ENCODING 7752
SWIDTH 600 0
DWIDTH 15 0
BBX 16 16 1 -2
BITMAP
1F1F
0404
0404
0A08
0A08
0A08
0908
1110
1110
1090
20A0
20A0
2060
F860
0000
0FC0
ENDCHAR
STARTCHAR uni1E49
ENCODING 7753
SWIDTH 600 0
DWIDTH 15 0
BBX 12 13 1 -2
BITMAP
39E0
0A10
0C10
0810
1020
1020
1020
2040
2040
2040
F9F0
0000
1F80
ENDCHAR
STARTCHAR uni1E4A
ENCODING 7754
SWIDTH 600 0
DWIDTH 15 0
BBX 16 18 1 -4
BITMAP
1F1F
0404
0404
0A08
0A08
0A08
0908
1110
1110
1090
20A0
20A0
2060
F860
0000
0700
0D80
18C0
ENDCHAR
STARTCHAR uni1E4B
ENCODING 7755
SWIDTH 600 0
DWIDTH 15 0
BBX 12 15 1 -4
BITMAP
39E0
0A10
0C10
0810
1020
1020
1020
2040
2040
2040
F9F0
0000
0700
0D80
18C0
ENDCHAR
STARTCHAR uni1E4C
ENCODING 7756
SWIDTH 600 0
DWIDTH 15 0
BBX 13 23 2 0
BITMAP
0060
00C0
0180
0300
0000
0308
0490
0860
0000
07C0
1830
3010
2008
4008
4008
8008
8008
8010
8010
8020
4060
60C0
1F00
ENDCHAR
STARTCHAR uni1E4D
ENCODING 7757
SWIDTH 600 0
DWIDTH 15 0
BBX 11 19 2 0
BITMAP
00C0
0180
0300
0600
0000
0E20
11C0
0000
0F80
3040
6020
4020
8020
8020
8020
8040
80C0
4180
3E00
ENDCHAR
STARTCHAR uni1E4E
ENCODING 7758
SWIDTH 600 0
DWIDTH 15 0
BBX 13 21 2 0
BITMAP
0C60
0C60
0000
0308
0490
0860
0000
07C0
1830
3010
2008
4008
4008
8008
8008
8010
8010
8020
4060
60C0
1F00
ENDCHAR
STARTCHAR uni1E4F
ENCODING 7759
SWIDTH 600 0
DWIDTH 15 0
BBX 11 17 2 0
BITMAP
18C0
18C0
0000
0E20
11C0
0000
0F80
3040
6020
4020
8020
8020
8020
8040
80C0
4180
3E00
ENDCHAR
STARTCHAR uni1E50
ENCODING 7760
SWIDTH 600 0
DWIDTH 15 0
BBX 13 21 2 0
BITMAP
0C00
0600
0300
0180
0000
0FC0
0000
07C0
1830
3010
2008
4008
4008
8008
8008
8010
8010
8020
4060
60C0
1F00
ENDCHAR
STARTCHAR uni1E51
ENCODING 7761
SWIDTH 600 0
DWIDTH 15 0
BBX 11 18 2 0
BITMAP
1800
0C00
0600
0300
0000
1F80
0000
0F80
3040
6020
4020
8020
8020
8020
8040
80C0
4180
3E00
ENDCHAR
STARTCHAR uni1E52
ENCODING 7762
SWIDTH 600 0
DWIDTH 15 0
BBX 13 21 2 0
BITMAP
00C0
0180
0300
0600
0000
0FC0
0000
07C0
1830
3010
2008
4008
4008
8008
8008
8010
8010
8020
4060
60C0
1F00
ENDCHAR
STARTCHAR uni1E53
ENCODING 7763
SWIDTH 600 0
DWIDTH 15 0
BBX 11 18 2 0
BITMAP
0180
0300
0600
0C00
0000
1F80
0000
0F80
3040
6020
4020
8020
8020
8020
8040
80C0
4180
3E00
ENDCHAR
STARTCHAR uni1E54
ENCODING 7764
SWIDTH 600 0
DWIDTH 15 0
BBX 13 19 1 0
BITMAP
00C0
0180
0300
0600
0000
1FE0
0410
0408
0808
0808
0810
0830
1FC0
1000
1000
2000
2000
2000
FE00
ENDCHAR
STARTCHAR uni1E55
ENCODING 7765
SWIDTH 600 0
DWIDTH 15 0
BBX 15 21 -1 -5
BITMAP
0030
0060
00C0
0180
0000
1CF8
0504
0602
0402
0802
0802
0802
0804
140C
1218
11E0
1000
2000
2000
2000
FC00
ENDCHAR
STARTCHAR uni1E56
ENCODING 7766
SWIDTH 600 0
DWIDTH 15 0
BBX 13 17 1 0
BITMAP
0300
0300
0000
1FE0
0410
0408
0808
0808
0810
0830
1FC0
1000
1000
2000
2000
2000
FE00
ENDCHAR
STARTCHAR uni1E57
ENCODING 7767
SWIDTH 600 0
DWIDTH 15 0
BBX 15 19 -1 -5
BITMAP
0180
0180
0000
1CF8
0504
0602
0402
0802
0802
0802
0804
140C
1218
11E0
1000
2000
2000
2000
FC00
ENDCHAR
STARTCHAR uni1E58
ENCODING 7768
SWIDTH 600 0
DWIDTH 15 0
BBX 13 17 1 0
BITMAP
0300
0300
0000
1FE0
0410
0408
0808
0808
0810
0830
1FC0
1080
1040
2020
2020
2010
FC18
ENDCHAR
STARTCHAR uni1E59
ENCODING 7769
SWIDTH 600 0
DWIDTH 15 0
BBX 13 14 2 0
BITMAP
0300
0300
0000
1C70
0588
0600
0800
0800
0800
0800
1000
1000
1000
FF80
ENDCHAR
STARTCHAR uni1E5A
ENCODING 7770
SWIDTH 600 0
DWIDTH 15 0
BBX 13 17 1 -3
BITMAP
1FE0
0410
0408
0808
0808
0810
0830
1FC0
1080
1040
2020
2020
2010
FC18
0000
0600
0600
ENDCHAR
STARTCHAR uni1E5B
ENCODING 7771
SWIDTH 600 0
DWIDTH 15 0
BBX 13 14 2 -3
BITMAP
1C70
0588
0600
0800
0800
0800
0800
1000
1000
1000
FF80
0000
0C00
0C00
ENDCHAR
STARTCHAR uni1E5C
ENCODING 7772
SWIDTH 600 0
DWIDTH 15 0
BBX 13 19 1 -3
BITMAP
0FC0
0000
1FE0
0410
0408
0808
0808
0810
0830
1FC0
1080
1040
2020
2020
2010
FC18
0000
0600
0600
ENDCHAR
STARTCHAR uni1E5D
ENCODING 7773
SWIDTH 600 0
DWIDTH 15 0
BBX 13 16 2 -3
BITMAP
0FC0
0000
1C70
0588
0600
0800
0800
0800
0800
1000
1000
1000
FF80
0000
0C00
0C00
ENDCHAR
STARTCHAR uni1E5E
ENCODING 7774
SWIDTH 600 0
DWIDTH 15 0
BBX 13 16 1 -2
BITMAP
1FE0
0410
0408
0808
0808
0810
0830
1FC0
1080
1040
2020
2020
2010
FC18
0000
1F80
ENDCHAR
STARTCHAR uni1E5F
ENCODING 7775
SWIDTH 600 0
DWIDTH 15 0
BBX 13 13 2 -2
BITMAP
1C70
0588
0600
0800
0800
0800
0800
1000
1000
1000
FF80
0000
3F00
ENDCHAR
STARTCHAR uni1E60
ENCODING 7776
SWIDTH 600 0
DWIDTH 15 0
BBX 12 17 2 0
BITMAP
0300
0300
0000
0390
0C70
0820
1020
1000
1000
0E00
0180
0040
0040
4040
4080
E180
9E00
ENDCHAR
STARTCHAR uni1E61
ENCODING 7777
SWIDTH 600 0
DWIDTH 15 0
BBX 11 14 2 0
BITMAP
0300
0300
0000
0FA0
1060
2020
2000
1000
0F00
0080
0040
8040
C080
BF00
ENDCHAR
STARTCHAR uni1E62
ENCODING 7778
SWIDTH 600 0
DWIDTH 15 0
BBX 12 17 2 -3
BITMAP
0390
0C70
0820
1020
1000
1000
0E00
0180
0040
0040
4040
4080
E180
9E00
0000
0C00
0C00
ENDCHAR
STARTCHAR uni1E63
ENCODING 7779
SWIDTH 600 0
DWIDTH 15 0
BBX 11 14 2 -3
BITMAP
0FA0
1060
2020
2000
1000
0F00
0080
0040
8040
C080
BF00
0000
0C00
0C00
ENDCHAR
STARTCHAR uni1E64
ENCODING 7780
SWIDTH 600 0
DWIDTH 15 0
BBX 12 22 2 0
BITMAP
0180
0180
0000
0060
00C0
0180
0300
0000
0390
0C70
0820
1020
1000
1000
0E00
0180
0040
0040
4040
4080
E180
9E00
ENDCHAR
STARTCHAR uni1E65
ENCODING 7781
SWIDTH 600 0
DWIDTH 15 0
BBX 11 19 2 0
BITMAP
0300
0300
0000
00C0
0180
0300
0600
0000
0FA0
1060
2020
2000
1000
0F00
0080
0040
8040
C080
BF00
ENDCHAR
STARTCHAR uni1E66
ENCODING 7782
SWIDTH 600 0
DWIDTH 15 0
BBX 12 21 2 0
BITMAP
0180
0180
0000
0630
0360
01C0
0000
0390
0C70
0820
1020
1000
1000
0E00
0180
0040
0040
4040
4080
E180
9E00
ENDCHAR
STARTCHAR uni1E67
ENCODING 7783
SWIDTH 600 0
DWIDTH 15 0
BBX 11 18 2 0
BITMAP
0600
0600
0000
18C0
0D80
0700
0000
0FA0
1060
2020
2000
1000
0F00
0080
0040
8040
C080
BF00
ENDCHAR
STARTCHAR uni1E68
ENCODING 7784
SWIDTH 600 0
DWIDTH 15 0
BBX 12 20 2 -3
BITMAP
0300
0300
0000
0390
0C70
0820
1020
1000
1000
0E00
0180
0040
0040
4040
4080
E180
9E00
0000
0C00
0C00
ENDCHAR
STARTCHAR uni1E69
ENCODING 7785
SWIDTH 600 0
DWIDTH 15 0
BBX 11 17 2 -3
BITMAP
0600
0600
0000
0FA0
1060
2020
2000
1000
0F00
0080
0040
8040
C080
BF00
0000
0C00
0C00
ENDCHAR
STARTCHAR uni1E6A
ENCODING 7786
SWIDTH 600 0
DWIDTH 15 0
BBX 12 17 4 0
BITMAP
0600
0600
0000
7FF0
4210
4210
8420
8420
0400
0400
0800
0800
0800
1000
1000
1000
FE00
ENDCHAR
STARTCHAR uni1E6B
ENCODING 7787
SWIDTH 600 0
DWIDTH 15 0
BBX 9 18 3 0
BITMAP
1800
1800
0000
1000
1000
1000
1000
FF80
2000
2000
2000
2000
4000
4000
4000
4000
2180
1E00
ENDCHAR
STARTCHAR uni1E6C
ENCODING 7788
SWIDTH 600 0
DWIDTH 15 0
BBX 12 17 4 -3
BITMAP
7FF0
4210
4210
8420
8420
0400
0400
0800
0800
0800
1000
1000
1000
FE00
0000
1800
1800
ENDCHAR
STARTCHAR uni1E6D
ENCODING 7789
SWIDTH 600 0
DWIDTH 15 0
BBX 9 18 3 -3
BITMAP
1000
1000
1000
1000
FF80
2000
2000
2000
2000
4000
4000
4000
4000
2180
1E00
0000
0C00
0C00
ENDCHAR
STARTCHAR uni1E6E
ENCODING 7790
SWIDTH 600 0
DWIDTH 15 0
BBX 12 16 4 -2
BITMAP
7FF0
4210
4210
8420
8420
0400
0400
0800
0800
0800
1000
1000
1000
FE00
0000
7E00
ENDCHAR
STARTCHAR uni1E6F
ENCODING 7791
SWIDTH 600 0
DWIDTH 15 0
BBX 9 17 3 -2
BITMAP
1000
1000
1000
1000
FF80
2000
2000
2000
2000
4000
4000
4000
4000
2180
1E00
0000
3F00
ENDCHAR
STARTCHAR uni1E70
ENCODING 7792
SWIDTH 600 0
DWIDTH 15 0
BBX 12 18 4 -4
BITMAP
7FF0
4210
4210
8420
8420
0400
0400
0800
0800
0800
1000
1000
1000
FE00
0000
1C00
3600
6300
ENDCHAR
STARTCHAR uni1E71
ENCODING 7793
SWIDTH 600 0
DWIDTH 15 0
BBX 9 19 3 -4
BITMAP
1000
1000
1000
1000
FF80
2000
2000
2000
2000
4000
4000
4000
4000
2180
1E00
0000
1C00
3600
6300
ENDCHAR
STARTCHAR uni1E72
ENCODING 7794
SWIDTH 600 0
DWIDTH 15 0
BBX 14 17 3 -3
BITMAP
F87C
2010
2010
2010
4020
4020
4020
4020
8040
8040
8040
8080
4180
3E00
0000
3180
3180
ENDCHAR
STARTCHAR uni1E73
ENCODING 7795
SWIDTH 600 0
DWIDTH 15 0
BBX 10 14 3 -3
BITMAP
E1C0
2040
2040
4040
4080
4080
8080
8100
8300
4500
39C0
0000
3180
3180
ENDCHAR
STARTCHAR uni1E74
ENCODING 7796
SWIDTH 600 0
DWIDTH 15 0
BBX 14 17 3 -3
BITMAP
F87C
2010
2010
2010
4020
4020
4020
4020
8040
8040
8040
8080
4180
3E00
0000
1C80
2700
ENDCHAR
STARTCHAR uni1E75
ENCODING 7797
SWIDTH 600 0
DWIDTH 15 0
BBX 10 14 3 -3
BITMAP
E1C0
2040
2040
4040
4080
4080
8080
8100
8300
4500
39C0
0000
1C80
2700
ENDCHAR
STARTCHAR uni1E76
ENCODING 7798
SWIDTH 600 0
DWIDTH 15 0
BBX 14 18 3 -4
BITMAP
F87C
2010
2010
2010
4020
4020
4020
4020
8040
8040
8040
8080
4180
3E00
0000
0E00
1B00
3180
ENDCHAR
STARTCHAR uni1E77
ENCODING 7799
SWIDTH 600 0
DWIDTH 15 0
BBX 10 15 3 -4
BITMAP
E1C0
2040
2040
4040
4080
4080
8080
8100
8300
4500
39C0
0000
0E00
1B00
3180
ENDCHAR
STARTCHAR uni1E78
ENCODING 7800
SWIDTH 600 0
DWIDTH 15 0
BBX 14 22 3 0
BITMAP
00C0
0180
0300
0600
0000
0720
09C0
0000
F87C
2010
2010
2010
4020
4020
4020
4020
8040
8040
8040
8080
4180
3E00
ENDCHAR
STARTCHAR uni1E79
ENCODING 7801
SWIDTH 600 0
DWIDTH 15 0
BBX 10 19 3 0
BITMAP
0300
0600
0C00
1800
0000
1C80
2700
0000
E1C0
2040
2040
4040
4080
4080
8080
8100
8300
4500
39C0
ENDCHAR
STARTCHAR uni1E7A
ENCODING 7802
SWIDTH 600 0
DWIDTH 15 0
BBX 14 19 3 0
BITMAP
0C60
0C60
0000
0FC0
0000
F87C
2010
2010
2010
4020
4020
4020
4020
8040
8040
8040
8080
4180
3E00
ENDCHAR
STARTCHAR uni1E7B
ENCODING 7803
SWIDTH 600 0
DWIDTH 15 0
BBX 10 16 3 0
BITMAP
3180
3180
0000
3F00
0000
E1C0
2040
2040
4040
4080
4080
8080
8100
8300
4500
39C0
ENDCHAR
STARTCHAR uni1E7C
ENCODING 7804
SWIDTH 600 0
DWIDTH 15 0
BBX 14 17 3 0
BITMAP
0E40
1380
0000
F87C
2010
2020
2020
1040
1040
1080
1080
1100
0900
0A00
0A00
0C00
0C00
ENDCHAR
STARTCHAR uni1E7D
ENCODING 7805
SWIDTH 600 0
DWIDTH 15 0
BBX 13 14 3 0
BITMAP
0E40
1380
0000
F8F8
2020
2040
2040
1080
1080
1100
1100
0A00
0C00
0C00
ENDCHAR
STARTCHAR uni1E7E
ENCODING 7806
SWIDTH 600 0
DWIDTH 15 0
BBX 14 17 3 -3
BITMAP
F87C
2010
2020
2020
1040
1040
1080
1080
1100
0900
0A00
0A00
0C00
0C00
0000
0600
0600
ENDCHAR
STARTCHAR uni1E7F
ENCODING 7807
SWIDTH 600 0
DWIDTH 15 0
BBX 13 14 3 -3
BITMAP
F8F8
2020
2040
2040
1080
1080
1100
1100
0A00
0C00
0C00
0000
0600
0600
ENDCHAR
STARTCHAR Wgrave
ENCODING 7808
SWIDTH 600 0
DWIDTH 15 0
BBX 14 19 2 0
BITMAP
0C00
0600
0300
0180
0000
783C
2008
2008
2310
4510
4510
4920
4920
5120
5140
A140
A140
C180
C180
ENDCHAR
STARTCHAR wgrave
ENCODING 7809
SWIDTH 600 0
DWIDTH 15 0
BBX 13 16 2 0
BITMAP
1800
0C00
0600
0300
0000
F078
4010
4010
4620
4620
4A40
4A40
5280
5280
6300
6300
ENDCHAR
STARTCHAR Wacute
ENCODING 7810
SWIDTH 600 0
DWIDTH 15 0
BBX 14 19 2 0
BITMAP
00C0
0180
0300
0600
0000
783C
2008
2008
2310
4510
4510
4920
4920
5120
5140
A140
A140
C180
C180
ENDCHAR
STARTCHAR wacute
ENCODING 7811
SWIDTH 600 0
DWIDTH 15 0
BBX 13 16 2 0
BITMAP
00C0
0180
0300
0600
0000
F078
4010
4010
4620
4620
4A40
4A40
5280
5280
6300
6300
ENDCHAR
STARTCHAR Wdieresis
ENCODING 7812
SWIDTH 600 0
DWIDTH 15 0
BBX 14 17 2 0
BITMAP
0C60
0C60
0000
783C
2008
2008
2310
4510
4510
4920
4920
5120
5140
A140
A140
C180
C180
ENDCHAR
STARTCHAR wdieresis
ENCODING 7813
SWIDTH 600 0
DWIDTH 15 0
BBX 13 14 2 0
BITMAP
18C0
18C0
0000
F078
4010
4010
4620
4620
4A40
4A40
5280
5280
6300
6300
ENDCHAR
STARTCHAR uni1E86
ENCODING 7814
SWIDTH 600 0
DWIDTH 15 0
BBX 14 17 2 0
BITMAP
0300
0300
0000
783C
2008
2008
2310
4510
4510
4920
4920
5120
5140
A140
A140
C180
C180
ENDCHAR
STARTCHAR uni1E87
ENCODING 7815
SWIDTH 600 0
DWIDTH 15 0
BBX 13 14 2 0
BITMAP
0300
0300
0000
F078
4010
4010
4620
4620
4A40
4A40
5280
5280
6300
6300
ENDCHAR
STARTCHAR uni1E88
ENCODING 7816
SWIDTH 600 0
DWIDTH 15 0
BBX 14 17 2 -3
BITMAP
783C
2008
2008
2310
4510
4510
4920
4920
5120
5140
A140
A140
C180
C180
0000
0600
0600
ENDCHAR
STARTCHAR uni1E89
ENCODING 7817
SWIDTH 600 0
DWIDTH 15 0
BBX 13 14 2 -3
BITMAP
F078
4010
4010
4620
4620
4A40
4A40
5280
5280
6300
6300
0000
0C00
0C00
ENDCHAR
STARTCHAR uni1E8A
ENCODING 7818
SWIDTH 600 0
DWIDTH 15 0
BBX 16 17 1 0
BITMAP
00C0
00C0
0000
1E0F
0404
0408
0210
0220
0140
0180
0180
0280
0440
0840
1020
2020
F8F8
ENDCHAR
STARTCHAR uni1E8B
ENCODING 7819
SWIDTH 600 0
DWIDTH 15 0
BBX 13 14 1 0
BITMAP
0300
0300
0000
3C78
1010
0820
0440
0280
0300
0500
0880
1040
2020
F0F0
ENDCHAR
STARTCHAR uni1E8C
ENCODING 7820
SWIDTH 600 0
DWIDTH 15 0
BBX 16 17 1 0
BITMAP
0630
0630
0000
1E0F
0404
0408
0210
0220
0140
0180
0180
0280
0440
0840
1020
2020
F8F8
ENDCHAR
STARTCHAR uni1E8D
ENCODING 7821
SWIDTH 600 0
DWIDTH 15 0
BBX 13 14 1 0
BITMAP
0C60
0C60
0000
3C78
1010
0820
0440
0280
0300
0500
0880
1040
2020
F0F0
ENDCHAR
STARTCHAR uni1E8E
ENCODING 7822
SWIDTH 600 0
DWIDTH 15 0
BBX 13 17 4 0
BITMAP
0600
0600
0000
F078
2020
2040
1080
1100
0A00
0C00
0800
0800
0800
1000
1000
1000
FE00
ENDCHAR
STARTCHAR uni1E8F
ENCODING 7823
SWIDTH 600 0
DWIDTH 15 0
BBX 14 19 1 -5
BITMAP
0180
0180
0000
1E1C
0808
0808
0810
0420
0420
0440
0440
0280
0300
0300
0200
0400
0800
1000
FE00
ENDCHAR
STARTCHAR uni1E90
ENCODING 7824
SWIDTH 600 0
DWIDTH 15 0
BBX 12 18 2 0
BITMAP
0700
0D80
18C0
0000
1FF0
1010
2020
2040
0080
0100
0200
0400
0800
1000
2020
4020
8040
FFC0
ENDCHAR
STARTCHAR uni1E91
ENCODING 7825
SWIDTH 600 0
DWIDTH 15 0
BBX 11 15 3 0
BITMAP
0E00
1B00
3180
0000
3FE0
4040
4080
0100
0200
0400
0800
1000
2040
4040
FF80
ENDCHAR
STARTCHAR uni1E92
ENCODING 7826
SWIDTH 600 0
DWIDTH 15 0
BBX 12 17 2 -3
BITMAP
1FF0
1010
2020
2040
0080
0100
0200
0400
0800
1000
2020
4020
8040
FFC0
0000
0600
0600
ENDCHAR
STARTCHAR uni1E93
ENCODING 7827
SWIDTH 600 0
DWIDTH 15 0
BBX 11 14 3 -3
BITMAP
3FE0
4040
4080
0100
0200
0400
0800
1000
2040
4040
FF80
0000
0C00
0C00
ENDCHAR
STARTCHAR uni1E94
ENCODING 7828
SWIDTH 600 0
DWIDTH 15 0
BBX 12 16 2 -2
BITMAP
1FF0
1010
2020
2040
0080
0100
0200
0400
0800
1000
2020
4020
8040
FFC0
0000
1F80
ENDCHAR
STARTCHAR uni1E95
ENCODING 7829
SWIDTH 600 0
DWIDTH 15 0
BBX 11 13 3 -2
BITMAP
3FE0
4040
4080
0100
0200
0400
0800
1000
2040
4040
FF80
0000
3F00
ENDCHAR
STARTCHAR uni1E96
ENCODING 7830
SWIDTH 600 0
DWIDTH 15 0
BBX 12 18 1 -2
BITMAP
1C00
0400
0400
0400
0800
09E0
0A10
0C10
1010
1020
1020
1020
2040
2040
2040
F9F0
0000
1F80
ENDCHAR
STARTCHAR uni1E97
ENCODING 7831
SWIDTH 600 0
DWIDTH 15 0
BBX 9 18 3 0
BITMAP
C600
C600
0000
1000
1000
1000
1000
FF80
2000
2000
2000
2000
4000
4000
4000
4000
2180
1E00
ENDCHAR
STARTCHAR uni1E98
ENCODING 7832
SWIDTH 600 0
DWIDTH 15 0
BBX 13 17 2 0
BITMAP
0300
0480
0880
0900
0600
0000
F078
4010
4010
4620
4620
4A40
4A40
5280
5280
6300
6300
ENDCHAR
STARTCHAR uni1E99
ENCODING 7833
SWIDTH 600 0
DWIDTH 15 0
BBX 14 22 1 -5
BITMAP
00C0
0120
0220
0240
0180
0000
1E1C
0808
0808
0810
0420
0420
0440
0440
0280
0300
0300
0200
0400
0800
1000
FE00
ENDCHAR
STARTCHAR uni1EA0
ENCODING 7840
SWIDTH 600 0
DWIDTH 15 0
BBX 13 17 1 -3
BITMAP
0780
0180
0280
0240
0440
0440
0820
0820
0FE0
1020
1010
2010
2010
F878
0000
0300
0300
ENDCHAR
STARTCHAR uni1EA1
ENCODING 7841
SWIDTH 600 0
DWIDTH 15 0
BBX 10 14 2 -3
BITMAP
0F80
3040
0040
0040
1FC0
6080
4080
8100
8300
8500
79C0
0000
0C00
0C00
ENDCHAR
STARTCHAR uni1EA4
ENCODING 7844
SWIDTH 600 0
DWIDTH 15 0
BBX 13 23 1 0
BITMAP
00C0
0180
0300
0600
0000
0180
0240
0420
0000
0780
0180
0280
0240
0440
0440
0820
0820
0FE0
1020
1010
2010
2010
F878
ENDCHAR
STARTCHAR uni1EA5
ENCODING 7845
SWIDTH 600 0
DWIDTH 15 0
BBX 10 20 2 0
BITMAP
0180
0300
0600
0C00
0000
0600
0900
1080
0000
0F80
3040
0040
0040
1FC0
6080
4080
8100
8300
8500
79C0
ENDCHAR
STARTCHAR uni1EA6
ENCODING 7846
SWIDTH 600 0
DWIDTH 15 0
BBX 13 23 1 0
BITMAP
0C00
0600
0300
0180
0000
0180
0240
0420
0000
0780
0180
0280
0240
0440
0440
0820
0820
0FE0
1020
1010
2010
2010
F878
ENDCHAR
STARTCHAR uni1EA7
ENCODING 7847
SWIDTH 600 0
DWIDTH 15 0
BBX 10 20 2 0
BITMAP
1800
0C00
0600
0300
0000
0600
0900
1080
0000
0F80
3040
0040
0040
1FC0
6080
4080
8100
8300
8500
79C0
ENDCHAR
STARTCHAR uni1EAA
ENCODING 7850
SWIDTH 600 0
DWIDTH 15 0
BBX 13 21 1 0
BITMAP
0720
09C0
0000
0180
0240
0420
0000
0780
0180
0280
0240
0440
0440
0820
0820
0FE0
1020
1010
2010
2010
F878
ENDCHAR
STARTCHAR uni1EAB
ENCODING 7851
SWIDTH 600 0
DWIDTH 15 0
BBX 10 18 2 0
BITMAP
1C80
2700
0000
0600
0900
1080
0000
0F80
3040
0040
0040
1FC0
6080
4080
8100
8300
8500
79C0
ENDCHAR
STARTCHAR uni1EAC
ENCODING 7852
SWIDTH 600 0
DWIDTH 15 0
BBX 13 21 1 -3
BITMAP
0380
06C0
0C60
0000
0780
0180
0280
0240
0440
0440
0820
0820
0FE0
1020
1010
2010
2010
F878
0000
0300
0300
ENDCHAR
STARTCHAR uni1EAD
ENCODING 7853
SWIDTH 600 0
DWIDTH 15 0
BBX 10 18 2 -3
BITMAP
0700
0D80
18C0
0000
0F80
3040
0040
0040
1FC0
6080
4080
8100
8300
8500
79C0
0000
0C00
0C00
ENDCHAR
STARTCHAR uni1EAE
ENCODING 7854
SWIDTH 600 0
DWIDTH 15 0
BBX 13 23 1 0
BITMAP
00C0
0180
0300
0600
0000
0820
0C60
07C0
0000
0780
0180
0280
0240
0440
0440
0820
0820
0FE0
1020
1010
2010
2010
F878
ENDCHAR
STARTCHAR uni1EAF
ENCODING 7855
SWIDTH 600 0
DWIDTH 15 0
BBX 10 20 2 0
BITMAP
0180
0300
0600
0C00
0000
2080
3180
1F00
0000
0F80
3040
0040
0040
1FC0
6080
4080
8100
8300
8500
79C0
ENDCHAR
STARTCHAR uni1EB0
ENCODING 7856
SWIDTH 600 0
DWIDTH 15 0
BBX 13 23 1 0
BITMAP
0C00
0600
0300
0180
0000
0820
0C60
07C0
0000
0780
0180
0280
0240
0440
0440
0820
0820
0FE0
1020
1010
2010
2010
F878
ENDCHAR
STARTCHAR uni1EB1
ENCODING 7857
SWIDTH 600 0
DWIDTH 15 0
BBX 10 20 2 0
BITMAP
3000
1800
0C00
0600
0000
2080
3180
1F00
0000
0F80
3040
0040
0040
1FC0
6080
4080
8100
8300
8500
79C0
ENDCHAR
STARTCHAR uni1EB4
ENCODING 7860
SWIDTH 600 0
DWIDTH 15 0
BBX 13 21 1 0
BITMAP
0720
09C0
0000
0820
0C60
07C0
0000
0780
0180
0280
0240
0440
0440
0820
0820
0FE0
1020
1010
2010
2010
F878
ENDCHAR
STARTCHAR uni1EB5
ENCODING 7861
SWIDTH 600 0
DWIDTH 15 0
BBX 10 18 2 0
BITMAP
1C80
2700
0000
2080
3180
1F00
0000
0F80
3040
0040
0040
1FC0
6080
4080
8100
8300
8500
79C0
ENDCHAR
STARTCHAR uni1EB6
ENCODING 7862
SWIDTH 600 0
DWIDTH 15 0
BBX 13 21 1 -3
BITMAP
0820
0C60
07C0
0000
0780
0180
0280
0240
0440
0440
0820
0820
0FE0
1020
1010
2010
2010
F878
0000
0300
0300
ENDCHAR
STARTCHAR uni1EB7
ENCODING 7863
SWIDTH 600 0
DWIDTH 15 0
BBX 10 18 2 -3
BITMAP
1040
18C0
0F80
0000
0F80
3040
0040
0040
1FC0
6080
4080
8100
8300
8500
79C0
0000
0C00
0C00
ENDCHAR
STARTCHAR uni1EB8
ENCODING 7864
SWIDTH 600 0
DWIDTH 15 0
BBX 14 17 1 -3
BITMAP
1FFC
0404
0408
0808
0880
0880
0F00
1100
1100
1000
2010
2010
2020
FFE0
0000
0600
0600
ENDCHAR
STARTCHAR uni1EB9
ENCODING 7865
SWIDTH 600 0
DWIDTH 15 0
BBX 11 14 2 -3
BITMAP
0F80
3040
6020
4020
8020
FFE0
8000
8000
8000
4180
3E00
0000
0C00
0C00
ENDCHAR
STARTCHAR uni1EBC
ENCODING 7868
SWIDTH 600 0
DWIDTH 15 0
BBX 14 17 1 0
BITMAP
0390
04E0
0000
1FFC
0404
0408
0808
0880
0880
0F00
1100
1100
1000
2010
2010
2020
FFE0
ENDCHAR
STARTCHAR uni1EBD
ENCODING 7869
SWIDTH 600 0
DWIDTH 15 0
BBX 11 14 2 0
BITMAP
1C80
2700
0000
0F80
3040
6020
4020
8020
FFE0
8000
8000
8000
4180
3E00
ENDCHAR
STARTCHAR uni1EBE
ENCODING 7870
SWIDTH 600 0
DWIDTH 15 0
BBX 14 23 1 0
BITMAP
0060
00C0
0180
0300
0000
00C0
0120
0210
0000
1FFC
0404
0408
0808
0880
0880
0F00
1100
1100
1000
2010
2010
2020
FFE0
ENDCHAR
STARTCHAR uni1EBF
ENCODING 7871
SWIDTH 600 0
DWIDTH 15 0
BBX 11 20 2 0
BITMAP
0180
0300
0600
0C00
0000
0600
0900
1080
0000
0F80
3040
6020
4020
8020
FFE0
8000
8000
8000
4180
3E00
ENDCHAR
STARTCHAR uni1EC0
ENCODING 7872
SWIDTH 600 0
DWIDTH 15 0
BBX 14 23 1 0
BITMAP
0600
0300
0180
00C0
0000
00C0
0120
0210
0000
1FFC
0404
0408
0808
0880
0880
0F00
1100
1100
1000
2010
2010
2020
FFE0
ENDCHAR
STARTCHAR uni1EC1
ENCODING 7873
SWIDTH 600 0
DWIDTH 15 0
BBX 11 20 2 0
BITMAP
1800
0C00
0600
0300
0000
0600
0900
1080
0000
0F80
3040
6020
4020
8020
FFE0
8000
8000
8000
4180
3E00
ENDCHAR
STARTCHAR uni1EC4
ENCODING 7876
SWIDTH 600 0
DWIDTH 15 0
BBX 14 21 1 0
BITMAP
0390
04E0
0000
00C0
0120
0210
0000
1FFC
0404
0408
0808
0880
0880
0F00
1100
1100
1000
2010
2010
2020
FFE0
ENDCHAR
STARTCHAR uni1EC5
ENCODING 7877
SWIDTH 600 0
DWIDTH 15 0
BBX 11 18 2 0
BITMAP
1C80
2700
0000
0600
0900
1080
0000
0F80
3040
6020
4020
8020
FFE0
8000
8000
8000
4180
3E00
ENDCHAR
STARTCHAR uni1EC6
ENCODING 7878
SWIDTH 600 0
DWIDTH 15 0
BBX 14 21 1 -3
BITMAP
0380
06C0
0C60
0000
1FFC
0404
0408
0808
0880
0880
0F00
1100
1100
1000
2010
2010
2020
FFE0
0000
0600
0600
ENDCHAR
STARTCHAR uni1EC7
ENCODING 7879
SWIDTH 600 0
DWIDTH 15 0
BBX 11 18 2 -3
BITMAP
0E00
1B00
3180
0000
0F80
3040
6020
4020
8020
FFE0
8000
8000
8000
4180
3E00
0000
0C00
0C00
ENDCHAR
STARTCHAR uni1ECA
ENCODING 7882
SWIDTH 600 0
DWIDTH 15 0
BBX 12 17 3 -3
BITMAP
1FF0
0100
0100
0200
0200
0200
0200
0400
0400
0400
0800
0800
0800
FF80
0000
0C00
0C00
ENDCHAR
STARTCHAR uni1ECB
ENCODING 7883
SWIDTH 600 0
DWIDTH 15 0
BBX 10 19 3 -3
BITMAP
0300
0300
0300
0000
0000
1E00
0200
0200
0400
0400
0400
0400
0800
0800
0800
FFC0
0000
0C00
0C00
ENDCHAR
STARTCHAR uni1ECC
ENCODING 7884
SWIDTH 600 0
DWIDTH 15 0
BBX 13 17 2 -3
BITMAP
07C0
1830
3010
2008
4008
4008
8008
8008
8010
8010
8020
4060
60C0
1F00
0000
0600
0600
ENDCHAR
STARTCHAR uni1ECD
ENCODING 7885
SWIDTH 600 0
DWIDTH 15 0
BBX 11 14 2 -3
BITMAP
0F80
3040
6020
4020
8020
8020
8020
8040
80C0
4180
3E00
0000
0C00
0C00
ENDCHAR
STARTCHAR uni1ED0
ENCODING 7888
SWIDTH 600 0
DWIDTH 15 0
BBX 13 23 2 0
BITMAP
0060
00C0
0180
0300
0000
0180
0240
0420
0000
07C0
1830
3010
2008
4008
4008
8008
8008
8010
8010
8020
4060
60C0
1F00
ENDCHAR
STARTCHAR uni1ED1
ENCODING 7889
SWIDTH 600 0
DWIDTH 15 0
BBX 11 20 2 0
BITMAP
0180
0300
0600
0C00
0000
0600
0900
1080
0000
0F80
3040
6020
4020
8020
8020
8020
8040
80C0
4180
3E00
ENDCHAR
STARTCHAR uni1ED2
ENCODING 7890
SWIDTH 600 0
DWIDTH 15 0
BBX 13 23 2 0
BITMAP
0C00
0600
0300
0180
0000
0180
0240
0420
0000
07C0
1830
3010
2008
4008
4008
8008
8008
8010
8010
8020
4060
60C0
1F00
ENDCHAR
STARTCHAR uni1ED3
ENCODING 7891
SWIDTH 600 0
DWIDTH 15 0
BBX 11 20 2 0
BITMAP
1800
0C00
0600
0300
0000
0600
0900
1080
0000
0F80
3040
6020
4020
8020
8020
8020
8040
80C0
4180
3E00
ENDCHAR
STARTCHAR uni1ED6
ENCODING 7894
SWIDTH 600 0
DWIDTH 15 0
BBX 13 21 2 0
BITMAP
0720
09C0
0000
0180
0240
0420
0000
07C0
1830
3010
2008
4008
4008
8008
8008
8010
8010
8020
4060
60C0
1F00
ENDCHAR
STARTCHAR uni1ED7
ENCODING 7895
SWIDTH 600 0
DWIDTH 15 0
BBX 11 18 2 0
BITMAP
1C80
2700
0000
0600
0900
1080
0000
0F80
3040
6020
4020
8020
8020
8020
8040
80C0
4180
3E00
ENDCHAR
STARTCHAR uni1ED8
ENCODING 7896
SWIDTH 600 0
DWIDTH 15 0
BBX 13 21 2 -3
BITMAP
0700
0D80
18C0
0000
07C0
1830
3010
2008
4008
4008
8008
8008
8010
8010
8020
4060
60C0
1F00
0000
0600
0600
ENDCHAR
STARTCHAR uni1ED9
ENCODING 7897
SWIDTH 600 0
DWIDTH 15 0
BBX 11 18 2 -3
BITMAP
0E00
1B00
3180
0000
0F80
3040
6020
4020
8020
8020
8020
8040
80C0
4180
3E00
0000
0C00
0C00
ENDCHAR
STARTCHAR uni1EDA
ENCODING 7898
SWIDTH 600 0
DWIDTH 15 0
BBX 17 19 2 0
BITMAP
001800
003000
006000
00C000
000000
07C180
183380
301300
200F00
400E00
400C00
800800
800800
801000
801000
802000
406000
60C000
1F0000
ENDCHAR
STARTCHAR uni1EDB
ENCODING 7899
SWIDTH 600 0
DWIDTH 15 0
BBX 15 16 2 0
BITMAP
0060
00C0
0180
0300
0000
0F86
304E
602C
403C
8038
8030
8020
8040
80C0
4180
3E00
ENDCHAR
STARTCHAR uni1EDC
ENCODING 7900
SWIDTH 600 0
DWIDTH 15 0
BBX 17 19 2 0
BITMAP
018000
00C000
006000
003000
000000
07C180
183380
301300
200F00
400E00
400C00
800800
800800
801000
801000
802000
406000
60C000
1F0000
ENDCHAR
STARTCHAR uni1EDD
ENCODING 7901
SWIDTH 600 0
DWIDTH 15 0
BBX 15 16 2 0
BITMAP
0600
0300
0180
00C0
0000
0F86
304E
602C
403C
8038
8030
8020
8040
80C0
4180
3E00
ENDCHAR
STARTCHAR uni1EE0
ENCODING 7904
SWIDTH 600 0
DWIDTH 15 0
BBX 17 17 2 0
BITMAP
01C800
027000
000000
07C180
183380
301300
200F00
400E00
400C00
800800
800800
801000
801000
802000
406000
60C000
1F0000
ENDCHAR
STARTCHAR uni1EE1
ENCODING 7905
SWIDTH 600 0
DWIDTH 15 0
BBX 15 14 2 0
BITMAP
0390
04E0
0000
0F86
304E
602C
403C
8038
8030
8020
8040
80C0
4180
3E00
ENDCHAR
STARTCHAR uni1EE2
ENCODING 7906
SWIDTH 600 0
DWIDTH 15 0
BBX 17 17 2 -3
BITMAP
07C180
183380
301300
200F00
400E00
400C00
800800
800800
801000
801000
802000
406000
60C000
1F0000
000000
030000
030000
ENDCHAR
STARTCHAR uni1EE3
ENCODING 7907
SWIDTH 600 0
DWIDTH 15 0
BBX 15 14 2 -3
BITMAP
0F86
304E
602C
403C
8038
8030
8020
8040
80C0
4180
3E00
0000
0600
0600
ENDCHAR
STARTCHAR uni1EE4
ENCODING 7908
SWIDTH 600 0
DWIDTH 15 0
BBX 14 17 3 -3
BITMAP
F87C
2010
2010
2010
4020
4020
4020
4020
8040
8040
8040
8080
4180
3E00
0000
0600
0600
ENDCHAR
STARTCHAR uni1EE5
ENCODING 7909
SWIDTH 600 0
DWIDTH 15 0
BBX 10 14 3 -3
BITMAP
E1C0
2040
2040
4040
4080
4080
8080
8100
8300
4500
39C0
0000
0C00
0C00
ENDCHAR
STARTCHAR uni1EE8
ENCODING 7912
SWIDTH 600 0
DWIDTH 15 0
BBX 18 19 3 0
BITMAP
001800
003000
006000
00C000
000000
F87CC0
2011C0
201180
201380
402300
402600
402400
402000
804000
804000
804000
808000
418000
3E0000
ENDCHAR
STARTCHAR uni1EE9
ENCODING 7913
SWIDTH 600 0
DWIDTH 15 0
BBX 14 16 3 0
BITMAP
0060
00C0
0180
0300
0000
E1CC
205C
2058
4078
40B0
40E0
80C0
8100
8300
4500
39C0
ENDCHAR
STARTCHAR uni1EEA
ENCODING 7914
SWIDTH 600 0
DWIDTH 15 0
BBX 18 19 3 0
BITMAP
018000
00C000
006000
003000
000000
F87CC0
2011C0
201180
201380
402300
402600
402400
402000
804000
804000
804000
808000
418000
3E0000
ENDCHAR
STARTCHAR uni1EEB
ENCODING 7915
SWIDTH 600 0
DWIDTH 15 0
BBX 14 16 3 0
BITMAP
0600
0300
0180
00C0
0000
E1CC
205C
2058
4078
40B0
40E0
80C0
8100
8300
4500
39C0
ENDCHAR
STARTCHAR uni1EEE
ENCODING 7918
SWIDTH 600 0
DWIDTH 15 0
BBX 18 17 3 0
BITMAP
00E400
013800
000000
F87CC0
2011C0
201180
201380
402300
402600
402400
402000
804000
804000
804000
808000
418000
3E0000
ENDCHAR
STARTCHAR uni1EEF
ENCODING 7919
SWIDTH 600 0
DWIDTH 15 0
BBX 14 14 3 0
BITMAP
0720
09C0
0000
E1CC
205C
2058
4078
40B0
40E0
80C0
8100
8300
4500
39C0
ENDCHAR
STARTCHAR uni1EF0
ENCODING 7920
SWIDTH 600 0
DWIDTH 15 0
BBX 18 17 3 -3
BITMAP
F87CC0
2011C0
201180
201380
402300
402600
402400
402000
804000
804000
804000
808000
418000
3E0000
000000
060000
060000
ENDCHAR
STARTCHAR uni1EF1
ENCODING 7921
SWIDTH 600 0
DWIDTH 15 0
BBX 14 14 3 -3
BITMAP
E1CC
205C
2058
4078
40B0
40E0
80C0
8100
8300
4500
39C0
0000
0600
0600
ENDCHAR
STARTCHAR Ygrave
ENCODING 7922
SWIDTH 600 0
DWIDTH 15 0
BBX 13 19 4 0
BITMAP
1800
0C00
0600
0300
0000
F078
2020
2040
1080
1100
0A00
0C00
0800
0800
0800
1000
1000
1000
FE00
ENDCHAR
STARTCHAR ygrave
ENCODING 7923
SWIDTH 600 0
DWIDTH 15 0
BBX 14 21 1 -5
BITMAP
0600
0300
0180
00C0
0000
1E1C
0808
0808
0810
0420
0420
0440
0440
0280
0300
0300
0200
0400
0800
1000
FE00
ENDCHAR
STARTCHAR uni1EF4
ENCODING 7924
SWIDTH 600 0
DWIDTH 15 0
BBX 13 17 4 -3
BITMAP
F078
2020
2040
1080
1100
0A00
0C00
0800
0800
0800
1000
1000
1000
FE00
0000
0C00
0C00
ENDCHAR
STARTCHAR uni1EF5
ENCODING 7925
SWIDTH 600 0
DWIDTH 15 0
BBX 14 19 1 -8
BITMAP
1E1C
0808
0808
0810
0420
0420
0440
0440
0280
0300
0300
0200
0400
0800
1000
FE00
0000
0C00
0C00
ENDCHAR
STARTCHAR uni1EF8
ENCODING 7928
SWIDTH 600 0
DWIDTH 15 0
BBX 13 17 4 0
BITMAP
0E40
1380
0000
F078
2020
2040
1080
1100
0A00
0C00
0800
0800
0800
1000
1000
1000
FE00
ENDCHAR
STARTCHAR uni1EF9
ENCODING 7929
SWIDTH 600 0
DWIDTH 15 0
BBX 14 19 1 -5
BITMAP
0720
09C0
0000
1E1C
0808
0808
0810
0420
0420
0440
0440
0280
0300
0300
0200
0400
0800
1000
FE00
ENDCHAR
STARTCHAR uni2000
ENCODING 8192
SWIDTH 600 0
DWIDTH 15 0
BBX 1 1 0 0
BITMAP
00
ENDCHAR
STARTCHAR uni2001
ENCODING 8193
SWIDTH 600 0
DWIDTH 15 0
BBX 1 1 0 0
BITMAP
00
ENDCHAR
STARTCHAR uni2002
ENCODING 8194
SWIDTH 600 0
DWIDTH 15 0
BBX 1 1 0 0
BITMAP
00
ENDCHAR
STARTCHAR uni2003
ENCODING 8195
SWIDTH 600 0
DWIDTH 15 0
BBX 1 1 0 0
BITMAP
00
ENDCHAR
STARTCHAR uni2004
ENCODING 8196
SWIDTH 600 0
DWIDTH 15 0
BBX 1 1 0 0
BITMAP
00
ENDCHAR
STARTCHAR uni2005
ENCODING 8197
SWIDTH 600 0
DWIDTH 15 0
BBX 1 1 0 0
BITMAP
00
ENDCHAR
STARTCHAR uni2006
ENCODING 8198
SWIDTH 600 0
DWIDTH 15 0
BBX 1 1 0 0
BITMAP
00
ENDCHAR
STARTCHAR uni2007
ENCODING 8199
SWIDTH 600 0
DWIDTH 15 0
BBX 1 1 0 0
BITMAP
00
ENDCHAR
STARTCHAR uni2008
ENCODING 8200
SWIDTH 600 0
DWIDTH 15 0
BBX 1 1 0 0
BITMAP
00
ENDCHAR
STARTCHAR uni2009
ENCODING 8201
SWIDTH 600 0
DWIDTH 15 0
BBX 1 1 0 0
BITMAP
00
ENDCHAR
STARTCHAR uni200A
ENCODING 8202
SWIDTH 600 0
DWIDTH 15 0
BBX 1 1 0 0
BITMAP
00
ENDCHAR
STARTCHAR uni2010
ENCODING 8208
SWIDTH 600 0
DWIDTH 15 0
BBX 10 1 3 7
BITMAP
FFC0
ENDCHAR
STARTCHAR uni2011
ENCODING 8209
SWIDTH 600 0
DWIDTH 15 0
BBX 10 1 3 7
BITMAP
FFC0
ENDCHAR
STARTCHAR figuredash
ENCODING 8210
SWIDTH 600 0
DWIDTH 15 0
BBX 12 1 2 7
BITMAP
FFF0
ENDCHAR
STARTCHAR endash
ENCODING 8211
SWIDTH 600 0
DWIDTH 15 0
BBX 12 1 2 7
BITMAP
FFF0
ENDCHAR
STARTCHAR emdash
ENCODING 8212
SWIDTH 600 0
DWIDTH 15 0
BBX 15 1 0 7
BITMAP
FFFE
ENDCHAR
STARTCHAR afii00208
ENCODING 8213
SWIDTH 600 0
DWIDTH 15 0
BBX 15 1 0 7
BITMAP
FFFE
ENDCHAR
STARTCHAR quoteleft
ENCODING 8216
SWIDTH 600 0
DWIDTH 15 0
BBX 3 7 9 8
BITMAP
E0
E0
60
60
60
20
20
ENDCHAR
STARTCHAR quoteright
ENCODING 8217
SWIDTH 600 0
DWIDTH 15 0
BBX 5 7 5 8
BITMAP
18
38
30
70
60
C0
80
ENDCHAR
STARTCHAR quotesinglbase
ENCODING 8218
SWIDTH 600 0
DWIDTH 15 0
BBX 5 6 4 -3
BITMAP
18
38
70
60
C0
80
ENDCHAR
STARTCHAR quotereversed
ENCODING 8219
SWIDTH 600 0
DWIDTH 15 0
BBX 5 7 5 8
BITMAP
C0
E0
60
70
30
18
08
ENDCHAR
STARTCHAR quotedblleft
ENCODING 8220
SWIDTH 600 0
DWIDTH 15 0
BBX 7 7 5 8
BITMAP
EE
EE
66
66
66
22
22
ENDCHAR
STARTCHAR quotedblright
ENCODING 8221
SWIDTH 600 0
DWIDTH 15 0
BBX 9 7 5 8
BITMAP
1980
3B80
3300
7700
6600
CC00
8800
ENDCHAR
STARTCHAR quotedblbase
ENCODING 8222
SWIDTH 600 0
DWIDTH 15 0
BBX 10 6 2 -3
BITMAP
18C0
39C0
7380
6300
C600
8400
ENDCHAR
STARTCHAR uni201F
ENCODING 8223
SWIDTH 600 0
DWIDTH 15 0
BBX 9 7 5 8
BITMAP
CC00
EE00
6600
7700
3300
1980
0880
ENDCHAR
STARTCHAR dagger
ENCODING 8224
SWIDTH 600 0
DWIDTH 15 0
BBX 9 18 5 -2
BITMAP
0400
0400
0400
0800
0800
FF80
0800
0800
1000
1000
1000
1000
1000
2000
2000
2000
2000
2000
ENDCHAR
STARTCHAR daggerdbl
ENCODING 8225
SWIDTH 600 0
DWIDTH 15 0
BBX 10 18 4 -2
BITMAP
0200
0200
0200
0400
0400
7FC0
0400
0400
0800
0800
0800
0800
FF00
1000
1000
1000
1000
1000
ENDCHAR
STARTCHAR bullet
ENCODING 8226
SWIDTH 600 0
DWIDTH 15 0
BBX 7 6 5 5
BITMAP
3C
7E
FE
FE
FC
78
ENDCHAR
STARTCHAR ellipsis
ENCODING 8230
SWIDTH 600 0
DWIDTH 15 0
BBX 12 2 1 0
BITMAP
C630
C630
ENDCHAR
STARTCHAR perthousand
ENCODING 8240
SWIDTH 600 0
DWIDTH 15 0
BBX 13 16 2 0
BITMAP
3000
4800
8800
8800
9000
6070
0380
1C00
E000
0000
1830
2448
4488
4488
4890
3060
ENDCHAR
STARTCHAR guilsinglleft
ENCODING 8249
SWIDTH 600 0
DWIDTH 15 0
BBX 7 10 4 1
BITMAP
06
0C
18
30
60
C0
60
30
18
0C
ENDCHAR
STARTCHAR guilsinglright
ENCODING 8250
SWIDTH 600 0
DWIDTH 15 0
BBX 7 10 6 1
BITMAP
60
30
18
0C
06
0C
18
30
60
C0
ENDCHAR
STARTCHAR uni203D
ENCODING 8253
SWIDTH 600 0
DWIDTH 15 0
BBX 8 16 5 0
BITMAP
06
06
3E
CF
8F
0D
0D
0E
0E
18
28
20
00
00
78
78
ENDCHAR
STARTCHAR fraction
ENCODING 8260
SWIDTH 600 0
DWIDTH 15 0
BBX 13 8 2 4
BITMAP
0018
0030
00E0
0380
0E00
1800
7000
C000
ENDCHAR
STARTCHAR oneinferior
ENCODING 8321
SWIDTH 600 0
DWIDTH 15 0
BBX 5 9 5 -5
BITMAP
08
78
08
10
10
10
20
20
F8
ENDCHAR
STARTCHAR twoinferior
ENCODING 8322
SWIDTH 600 0
DWIDTH 15 0
BBX 8 9 5 -5
BITMAP
1E
21
41
02
04
18
20
42
FE
ENDCHAR
STARTCHAR threeinferior
ENCODING 8323
SWIDTH 600 0
DWIDTH 15 0
BBX 8 9 5 -5
BITMAP
1E
21
41
02
1C
02
82
84
78
ENDCHAR
STARTCHAR uni20A5
ENCODING 8357
SWIDTH 600 0
DWIDTH 15 0
BBX 15 18 0 -3
BITMAP
0004
0008
0008
0010
39AC
0A72
0C62
08C2
1084
1184
1284
2308
2508
2908
F9CE
1000
2000
2000
ENDCHAR
STARTCHAR uni20A6
ENCODING 8358
SWIDTH 600 0
DWIDTH 15 0
BBX 16 14 1 0
BITMAP
1F1F
0404
0404
0A08
0A08
1FFE
0908
1110
3FFC
1090
20A0
20A0
2060
F860
ENDCHAR
STARTCHAR uni20A9
ENCODING 8361
SWIDTH 600 0
DWIDTH 15 0
BBX 14 14 2 0
BITMAP
783C
2008
2008
2310
4510
7FFC
4920
4920
7FF8
5140
A140
A140
C180
C180
ENDCHAR
STARTCHAR Euro
ENCODING 8364
SWIDTH 600 0
DWIDTH 15 0
BBX 16 14 -1 0
BITMAP
00F9
0307
0602
0402
0800
7FF8
1000
1000
FFF0
1000
1000
080C
0C18
03E0
ENDCHAR
STARTCHAR uni20AD
ENCODING 8365
SWIDTH 600 0
DWIDTH 15 0
BBX 14 14 1 0
BITMAP
1F3C
0410
0420
0840
0880
0900
FFFC
1900
1080
1040
2040
2020
2020
FC38
ENDCHAR
STARTCHAR trademark
ENCODING 8482
SWIDTH 600 0
DWIDTH 15 0
BBX 14 7 2 7
BITMAP
FF1C
AB18
22A8
22C8
4490
4490
EE38
ENDCHAR
STARTCHAR uni212A
ENCODING 8490
SWIDTH 600 0
DWIDTH 15 0
BBX 14 14 1 0
BITMAP
1F3C
0410
0420
0840
0880
0900
0E00
1900
1080
1040
2040
2020
2020
FC38
ENDCHAR
STARTCHAR uni212B
ENCODING 8491
SWIDTH 600 0
DWIDTH 15 0
BBX 13 19 1 0
BITMAP
0180
0240
0240
0180
0000
0780
0180
0280
0240
0440
0440
0820
0820
0FE0
1020
1010
2010
2010
F878
ENDCHAR
STARTCHAR uni2132
ENCODING 8498
SWIDTH 600 0
DWIDTH 15 0
BBX 14 14 1 0
BITMAP
01FC
0010
0010
0010
0020
0220
0220
03C0
0440
0440
4040
4080
8080
FFE0
ENDCHAR
STARTCHAR minus
ENCODING 8722
SWIDTH 600 0
DWIDTH 15 0
BBX 10 1 4 7
BITMAP
FFC0
ENDCHAR
STARTCHAR fraction
ENCODING 8725
SWIDTH 600 0
DWIDTH 15 0
BBX 13 8 2 4
BITMAP
0018
0030
00E0
0380
0E00
1800
7000
C000
ENDCHAR
STARTCHAR periodcentered
ENCODING 8729
SWIDTH 600 0
DWIDTH 15 0
BBX 4 3 7 6
BITMAP
70
F0
E0
ENDCHAR
STARTCHAR uni2236
ENCODING 8758
SWIDTH 600 0
DWIDTH 15 0
BBX 6 10 5 0
BITMAP
1C
3C
38
00
00
00
00
70
F0
E0
ENDCHAR
STARTCHAR uni2259
ENCODING 8793
SWIDTH 600 0
DWIDTH 15 0
BBX 13 8 2 5
BITMAP
0700
0D80
18C0
0000
7FF8
0000
0000
FFF0
ENDCHAR
STARTCHAR uni225A
ENCODING 8794
SWIDTH 600 0
DWIDTH 15 0
BBX 13 8 2 5
BITMAP
18C0
0D80
0700
0000
7FF8
0000
0000
FFF0
ENDCHAR
STARTCHAR notequal
ENCODING 8800
SWIDTH 600 0
DWIDTH 15 0
BBX 13 18 2 -2
BITMAP
0008
0010
0010
0020
0040
0040
0080
7FF8
0100
0200
FFF0
0400
0800
1000
1000
2000
4000
4000
ENDCHAR
STARTCHAR equivalence
ENCODING 8801
SWIDTH 600 0
DWIDTH 15 0
BBX 13 5 0 5
BITMAP
FFF8
0000
FFF8
0000
FFF8
ENDCHAR
STARTCHAR uni2262
ENCODING 8802
SWIDTH 600 0
DWIDTH 15 0
BBX 13 18 0 -1
BITMAP
0008
0010
0010
0020
0040
0040
0080
FFF8
0100
FFF8
0400
FFF8
0800
1000
1000
2000
4000
4000
ENDCHAR
STARTCHAR lessequal
ENCODING 8804
SWIDTH 600 0
DWIDTH 15 0
BBX 13 12 2 0
BITMAP
0038
00E0
0380
0E00
3800
E000
3800
0E00
0380
00E0
0000
FFF8
ENDCHAR
STARTCHAR greaterequal
ENCODING 8805
SWIDTH 600 0
DWIDTH 15 0
BBX 13 12 2 0
BITMAP
3800
0E00
0380
00E0
0038
00E0
0380
0E00
3800
E000
0000
FFF8
ENDCHAR
STARTCHAR uni226E
ENCODING 8814
SWIDTH 600 0
DWIDTH 15 0
BBX 13 18 2 -2
BITMAP
0008
0010
0010
0020
0078
00E0
0380
0F00
3900
E200
3C00
0E00
0B80
10E0
1000
2000
4000
4000
ENDCHAR
STARTCHAR uni226F
ENCODING 8815
SWIDTH 600 0
DWIDTH 15 0
BBX 13 18 2 -2
BITMAP
0008
0010
0010
0020
3840
0E40
0380
01E0
0138
02E0
0780
0E00
3800
F000
1000
2000
4000
4000
ENDCHAR
STARTCHAR uni2270
ENCODING 8816
SWIDTH 600 0
DWIDTH 15 0
BBX 13 18 2 -3
BITMAP
0008
0010
0010
0038
00E0
03C0
0E80
3900
E100
3A00
0E00
0780
08E0
1000
FFF8
2000
4000
4000
ENDCHAR
STARTCHAR uni2271
ENCODING 8817
SWIDTH 600 0
DWIDTH 15 0
BBX 13 18 2 -3
BITMAP
0008
0010
0010
3820
0E40
03C0
00E0
0138
01E0
0380
0E00
3C00
E800
1000
FFF8
2000
4000
4000
ENDCHAR
STARTCHAR fi
ENCODING -1
SWIDTH 600 0
DWIDTH 15 0
BBX 14 16 0 0
BITMAP
00EC
010C
020C
0200
0200
1FB8
0408
0408
0410
0810
0810
0810
1020
1020
1020
FDF8
ENDCHAR
STARTCHAR fl
ENCODING -1
SWIDTH 600 0
DWIDTH 15 0
BBX 14 16 0 0
BITMAP
00FC
0104
0204
0204
0208
1F88
0408
0408
0410
0810
0810
0810
1020
1020
1020
FDF8
ENDCHAR
ENDFONT
